<?xml version="1.0" encoding="UTF-8"?>
<!DOCTYPE svg PUBLIC "-//W3C//DTD SVG 1.1//EN" "http://www.w3.org/Graphics/SVG/1.1/DTD/svg11.dtd">
<!-- Creator: CorelDRAW 2020 (64-Bit) -->
<svg xmlns="http://www.w3.org/2000/svg" xml:space="preserve" width="1920px" height="176px" version="1.1" style="shape-rendering:geometricPrecision; text-rendering:geometricPrecision; image-rendering:optimizeQuality; fill-rule:evenodd; clip-rule:evenodd"
viewBox="0 0 596.27 54.56"
 xmlns:xlink="http://www.w3.org/1999/xlink"
 xmlns:xodm="http://www.corel.com/coreldraw/odm/2003">
 <defs>
  <style type="text/css">
   <![CDATA[
    .fil0 {fill:#3DD567}
   ]]>
  </style>
 </defs>
 <g id="Слой_x0020_1">
  <metadata id="CorelCorpID_0Corel-Layer"/>
  <path id="bg.svg" class="fil0" d="M0 0c10.02,30.45 38.04,53.02 71.97,54.49 27.22,1.17 51.83,-11.5 67.01,-31.78 7.4,-9.89 23.82,-13.82 35.58,-10.03 2.99,0.96 6.11,1.68 9.32,2.14 13.42,1.92 26.41,-1.09 37.14,-7.64 6.46,-3.94 14.64,-4.78 21.77,-2.25 3.46,1.23 7.1,2.14 10.89,2.68 10.53,1.5 20.79,-0.02 29.9,-3.92 4.7,-2 9.96,-2.44 14.92,-1.24 1.75,0.43 3.54,0.77 5.36,1.03 4.85,0.69 9.64,0.74 14.29,0.22 5.75,-0.66 11.62,0.8 16.39,4.08 6.9,4.73 14.96,7.99 23.8,9.25 11.52,1.64 22.73,-0.34 32.46,-5.08 5.93,-2.89 12.94,-3.29 19.1,-0.9 4.47,1.73 9.2,2.98 14.14,3.69 11.34,1.62 22.4,0.15 32.35,-3.76 8.98,-3.52 20,-1.48 26.87,5.28 10.55,10.39 24.39,17.61 40.15,19.86 30.25,4.31 58.77,-10.92 72.86,-36.12l-596.27 0z"/>
 </g>
</svg>
