<?xml version="1.0" encoding="UTF-8"?>
<!DOCTYPE svg PUBLIC "-//W3C//DTD SVG 1.1//EN" "http://www.w3.org/Graphics/SVG/1.1/DTD/svg11.dtd">
<!-- Creator: CorelDRAW 2020 (64-Bit) -->
<svg xmlns="http://www.w3.org/2000/svg" xml:space="preserve" width="1926px" height="160px" version="1.1" style="shape-rendering:geometricPrecision; text-rendering:geometricPrecision; image-rendering:optimizeQuality; fill-rule:evenodd; clip-rule:evenodd"
viewBox="0 0 616.95 51.3"
 xmlns:xlink="http://www.w3.org/1999/xlink"
 xmlns:xodm="http://www.corel.com/coreldraw/odm/2003">
 <defs>
  <style type="text/css">
   <![CDATA[
    .fil0 {fill:#3DD567}
   ]]>
  </style>
 </defs>
 <g id="Слой_x0020_1">
  <metadata id="CorelCorpID_0Corel-Layer"/>
  <path id="bg.svg" class="fil0" d="M616.95 51.3c-17.36,-29.35 -48.73,-49.62 -85.33,-51.2 -27.63,-1.2 -53.22,8.47 -72.63,25.21 -8.83,7.62 -23.78,6.91 -33.44,0.37 -8.34,-5.65 -18.29,-9.13 -29.1,-9.6 -23.07,-1 -43.5,12.03 -53.04,31.53 -0.65,1.31 -1.97,2.18 -3.44,2.15 -1.1,-0.02 -2.13,-0.55 -2.83,-1.41 -8.74,-10.64 -21.8,-17.67 -36.64,-18.31 -4.95,-0.22 -9.77,0.29 -14.35,1.44 -7.85,1.95 -16.62,0.32 -23.03,-4.62 -8.87,-6.82 -19.85,-11.08 -31.88,-11.6 -18.73,-0.81 -35.72,7.62 -46.56,21.26 -1.04,1.31 -2.23,2.51 -3.54,3.56 -0.97,0.77 -1.92,1.58 -2.84,2.41 -2.72,2.44 -6.18,3.99 -9.83,3.92 -3.22,-0.07 -6.27,-1.37 -8.72,-3.47 -14.29,-12.26 -32.64,-19.99 -52.91,-20.87 -17.02,-0.74 -33.12,3.46 -46.91,11.34 -0.84,0.48 -1.81,0.71 -2.79,0.67 -10.64,-0.46 -20.73,2.06 -29.44,6.83 -2.92,1.6 -6.16,2.63 -9.49,2.56l-5.17 -0.1c-5.64,-0.11 -10.65,3.09 -13.04,7.93l616.95 0z"/>
 </g>
</svg>
