<?xml version="1.0" encoding="utf-8"?>
<!-- Generator: Adobe Illustrator 26.2.1, SVG Export Plug-In . SVG Version: 6.00 Build 0)  -->
<svg version="1.1" id="Layer_1" xmlns="http://www.w3.org/2000/svg" xmlns:xlink="http://www.w3.org/1999/xlink" x="0px" y="0px"
	 width="1000px" height="1000px" viewBox="0 0 1000 1000" enable-background="new 0 0 1000 1000" xml:space="preserve">
<g>
	<path fill="#5C8E34" d="M148.1,428.5c-33.9,9.9-57,27.9-62.4,34c-0.4,0.4-3.6,4.2-8.3,9c-5.6,5.9-9.6,9.4-12,11.7
		c-3.2,3.1-12.6,12.3-20.5,24.9c-3.1,4.9-8.4,13-12.6,24.7c-4.6,12.8-5.7,23.3-6.6,33.1c-0.9,10.2-0.8,18.7-0.5,24.7
		c3,18,1.5,31-0.5,39.7c-2.3,10.1-3.4,15.7-5.6,26.9c-1.1,5.5-1.7,8.7-1.6,13.2c0,5.2,1.1,10.5,3.4,19.3c2.1,8,4.2,11.5,6.3,17
		c4.2,11.1,3.6,15.2,8.1,39.2c1,5.6,2.7,14.1,5.1,24.7c1-0.7,2,15.3,2,35.5v37c0.2,9.1,0.3,18.2,0.5,27.2c-1.9,9-3.3,22.4,1.8,36.3
		c17.1,47.1,91.2,57.6,105.1,59.6c32.6,4.6,30-3.8,105.9-2.5c29,0.5,37.6,1.9,57.6-0.5c30-3.6,60.1-7.2,78.9-29.7
		c4.1-4.9,18.6-22.2,19.2-44.7c0.2-8.5-1.7-15.3,2.2-25.2c3.9-10,7.6-10.1,15-21.7c3.3-5.2,10.3-16.2,12.6-30.5
		c2.4-14.8-2.7-17.6,0.8-33.3c2.2-9.9,4.7-10.7,5.3-18.5c0.9-10.7-3-18.1-7.1-27.7c-0.6-1.4-5.1-15.3-14.2-43.2
		c-11.6-35.7-11.5-40.2-11.2-43.2c0.5-5.8,2.3-12.8-0.6-21.9c-1.2-3.7-2.6-6.3-2.9-11.1c-0.3-5.8,1.5-9.9,2.9-13.7
		c1.2-3.2,7.2-19.8,4.1-34c-1.5-7-3.5-5.5-7.1-15c-6.4-16.8-1.4-24.4-6.5-40.4c0,0-2.5-7.9-10-19c-13.8-20.4-55.3-49.3-117-62.9
		C266.4,425,204.5,412,148.1,428.5z"/>
	<path d="M167.3,971.8c-5.1,0-10.8-0.4-18.2-1.4c-7.3-1-29.5-4.2-52.3-13.1C67.2,945.6,48.4,929,40.7,908c-4.2-11.6-4.9-24.4-2-38.1
		l-0.5-26.8l0-37.1c0-14.3-0.5-25.1-1-30.5l-0.9-4.2c-1.9-8.3-3.6-16.7-5.1-24.8c-1.5-8.2-2.4-14-3.2-18.7
		c-1.4-8.9-2.1-12.9-4.7-19.9c-0.6-1.6-1.2-3.1-1.9-4.6c-1.5-3.5-3-7-4.6-12.8c-2.3-8.7-3.5-14.5-3.5-20.3c0-5,0.7-8.6,1.7-14
		c2.2-11.2,3.3-16.9,5.6-27c2.6-11.4,2.7-24.2,0.5-38.2l0-0.4c-0.4-8.4-0.3-16.8,0.5-25.2c0.8-9.1,1.9-20.5,6.8-34
		c4.1-11.3,9-19.1,12.3-24.4l0.7-1.1c7.6-12.1,16.5-21.3,21.1-25.7c0.5-0.4,1-0.9,1.6-1.5c2.4-2.3,5.8-5.4,10.2-10.1
		c2.8-2.9,5.7-6,8.1-8.8l0.1-0.1c6.3-7.2,30.4-25.3,64.4-35.3c54.6-16,114.7-4.9,131.9-1.1c61.7,13.6,104.5,42.2,119.6,64.6
		c7.7,11.5,10.4,19.7,10.5,20.1c2.6,8.1,2.8,14.1,2.9,19.9c0.2,6.2,0.4,12,3.5,20.2c1.6,4.2,2.8,5.9,3.8,7.5
		c1.3,1.9,2.5,3.8,3.5,8.1c2.9,13.4-1.5,28.4-4.3,36.2c-0.2,0.4-0.3,0.9-0.5,1.3c-1.2,3.3-2.4,6.5-2.2,10.9c0.2,2.9,0.8,4.8,1.7,7.2
		c0.3,0.9,0.7,1.8,1,2.9c2.6,8.2,1.8,14.9,1.1,20.3c-0.1,1.1-0.3,2.2-0.4,3.2c-0.2,2.1-0.5,6,11,41.7c8.4,25.8,13.5,41.4,14.1,42.9
		c0.4,1,0.8,2,1.3,2.9c3.6,8.3,7,16.1,6.1,26.7c-0.4,4.8-1.5,7.4-2.6,10.2c-0.9,2.1-1.9,4.6-2.8,8.8c-1.7,7.7-1.2,11.8-0.7,16.5
		c0.5,4.2,1.1,9.1-0.1,16.5c-2.5,15.2-9.7,26.6-13.2,32c-3.3,5.2-6,8.3-8.2,10.8c-2.7,3.1-4.5,5.2-6.5,10.2
		c-2.5,6.5-2.3,11.3-2.1,16.9c0.1,2.2,0.2,4.5,0.1,6.9c-0.4,15.9-7.2,31.7-20.1,47.2c-19.9,23.8-51.3,27.6-81.7,31.2
		c-14.9,1.8-23.9,1.5-38.6,1.1c-5.5-0.2-11.8-0.4-19.5-0.5c-39.1-0.7-57,1.3-70,2.6C178.9,971.2,173.5,971.8,167.3,971.8z
		 M44.2,768.6c1,1.8,1.4,5.1,1.8,12.4c0.4,6.9,0.6,15.8,0.6,25.1v37l0.5,27.6l-0.1,0.4c-2.6,12.4-2.1,23.9,1.6,34.1
		c6.8,18.7,24.1,33.6,51.3,44.3c21.9,8.6,43.4,11.6,50.4,12.6c15.2,2.2,22.4,1.4,34.2,0.1c13.3-1.4,31.5-3.4,71.1-2.7
		c7.8,0.1,14.1,0.3,19.7,0.5c14.8,0.5,23,0.7,37.3-1c30-3.6,58.4-7,76.2-28.3c11.7-14,17.9-28.2,18.3-42.2c0.1-2.2,0-4.3-0.1-6.4
		c-0.3-6-0.5-12.2,2.6-20.2c2.5-6.3,5-9.2,7.9-12.6c2.1-2.4,4.4-5.1,7.4-9.8c3.2-5,9.9-15.4,12-29c1-6.4,0.6-10.2,0.1-14.3
		c-0.6-5-1.2-10.2,0.8-19.2c1.1-4.9,2.3-7.8,3.2-10.1c1-2.5,1.7-4.2,2-7.8c0.7-8.6-2-14.9-5.5-22.8c-0.4-1-0.9-2-1.3-3
		c-0.6-1.5-4-11.7-14.3-43.6c-12.1-37.2-11.7-41.4-11.4-44.8c0.1-1.1,0.2-2.3,0.4-3.5c0.6-4.8,1.3-10.3-0.8-16.9
		c-0.3-0.9-0.6-1.7-0.9-2.5c-1-2.7-2-5.4-2.2-9.5c-0.3-6,1.3-10.5,2.7-14.1c0.2-0.4,0.3-0.8,0.5-1.2c2.5-7,6.4-20.4,4-31.8
		c-0.6-2.9-1.2-3.7-2.3-5.3c-1.2-1.7-2.7-4.1-4.6-9.1c-3.6-9.5-3.8-16.3-4-22.9c-0.2-5.5-0.3-10.7-2.6-17.7c0-0.1-2.5-7.6-9.5-18
		c-13.7-20.3-55.3-48.1-114.4-61.1c-16.6-3.7-75-14.4-127.6,0.9l-1.2-3.9l1.2,3.9c-31.9,9.3-54.9,26.4-60.5,32.8l-0.1,0.1
		c-2.5,2.8-5.4,6-8.3,9.1c-4.6,4.8-8.1,8.1-10.6,10.4c-0.6,0.5-1.1,1-1.5,1.5c-4.4,4.2-12.7,12.8-19.8,24.1l-0.7,1.1
		c-3.1,4.9-7.8,12.4-11.6,22.8c-4.6,12.6-5.5,22.9-6.3,32.1c-0.7,7.9-0.9,16-0.5,23.9c2.4,14.9,2.2,28.7-0.6,41
		c-2.3,10-3.4,15.6-5.5,26.8c-1.1,5.6-1.6,8.4-1.6,12.5c0,5,1.2,10.3,3.3,18.3c1.4,5.2,2.7,8.4,4.2,11.7c0.7,1.5,1.4,3.1,2,4.9
		c2.9,7.7,3.7,12.3,5.1,21.5c0.7,4.6,1.7,10.4,3.2,18.4C40.9,752.9,42.5,760.8,44.2,768.6z"/>
</g>
<g>
	<path fill="#FFFFFD" d="M256.5,587.2c0.6,12.4-16.5,22.3-25.4,27.5c-9.9,5.7-20.8,9.8-60.3,14.6c-52.5,6.4-65.4,3.1-75.6-3.5
		c-6-3.9-12.8-8.3-13.7-15.3c-2.6-19.8,43.3-42.9,79.3-51c32-7.1,52.4-1.5,59.1,0.6C226.4,562.1,255.7,571.4,256.5,587.2z"/>
	<path d="M126.2,636.1c-17.2,0-25.6-2.8-32.9-7.5c-6.3-4-14.1-9.1-15.2-17.6c-1.8-13.2,13.6-25.3,26.8-33.1
		c15.6-9.2,36.2-17.2,55.1-21.5c22.5-5,43.6-4.8,60.9,0.7c24.9,7.8,38.3,18.2,39,30l0,0c0.7,14.3-17.3,24.8-27,30.4
		c-9.3,5.4-19.8,9.9-61.6,15.1C151.4,635,137.1,636.1,126.2,636.1z M191.1,559.3c-8.5,0-18.3,0.9-29.5,3.4
		c-18.3,4.1-38.2,11.8-53.2,20.7c-16,9.5-24.6,19.2-23.6,26.7c0.7,5.6,6.6,9.4,12.3,13c8.8,5.7,19.8,9.5,73.4,2.9
		c40.5-5,50.3-9.2,59-14.2c7.9-4.6,24.3-14.1,23.8-24.5l0,0c-0.4-8.6-13-17.4-34.3-24.2C212.3,561.1,203,559.3,191.1,559.3z"/>
</g>
<g>
	<path fill="#FFFFFD" d="M420.2,597.3c-3.3,22.6-37.2,30.2-41,31.1c-24.5,5.2-44.3-5.2-53.3-10c-9.4-4.9-24.6-13-24.4-24.2
		c0.2-9.4,11-16.2,18.5-20.8c15.4-9.5,31.3-10.7,44.2-11.5c18.2-1.2,29.1-1.9,39.6,4.6C414.1,572.9,422,585.1,420.2,597.3z"/>
	<path d="M365.8,633c-19.2,0-34.3-8-41.5-11.8c-9.9-5.2-26.4-13.9-26.2-27.1c0.2-11.2,12.1-18.6,20-23.5
		c16.4-10.1,33.4-11.2,45.8-12c18.8-1.2,30.2-2,41.6,5.1c10.5,6.5,20.1,19.5,18,34.1c-1.5,10.4-9.1,19.5-22.1,26.1
		c-9.4,4.9-18.9,7.1-21.6,7.6C375,632.6,370.3,633,365.8,633z M381.1,564.3c-4.8,0-10.2,0.4-16.8,0.8c-11.7,0.8-27.7,1.8-42.6,11
		c-6.7,4.1-16.8,10.4-16.9,18c-0.1,9.3,14.1,16.8,22.7,21.3c9,4.7,27.7,14.6,51,9.7c3.6-0.8,35.5-8.1,38.4-28.3v0
		c1.4-9.9-4.7-21.3-15-27.6C395.8,565.4,389.5,564.3,381.1,564.3z"/>
</g>
<g>
	<path fill="#E84D4D" d="M446.2,766c-5.7,34.5-60.9,51.5-79.2,57.1c-32.3,9.9-57.8,9.4-92.2,8.6c-33.7-0.7-65-1.6-102.2-15
		c-30.5-10.9-67.9-24.3-73.9-53.6c-5.1-24.8,15.3-46.7,16.6-48.1c12.2-12.7,29.4-16.3,63.7-23.4c16-3.3,30.3-6.2,49.6-5.8
		c20.3,0.5,25.2,4.2,45.5,6.9c37.3,5,40.1-4.8,81.6-1.7c42.8,3.2,59.8,15.1,65,19c14.2,10.7,19.6,22.4,20.7,24.8
		C446.3,745.6,447.7,757.3,446.2,766z"/>
	<path d="M299.4,835.3c-7.8,0-15.9-0.2-24.6-0.4c-31.8-0.7-64.7-1.4-103.3-15.2c-31-11.1-69.6-24.9-76-56.1
		C90,737,112,713.8,113,712.8c12.9-13.4,30.5-17.1,65.5-24.4c15.6-3.3,30.3-6.3,50.4-5.8c12.5,0.3,19.4,1.8,27.3,3.5
		c5,1.1,10.6,2.3,18.6,3.4c18.9,2.5,28.4,1.2,39.5-0.3c10.1-1.4,21.6-3,41.9-1.5c29.6,2.2,52.7,9,66.8,19.7
		c13.7,10.4,19.7,21.7,21.7,26.1c4.8,10.6,6.6,22.9,5,33h0c-6,36.5-62.8,54-81.5,59.7C343.4,833.7,322.9,835.3,299.4,835.3z
		 M224.7,689c-17.4,0-30.8,2.8-44.9,5.7c-33.6,7-50.5,10.5-62,22.5c-0.8,0.9-20.6,21.8-15.8,45.2c5.6,27.5,42.3,40.6,71.7,51.2
		c37.5,13.4,69.9,14.1,101.2,14.8c34.5,0.7,59.3,1.3,91.1-8.5c17.7-5.4,71.5-22,76.9-54.5l0,0c1.4-8.7-0.3-19.9-4.5-29.3
		c-1.8-3.9-7.2-14.1-19.7-23.5c-13.1-9.9-34.9-16.3-63.2-18.4c-19.6-1.4-30.2,0-40.4,1.4c-11.1,1.5-21.5,3-41.3,0.3
		c-8.2-1.1-14-2.4-19.2-3.5c-7.6-1.7-14.1-3.1-26-3.4C227.3,689,226,689,224.7,689z"/>
</g>
<g>
	<path d="M87,708.3c-8,9.9-12.3,22.6-11.7,35.2c0.2,3.6,0.7,7.2,1.6,10.8c0.6,2.3,5.5,1,4.9-1.3c-3-11.6-1.6-24,3.8-34.7
		c1.5-3,3.4-5.8,5.5-8.5c0.7-0.9,0.4-2-0.7-2.4C89.3,706.9,87.7,707.3,87,708.3L87,708.3z"/>
</g>
<g>
	<path d="M65.2,642.8c-0.4-6.3,1.4-12.6,5.2-17.7c0.6-0.9-0.6-1.1-1.2-1.1c-1,0-2.6,0.4-3.2,1.2c-4.1,5.5-6,12.1-5.6,18.9
		C60.4,645.3,65.3,644.4,65.2,642.8L65.2,642.8z"/>
</g>
<g>
	<path d="M54,581c4.5,6.6,10.4,12.1,17.4,16.3c0.9,0.5,2.2,0.2,3.2-0.1c0.3-0.1,2.2-1.1,1.4-1.6c-6.9-4.1-12.9-9.7-17.4-16.3
		c-0.2-0.3-1-0.3-1.3-0.3c-0.6,0-1.3,0.2-1.9,0.4C54.8,579.6,53.5,580.2,54,581L54,581z"/>
</g>
<g>
	<path d="M259.9,624.1c1.3,12.8-4.7,26-14.9,34c-2.9,2.2-5.9,3.9-9.3,5.2c-0.8,0.3-1.9,1.2-1.2,2.1c0.7,0.9,2.4,0.5,3.2,0.2
		c13.5-5.1,23.7-17.3,26.5-31.1c0.8-3.9,1-7.8,0.6-11.7c-0.1-1.1-2.1-0.9-2.8-0.7C261,622.4,259.7,623,259.9,624.1L259.9,624.1z"/>
</g>
<g>
	<path d="M237.3,551.6c5.2,1.4,10,4,13.9,7.7c1.9,1.9,3.7,3.9,5.1,6.2c1.3,2.1,2.4,4.4,3.8,6.5c1.6,2.5,3.7,4.5,6.5,5.7
		c1.1,0.5,2.7,0,3.4-0.9c0.8-0.9,0.4-1.8-0.6-2.3c-4.5-1.9-6.4-7.4-8.8-11.2c-2.9-4.5-7-8.4-11.7-11.1c-2.8-1.6-5.7-2.9-8.8-3.7
		c-1.2-0.3-2.6,0-3.4,0.9C236,550.2,236.2,551.3,237.3,551.6L237.3,551.6z"/>
</g>
<g>
	<path d="M295.5,570.8c4.6-11,13.6-20.2,24.9-24.9c0.6-0.3,2-1,1.3-1.8c-0.6-0.8-2.5-0.3-3.2,0c-12.5,5.2-22.7,15-27.8,27.3
		c-0.4,1,1.6,1,2.1,0.9C293.7,572.2,295.1,571.8,295.5,570.8L295.5,570.8z"/>
</g>
<g>
	<path d="M155,760.8c16.8,1.8,33.6,3.7,50.5,5.3c16.8,1.6,33.7,3,50.6,3.8c16.9,0.9,33.7,1.3,50.6,1c16.9-0.3,33.7-1.2,50.5-3.1
		c15-1.7,30.3-4.4,43.7-11.3c1.8-0.9,3.5-1.9,5.2-2.9c1.1-0.7,2.1-2.2,0.6-3c-1.5-0.8-3.8-0.2-5.2,0.6c-3,1.9-5.8,3.3-9.2,4.7
		c-3.4,1.4-6.1,2.3-9.7,3.3c-7.1,2-13.6,3-21,4c-16,2-32.2,3.1-48.3,3.4c-16.6,0.4-33.3,0.1-49.9-0.7c-16.7-0.8-33.3-2.1-49.9-3.6
		c-16.6-1.5-33.2-3.3-49.8-5.1c-2-0.2-4.1-0.4-6.1-0.7c-1.6-0.2-3.9,0.6-4.8,2C152,760,153.7,760.7,155,760.8L155,760.8z"/>
</g>
<g>
	<path d="M273,948.9c20.2,5.9,42.4,5.2,62.2-1.7c5.6-2,11.1-4.3,16.2-7.3c1.2-0.7,2.9-2.1,1.8-3.5c-1-1.3-3.6-1.2-4.9-0.4
		c-4.3,2.4-8.7,4.5-13.3,6.2c-0.3,0.1-0.7,0.2-1,0.4c-0.7,0.3-0.2,0.1,0,0c-0.6,0.2-1.2,0.4-1.8,0.6c-1.2,0.4-2.3,0.7-3.5,1.1
		c-2.4,0.7-4.8,1.3-7.2,1.8c-0.6,0.1-1.3,0.3-1.9,0.4c-0.3,0.1-0.6,0.1-0.9,0.2c-1.1,0.2,0.5-0.1-0.2,0c-1.2,0.2-2.4,0.4-3.7,0.5
		c-2.4,0.3-4.9,0.5-7.4,0.7c-1.2,0.1-2.5,0.1-3.7,0.1c-0.3,0-0.6,0-0.9,0c0.1,0-1.1,0-0.6,0c0.5,0-0.7,0-0.6,0c-0.4,0-0.8,0-1.2,0
		c-2.5-0.1-4.9-0.2-7.4-0.5c-2.7-0.3-5.5-0.7-8.2-1.2c-2.1-0.4-5.2-1.2-7.7-1.9c-1.7-0.5-3.9,0-5.1,1.3
		C271,946.9,271.4,948.5,273,948.9L273,948.9z"/>
</g>
<g>
	<path d="M289.3,936.7c8.5,1.7,17.1,3.3,25.9,2.8c7.7-0.5,15.7-2.7,21.9-7.4c1.1-0.8,2-2.4,0.5-3.3c-1.4-0.9-3.9-0.5-5.2,0.5
		c-0.7,0.5-1.4,1-2.1,1.5c-0.3,0.2-0.7,0.4-1,0.6c0.6-0.3-0.6,0.3-0.7,0.4c-0.7,0.4-1.4,0.7-2.2,1c-0.3,0.1-0.6,0.2-1,0.4
		c0.8-0.3-0.5,0.2-0.7,0.2c-0.8,0.2-1.5,0.4-2.3,0.6c-0.4,0.1-0.9,0.2-1.4,0.3c-0.2,0-1.2,0.2-0.4,0.1c-1.7,0.3-3.3,0.4-5,0.5
		c-3.4,0.2-7.1-0.1-10.8-0.6c-3.8-0.5-7.5-1.2-11.2-1.9c-1.8-0.3-3.9,0-5.1,1.3C287.5,934.7,287.7,936.4,289.3,936.7L289.3,936.7z"
		/>
</g>
<g>
	<path d="M418.3,854.2c-3.9,1.1-7.3,3-10.2,5.7c-2.4,2.3-4.4,5.1-6.2,7.9c-2,3-4,6.1-6.2,9c-2.4,3.2-4.9,6.2-7.6,9.1
		c-3.1,3.3-6.3,6.4-9.7,9.4c-1.3,1.1,1.1,1.3,1.8,1.3c1.7-0.1,3.6-0.6,4.9-1.7c5.8-5,11.1-10.5,15.8-16.4c2.3-2.9,4.5-6,6.5-9.1
		c1.7-2.6,3.3-5.2,5.3-7.6c1.1-1.3,2.3-2.6,3.7-3.7c0.1-0.1,0.6-0.4,0.8-0.6c0.1-0.1,0.2-0.2,0.4-0.2c0,0,0.8-0.5,0.3-0.2
		c0.3-0.2,0.7-0.3,1.1-0.5c-0.6,0.3-0.1,0.1,0,0c0.8-0.3-0.7,0.2,0.2-0.1c0.8-0.2,3.6-0.9,3.3-2.1C422,853.3,418.9,854,418.3,854.2
		L418.3,854.2z"/>
</g>
<g>
	<path d="M149.4,644.1c14,0.1,28-0.9,41.9-2.9c4-0.6,8-1.3,12-2c0.9-0.2,2.3-1.1,2-2.1c-0.3-1.1-2-1-2.8-0.8
		c-16.9,3.2-34.1,4.8-51.3,4.7c-1.1,0-2.6,0.3-3.2,1.4C147.5,643.3,148.4,644.1,149.4,644.1L149.4,644.1z"/>
</g>
<g>
	<path d="M346.9,639.5c15.9,2.6,32.3,1.1,47.6-4c0.4-0.1,2-0.7,1.4-1.4c-0.5-0.6-2.6,0.1-3.1,0.3c-13.4,4.5-28,5.5-41.9,3.2
		c-1.1-0.2-2.4,0.1-3.4,0.6C347.1,638.4,345.8,639.3,346.9,639.5L346.9,639.5z"/>
</g>
<g>
	<path d="M333.5,540.5c2.6-0.7,5.2-1.3,7.8-2c0.6-0.1,1.2-0.4,1.7-0.7c0.2-0.1,0.6-0.4,0.6-0.8c-0.1-0.3-0.6-0.4-0.9-0.4
		c-0.6,0-1.2,0.1-1.8,0.2c-2.6,0.7-5.2,1.3-7.8,2c-0.6,0.1-1.2,0.4-1.7,0.7c-0.2,0.1-0.6,0.4-0.6,0.8c0.1,0.3,0.6,0.4,0.9,0.4
		C332.4,540.8,333,540.7,333.5,540.5L333.5,540.5z"/>
</g>
<g>
	<path d="M228.3,546.2c-13.3-2.8-26.8-4.6-40.4-5.3c-1.1-0.1-2.5,0.3-3.4,0.9c-0.8,0.5-0.7,1,0.3,1.1c13.3,0.7,26.5,2.4,39.6,5.2
		c1.1,0.2,2.4-0.1,3.4-0.6C228.1,547.3,229.4,546.4,228.3,546.2L228.3,546.2z"/>
</g>
<g>
	<path d="M377.7,551.5c7.3-1.1,14.9,0.3,21.4,3.7c0.9,0.5,2.2,0.1,3.1-0.2c0.2-0.1,2.2-1,1.4-1.4c-7.7-4-16.5-5.3-25.1-3.9
		c-0.7,0.1-2.6,0.5-2.8,1.4C375.5,551.8,377.3,551.5,377.7,551.5L377.7,551.5z"/>
</g>
<path d="M207.2,588.3c-0.1,8.6-5.9,14.5-9.5,18.1C186.2,618,171,618.6,169,618.6c-3.6,0.1-14.9,0.2-25.1-7.6
	c-1.8-1.4-13.3-10.3-13.2-22.7c0.1-9.3,6.3-15.7,9.2-18.7c11.1-11.5,26.3-11.7,29-11.7c2.3,0,17.4,0.3,28.7,11.6
	C200.9,572.7,207.3,579.1,207.2,588.3z"/>
<path d="M384.4,585.6c0,3.8,0.1,11.6-5.3,17.9c-6.7,7.7-17.1,7.9-23,8.1c-5.8,0.1-16.5,0.4-24.3-7.4c-1.1-1.1-7.5-7.6-7.3-17.6
	c0.2-9,5.6-14.8,7.8-17.2c9.2-9.8,21.7-10.3,23.5-10.3c3.2-0.1,14.8-0.3,22.5,8.3C384.3,574,384.4,582,384.4,585.6z"/>
<g>
	<g>
		<path fill="#FCE583" d="M74.9,580.2c-2,10.5-5.4,36.2,2.8,63.6l-59.5,8.1c-7.4-9.2-4.5-21.8-3.8-24.5L74.9,580.2z"/>
	</g>
	<g>
		<path fill="#FFFFFF" d="M134.6,536.2c-5.7,17.6-18.4,74.4,16.3,158.4c-44.4-13.4-66.9-45.3-68.7-48.1c-11.1-32.7-4.2-64.8-3-69.7
			L134.6,536.2z M107.5,652.8c0.2,1,1.1,1.7,2.1,1.5l11.9-2.2c1-0.2,1.6-1.1,1.4-2.1l-3.2-18.9c-0.2-1-1.1-1.7-2.1-1.5l-11.9,2.2
			c-1,0.2-1.6,1.1-1.4,2.1L107.5,652.8z M86.2,637.2l2,12.1c0.2,1,1.1,1.7,2.1,1.5l9.3-1.7c1-0.2,1.6-1.1,1.4-2.1l-2-12.1
			c-0.2-1-1.1-1.7-2.1-1.5l-9.3,1.7C86.7,635.2,86.1,636.2,86.2,637.2z"/>
	</g>
	<g>
		<polygon fill="#5086FF" points="90,638.4 95.8,637.3 97.2,645.8 91.5,646.9 		"/>
	</g>
	<g>
		<path fill="#5086FF" d="M180.7,519c149.6-35.9,285.5-24.1,298.5-22.8c39.3,89.9,10.7,153.5,7.4,160.3
			c-84.7,32.7-277.9,44.3-295.2,45.3C149.9,600.5,177.2,527.4,180.7,519z"/>
	</g>
	<g>
		<polygon fill="#5086FF" points="119.1,648.8 110.7,650.3 108.1,635.1 116.5,633.5 		"/>
	</g>
	<g>
		<path fill="#FCE583" d="M139.7,532.7l36.6-12.3c-6.1,16.6-26.9,86.7,11,180.8l-32-5.6C114.7,599.8,136.8,539.8,139.7,532.7z"/>
	</g>
	<g opacity="0.25">
		<path fill="#1B1B1C" d="M226.9,526.1c3.9-0.1,7.2,3,7.4,6.9c1.7,26,8.5,117.7,20.8,119.6c14.4,2.2,156.2-13.5,184.6-24.6
			c13.6-5.3,23.2-23.9,29.5-41.9c2.6-7.5,13.7-6,14.3,1.9c1.8,25.4,1.4,54.7-8.8,61.9c-17.2,12.2-228.7,33.9-265,37.6
			c-3.2,0.3-6.2-1.5-7.5-4.4C181,633,186.9,556.5,188.9,536.1c0.3-3.1,2.6-5.7,5.7-6.4C207.1,526.9,219.5,526.2,226.9,526.1z"/>
	</g>
	<g>
		<g>
			<path fill="#131314" d="M402.7,685.1c33-6,63.7-13.4,86.8-22.5c1.1-0.4,2-1.2,2.5-2.3c1.5-2.8,36.2-69.7-7.3-168
				c-0.7-1.6-2.2-2.7-3.9-2.9c-1.4-0.2-144.6-15-302.5,23.1c-1.4,0.3-2.6,1.4-3.3,2.7c-1.5,3.2-35.1,79.7,10.7,190.4
				c0.8,1.9,2.7,3.1,4.7,3C196.8,708.3,308.8,702.3,402.7,685.1z M484.4,653.9c-82.2,31.2-264.1,43-291,44.5
				c-38-94.5-15.4-163.7-10.4-176.7c143.4-34.1,273.9-24.4,294.2-22.6C513.3,583.4,489.1,643.5,484.4,653.9z"/>
		</g>
		<g>
			<path fill="#131314" d="M191,708.6c2-0.4,3.6-2,3.9-4.1c0.4-2.7-1.3-5.3-4-5.8l-33.6-5.8c-37.3-89.2-19.6-146.6-15.5-157.6
				l38.9-13.1c2.5-0.9,3.9-3.7,3.1-6.3c-0.8-2.6-3.5-4.1-6.1-3.2l-41,13.8c-1.3,0.4-2.3,1.4-2.9,2.6c-1.2,2.6-29.2,65.3,15.6,170.4
				c0.7,1.5,2,2.6,3.6,2.9l36.1,6.3C190,708.7,190.5,708.7,191,708.6z"/>
		</g>
		<g>
			<path fill="#131314" d="M154.9,702.3c1.8-0.3,3.3-1.7,3.8-3.7c0.7-2.7-0.9-5.4-3.5-6.1C111,680.5,87.9,649.3,85,645
				c-9.9-29.8-4.6-59.1-3-66.3l59.2-43.4c2.2-1.6,2.7-4.7,1.2-7c-1.5-2.3-4.5-2.8-6.7-1.2l-60.7,44.5c-0.9,0.7-1.6,1.6-1.9,2.8
				c-0.4,1.5-9.7,37.3,3.1,74.7c0.1,0.4,0.3,0.8,0.5,1.1c1,1.6,25.2,38.3,76.2,52.1C153.6,702.4,154.2,702.4,154.9,702.3z"/>
		</g>
		<g>
			<path fill="#131314" d="M79.7,650.4c2.5-0.5,4.3-2.9,3.9-5.6c-0.3-2.8-2.8-4.7-5.4-4.3l-58.7,8c-4.6-7-3.3-15.9-2.5-19.2
				l63.6-49.5c2.1-1.7,2.6-4.8,1-7c-1.6-2.2-4.6-2.7-6.7-1L9.9,622.2c-0.8,0.6-1.4,1.5-1.7,2.4c-0.3,0.8-6.1,19.3,5.7,32.6
				c1.1,1.2,2.6,1.8,4.2,1.6l61.4-8.3C79.5,650.5,79.6,650.4,79.7,650.4z"/>
		</g>
		<g>
			<path fill="#131314" d="M109.7,655.5l11.9-2.2c1.6-0.3,2.6-1.9,2.4-3.5l-3.2-18.9c-0.3-1.6-1.8-2.7-3.4-2.5l-11.9,2.2
				c-1.6,0.3-2.6,1.9-2.4,3.5l3.2,18.9C106.7,654.7,108.2,655.8,109.7,655.5z M117.8,647.9l-6.2,1.1l-2.2-13l6.2-1.1L117.8,647.9z"
				/>
		</g>
		<g>
			<path fill="#131314" d="M90.5,652l9.3-1.7c1.6-0.3,2.6-1.9,2.4-3.5l-2-12.1c-0.3-1.6-1.8-2.7-3.4-2.5l-9.3,1.7
				c-1.6,0.3-2.6,1.9-2.4,3.5l2,12.1C87.4,651.2,88.9,652.3,90.5,652z M95.9,644.9l-3.6,0.7l-1-6.2l3.6-0.7L95.9,644.9z"/>
		</g>
	</g>
	<g>
		<path d="M283.8,578.2c0.3,2,0,3.8-0.9,5.4c-0.9,1.6-2.3,2.9-4.3,4c2.7,0.5,4.8,1.5,6.3,3c1.5,1.5,2.4,3.4,2.7,5.7
			c0.6,4.3-0.6,7.8-3.5,10.3c-2.9,2.5-7.4,4.2-13.4,5c-0.8,0.1-1.7,0.2-2.7,0.3c-1,0.1-2,0.1-3.1,0.2c-1.1,0-2.1,0-3.2,0
			c-1.1-0.1-2.1-0.2-2.9-0.4c-2.4-0.5-3.8-1.9-4.1-4.1l-4.3-31.9c-0.1-0.9,0-1.6,0.4-2.2c0.4-0.6,1-1,1.9-1.4
			c1.4-0.7,3.2-1.3,5.3-1.8c2.2-0.5,4.4-1,6.7-1.3c5.6-0.7,10-0.4,13.3,1.1C281.4,571.5,283.3,574.2,283.8,578.2z M276.9,597.2
			c-0.4-3.2-2.7-4.5-6.7-3.9l-6.9,0.9l1.3,9.4c0.7,0.1,1.6,0.1,2.7,0c1.1-0.1,2.1-0.1,3.1-0.3c2.1-0.3,3.8-0.9,5.1-1.9
			C276.6,600.4,277.1,599,276.9,597.2z M262.3,586.8l6.2-0.8c1.7-0.2,3-0.8,3.9-1.8c0.9-0.9,1.2-2.2,1-3.7c-0.2-1.4-0.9-2.5-2.2-3.1
			c-1.2-0.6-3-0.8-5.3-0.5c-0.8,0.1-1.7,0.3-2.7,0.5c-0.9,0.2-1.7,0.4-2.2,0.5L262.3,586.8z"/>
		<path d="M333.5,581.4c0.5,3.5,0.4,6.6-0.3,9.5c-0.7,2.8-1.9,5.3-3.5,7.3c-1.6,2.1-3.7,3.7-6.1,5c-2.4,1.3-5.1,2.1-8.1,2.5
			c-3,0.4-5.8,0.3-8.5-0.3c-2.7-0.6-5.1-1.7-7.1-3.2c-2.1-1.6-3.8-3.6-5.3-6.1c-1.4-2.5-2.3-5.5-2.8-9c-0.5-3.5-0.3-6.6,0.4-9.4
			c0.7-2.8,1.9-5.2,3.5-7.3c1.6-2.1,3.6-3.7,6-5c2.4-1.3,5.1-2.1,8-2.5c2.9-0.4,5.8-0.3,8.4,0.3c2.7,0.6,5.1,1.7,7.2,3.2
			c2.1,1.6,3.9,3.6,5.3,6.1C332.1,574.9,333,577.9,333.5,581.4z M322.6,582.8c-0.6-4.3-1.9-7.4-4-9.3c-2.1-1.9-4.7-2.7-7.8-2.3
			c-3,0.4-5.3,1.8-6.9,4.2c-1.5,2.4-2,5.8-1.5,10c0.6,4.3,1.9,7.5,4,9.4c2.1,1.9,4.7,2.7,7.8,2.3c3.1-0.4,5.4-1.8,6.9-4.2
			C322.7,590.5,323.2,587.2,322.6,582.8z"/>
		<path d="M371.9,566.4c0.3,2,0,3.8-0.9,5.4c-0.9,1.6-2.3,2.9-4.3,4c2.7,0.5,4.8,1.5,6.3,3c1.5,1.5,2.4,3.4,2.7,5.7
			c0.6,4.3-0.6,7.8-3.5,10.3c-2.9,2.5-7.4,4.2-13.4,5c-0.8,0.1-1.7,0.2-2.7,0.3c-1,0.1-2,0.1-3.1,0.2c-1.1,0-2.1,0-3.2,0
			c-1.1-0.1-2.1-0.2-2.9-0.4c-2.4-0.5-3.8-1.9-4.1-4.1l-4.3-31.9c-0.1-0.9,0-1.6,0.4-2.2c0.4-0.6,1-1,1.9-1.4
			c1.4-0.7,3.2-1.3,5.3-1.8c2.2-0.5,4.4-1,6.7-1.3c5.6-0.7,10-0.4,13.3,1.1C369.5,559.7,371.4,562.4,371.9,566.4z M365,585.4
			c-0.4-3.2-2.7-4.5-6.7-3.9l-6.9,0.9l1.3,9.4c0.7,0.1,1.6,0.1,2.7,0c1.1-0.1,2.1-0.1,3.1-0.3c2.1-0.3,3.8-0.9,5.1-1.9
			C364.7,588.6,365.2,587.2,365,585.4z M350.3,575l6.2-0.8c1.7-0.2,3-0.8,3.9-1.8c0.9-0.9,1.2-2.2,1-3.7c-0.2-1.4-0.9-2.5-2.2-3.1
			c-1.2-0.6-3-0.8-5.3-0.5c-0.8,0.1-1.7,0.3-2.7,0.5c-0.9,0.2-1.7,0.4-2.2,0.5L350.3,575z"/>
		<path d="M419.4,581.6l-13.1,1.8c-0.3,1.7-0.5,3.3-0.7,4.9c-0.2,1.6-0.4,3.1-0.5,4.3c-0.6,0.3-1.1,0.5-1.7,0.7
			c-0.6,0.2-1.4,0.4-2.3,0.5c-2,0.3-3.5,0.1-4.6-0.4c-1.1-0.6-1.7-1.5-1.9-2.8c-0.1-0.6-0.1-1.2,0-1.8c0.1-0.6,0.2-1.3,0.3-2.1
			c0.2-1.2,0.4-2.8,0.7-4.7c0.3-1.9,0.7-3.9,1.1-6c0.4-2.2,0.9-4.4,1.3-6.7c0.5-2.3,0.9-4.5,1.4-6.6c0.4-2.1,0.9-4,1.2-5.7
			c0.4-1.7,0.7-3.1,0.9-4.1c0.6-0.5,1.6-1,3-1.6c1.4-0.5,2.7-0.9,4.1-1.1c2-0.3,3.8-0.2,5.4,0.1c1.6,0.4,2.7,1.1,3.4,2.4
			c1.2,2.3,2.4,4.9,3.8,7.9c1.4,3,2.8,6.1,4.3,9.2c1.4,3.2,2.9,6.3,4.2,9.4c1.4,3.1,2.6,5.9,3.6,8.3c-0.4,0.6-1.1,1.2-2,1.7
			c-0.9,0.5-2,0.8-3.4,1c-1.9,0.3-3.3,0.1-4.2-0.5c-0.9-0.6-1.6-1.5-2.1-2.9L419.4,581.6z M409.8,559.5c-0.4,2.1-0.8,4.5-1.4,7.2
			c-0.6,2.7-1.1,5.4-1.5,8.2l9.6-1.3c-1.1-2.7-2.3-5.3-3.4-7.8c-1.1-2.5-2.1-4.6-2.9-6.4L409.8,559.5z"/>
		<path d="M445.2,587.6c-2.1,0.3-3.6,0.1-4.5-0.5c-0.9-0.6-1.5-1.8-1.8-3.7l-4.8-36.2c0.5-0.2,1.2-0.4,2.1-0.6
			c0.9-0.3,1.8-0.4,2.8-0.6c2-0.3,3.5-0.1,4.5,0.4c1,0.6,1.6,1.8,1.8,3.8l4.8,36.2c-0.5,0.2-1.1,0.4-2,0.6
			C447.2,587.3,446.2,587.5,445.2,587.6z"/>
	</g>
</g>
<g>
	<path fill="#201600" d="M496.6,397.9c0,21.3,19.2,38.6,42.9,38.6c23.7,0,42.9-17.3,42.9-38.6c0-21.3-19.2-38.6-42.9-38.6
		C515.8,359.3,496.6,376.6,496.6,397.9z"/>
	<path fill="#5BD85B" d="M543.3,424c18.5,0,33.6-13,33.6-29.1c0-16-15.1-29.1-33.6-29.1c-18.5,0-33.6,13-33.6,29.1
		C509.6,410.9,524.7,424,543.3,424z"/>
	<path fill="#201600" d="M451.7,436.5c0,9,8.2,16.2,18.4,16.2c10.2,0,18.4-7.3,18.4-16.2c0-9-8.2-16.2-18.4-16.2
		C460,420.3,451.7,427.6,451.7,436.5z"/>
	<path fill="#5BD85B" d="M472.3,441.9c5.7,0,10.6-3.6,10.6-7.8c0-4.2-4.8-7.8-10.6-7.8c-5.7,0-10.6,3.6-10.6,7.8
		C461.7,438.3,466.6,441.9,472.3,441.9z"/>
	<path fill="#201600" d="M520.1,251.3c0-37.6,19.4-70.5,48.5-88.9c-3.5-9.4-5.5-19.5-5.5-30.2c0-46.4,36.6-83.9,81.7-83.9
		c21.1,0,40.3,8.3,54.8,21.8c11.3-24.7,35.6-41.9,64-41.9c25.2,0,47.2,13.6,59.7,34c7.8-8.5,18.9-13.9,31.2-13.9
		c23.4,0,42.4,19.3,42.8,43.3c6.7-2,13.8-3.1,21.1-3.1c41.5,0,75.1,34.6,75.1,77.2c0,27.3-13.8,51.2-34.6,64.9
		c20.9,14.6,34.6,39.2,34.6,67.1c0,44.8-35.3,81-78.9,81c-21,0-40-8.5-54.1-22.2c-4,23.6-24,41.5-48.1,41.5
		c-17.5,0-32.8-9.5-41.4-23.8c-10,31.7-39.9,54.7-75.3,54.7c-42,0-76.3-32.5-78.7-73.4C563.1,352.9,520.1,307.3,520.1,251.3z"/>
	<path fill="#5BD85B" d="M701.3,409.6c30,0,56.1-18.9,65-47l5.9-18.5l10,16.5c7.1,11.8,19.4,18.9,32.9,18.9
		c18.9,0,34.9-13.9,38.2-32.9l2.8-16.5l11.9,11.5c12.7,12.3,29.3,19.1,46.7,19.1c37.5,0,68.1-31.4,68.1-69.9
		c0-23.2-11.2-44.8-29.9-57.9l-11-7.7l11.2-7.4c18.6-12.3,29.7-33.1,29.7-55.6c0-36.5-28.9-66.1-64.4-66.1c-6,0-12.1,0.9-18.1,2.7
		l-11.1,3.3l-0.2-11.8C888.6,72,873.8,57,855.9,57c-9.1,0-17.7,3.8-24,10.7l-7.8,8.5l-6.1-9.9c-11.1-18.1-30.1-28.9-50.8-28.9
		c-23.2,0-44.5,14-54.3,35.6l-5,11.1l-8.8-8.2c-13.1-12.2-30-18.9-47.5-18.9c-39,0-70.8,32.6-70.8,72.7c0,8.9,1.6,17.7,4.8,26.1
		l2.6,7l-6.2,3.9c-26.9,17-43,46.5-43,78.9c0,49.6,37.8,90.2,86,92.4l7.9,0.4l0.5,8.1C635.5,381.9,665.3,409.6,701.3,409.6z"/>
</g>
<g>
	<path d="M629.5,159.9l-0.8,9.6h16.7c1.9,0,3.4,0.4,4.4,1.2c1,0.8,1.5,2,1.5,3.5c0,1.9-0.5,3.3-1.6,4.1c-1.1,0.9-2.7,1.3-5,1.3
		h-16.7l-0.9,10.5h18.2c1.9,0,3.4,0.4,4.4,1.3c1,0.9,1.5,2,1.5,3.5c0,3.6-2.2,5.4-6.7,5.4h-24.9c-2,0-3.4-0.5-4.4-1.6
		c-1-1.1-1.4-2.6-1.2-4.5l3-38.5c0.2-2,0.9-3.5,2-4.5c1.2-1.1,2.7-1.6,4.6-1.6h25c1.9,0,3.4,0.4,4.4,1.3c1,0.8,1.5,2,1.5,3.4
		c0,3.7-2.2,5.5-6.7,5.5H629.5z"/>
	<path d="M657.4,199.4c-1.2-1-1.7-2.5-1.5-4.4l3.2-39.6c0.1-2,0.9-3.5,2.1-4.5c1.3-1,2.8-1.5,4.6-1.5s3.3,0.5,4.5,1.5
		c1.2,1,1.7,2.5,1.5,4.5l-3.2,39.6c-0.1,1.9-0.9,3.4-2.1,4.4c-1.3,1-2.8,1.5-4.6,1.5C660.1,200.9,658.6,200.4,657.4,199.4z"/>
	<path d="M684.6,198.9c-2.9-1.4-5.2-3.5-6.8-6.2c-1.6-2.7-2.4-5.7-2.4-9.3c0-4,0.8-7.4,2.4-10.3c1.6-2.9,3.9-5.1,6.9-6.7
		c3-1.5,6.4-2.3,10.3-2.3c3.9,0,7.4,0.7,10.3,2.2c2.9,1.4,5.2,3.5,6.8,6.1c1.6,2.6,2.4,5.7,2.4,9.2c0,4-0.8,7.5-2.4,10.4
		c-1.6,2.9-3.9,5.1-6.9,6.7c-3,1.5-6.4,2.3-10.3,2.3C691,201.1,687.5,200.3,684.6,198.9z M700.2,188.7c1.1-1.9,1.7-4.4,1.7-7.3
		c0-2.6-0.5-4.6-1.6-5.9c-1.1-1.3-2.7-1.9-4.9-1.9c-2.5,0-4.4,0.9-5.5,2.8c-1.1,1.9-1.7,4.3-1.7,7.2c0,2.7,0.5,4.7,1.6,6
		c1.1,1.3,2.7,1.9,4.9,1.9C697.2,191.6,699.1,190.7,700.2,188.7z"/>
	<path d="M754,167.5c2,2.2,3,5.5,3,9.8c0,1.1,0,1.9-0.1,2.4l-1.2,15.2c-0.2,1.8-0.9,3.3-2.1,4.3c-1.2,1.1-2.8,1.6-4.8,1.6
		c-2,0-3.5-0.5-4.6-1.6c-1.1-1.1-1.6-2.5-1.4-4.3l1.2-14.8c0.1-2-0.2-3.6-1-4.6c-0.8-1.1-2-1.6-3.7-1.6c-1.9,0-3.3,0.6-4.4,1.8
		c-1,1.2-1.6,2.9-1.8,4.9l-1.2,14.3c-0.1,1.8-0.8,3.3-2,4.3c-1.2,1.1-2.8,1.6-4.8,1.6c-2,0-3.6-0.5-4.6-1.6
		c-1.1-1.1-1.5-2.5-1.4-4.3l2-24.8c0.1-1.7,0.8-3.1,2.1-4.2s2.9-1.6,4.9-1.6c1.6,0,2.9,0.4,3.9,1.2c1,0.8,1.5,1.9,1.6,3.3
		c1.2-1.4,2.9-2.6,4.8-3.4c2-0.8,4.1-1.3,6.5-1.3C749,164.2,752,165.3,754,167.5z"/>
	<path d="M837.4,151.2c1.1,1.2,1.5,2.8,1.3,4.8l-3.1,39c-0.2,1.8-0.8,3.3-1.9,4.4s-2.5,1.6-4.3,1.6c-1.7,0-3-0.5-4.1-1.6
		s-1.5-2.5-1.3-4.3l1.7-21.2l-9.3,15.2c-1,1.5-1.9,2.6-2.9,3.3c-1,0.7-2.1,1-3.3,1s-2.3-0.3-3.2-1c-0.9-0.7-1.7-1.8-2.4-3.3l-7-14.4
		l-1.7,20.3c-0.1,1.8-0.7,3.2-1.9,4.3c-1.2,1.1-2.6,1.7-4.4,1.7c-1.7,0-3-0.5-4-1.6c-1-1.1-1.4-2.5-1.3-4.3l3.1-39.2
		c0.2-1.9,0.9-3.5,2.2-4.7c1.2-1.2,2.8-1.8,4.6-1.8c2.6,0,4.6,1.4,5.9,4.3l11,24.4l15.1-24.3c0.9-1.4,1.9-2.5,3-3.3
		c1.1-0.7,2.3-1.1,3.5-1.1C834.8,149.4,836.3,150,837.4,151.2z"/>
	<path d="M880.5,165.9c1,1.1,1.5,2.5,1.3,4.3l-1.9,24.8c-0.1,1.7-0.8,3.1-2.1,4.2c-1.2,1.1-2.8,1.6-4.8,1.6c-1.6,0-3-0.4-4-1.2
		c-1-0.8-1.6-1.9-1.7-3.3c-1.2,1.4-2.8,2.6-4.8,3.4s-4,1.3-6.3,1.3c-3.8,0-6.8-1.1-8.8-3.3c-2-2.2-3-5.4-3-9.5c0-0.5,0-1.4,0.1-2.5
		l1.2-15.5c0.1-1.8,0.8-3.3,2.1-4.3c1.2-1.1,2.9-1.6,4.9-1.6c2,0,3.5,0.5,4.5,1.6c1,1.1,1.5,2.5,1.3,4.3l-1.2,14.8l-0.1,1.1
		c0,1.7,0.4,3,1.2,3.9c0.8,0.9,1.9,1.3,3.4,1.3c1.8,0,3.2-0.6,4.2-1.8c1-1.2,1.6-2.9,1.7-4.9l1.2-14.3c0.2-1.8,0.9-3.3,2.2-4.3
		c1.2-1.1,2.9-1.6,4.8-1.6C877.9,164.3,879.4,164.9,880.5,165.9z"/>
	<path d="M888.7,198.8c-1.2-0.5-2.1-1.2-2.7-2.1c-0.6-0.9-0.9-1.8-0.9-2.8c0-1.2,0.4-2.3,1.2-3.3s1.8-1.4,3-1.4
		c0.7,0,1.5,0.2,2.4,0.6c1.5,0.7,3.3,1.3,5.1,1.7c1.9,0.4,3.7,0.6,5.4,0.6c1.4,0,2.5-0.2,3.2-0.5c0.7-0.3,1.1-0.8,1.1-1.5
		c0-0.8-0.5-1.4-1.4-1.8c-1-0.4-2.5-1-4.7-1.6c-2.6-0.7-4.8-1.4-6.6-2.2c-1.7-0.7-3.2-1.8-4.5-3.3c-1.2-1.5-1.8-3.4-1.8-5.8
		c0-2.2,0.8-4.2,2.2-5.9c1.4-1.7,3.4-3.1,5.9-4c2.6-1,5.5-1.4,8.9-1.4c1.5,0,3.3,0.2,5.3,0.6c2,0.4,3.7,0.9,5,1.5
		c1,0.5,1.8,1.2,2.3,2.1c0.5,0.9,0.8,1.8,0.8,2.7c0,1.2-0.4,2.2-1.1,3.1c-0.7,0.9-1.7,1.3-2.8,1.3c-0.7,0-1.4-0.2-2.1-0.5
		c-2.7-1.3-5.6-2-8.6-2c-1.5,0-2.6,0.2-3.4,0.5s-1.2,0.9-1.2,1.5c0,0.8,0.5,1.4,1.5,1.9c1,0.5,2.6,1,4.7,1.6
		c2.6,0.7,4.7,1.4,6.4,2.2c1.7,0.7,3.2,1.8,4.5,3.2c1.3,1.4,1.9,3.3,1.9,5.6c0,3.6-1.5,6.5-4.4,8.5c-2.9,2-7,3.1-12.4,3.1
		C896.6,201.1,892.5,200.3,888.7,198.8z"/>
	<path d="M957,191.3c0.9,1,1.3,2.1,1.3,3.3c0,1.6-0.7,3.1-2.1,4.4c-1.4,1.3-2.9,2-4.6,2c-1.6,0-3-0.7-4.2-2l-11.4-13.6l-0.7,9.4
		c-0.1,2-0.9,3.5-2.2,4.5c-1.3,1-2.9,1.5-4.7,1.5c-1.8,0-3.3-0.5-4.5-1.5c-1.2-1-1.7-2.5-1.5-4.4l3.2-39.6c0.1-2,0.9-3.5,2.1-4.5
		c1.3-1,2.8-1.5,4.6-1.5s3.3,0.5,4.5,1.5c1.2,1,1.7,2.5,1.5,4.4l-1.9,24.3l13-13.5c1.2-1.2,2.6-1.9,4.2-1.9c1.5,0,2.9,0.6,4.1,1.7
		c1.2,1.1,1.8,2.4,1.8,3.9c0,1.5-0.6,2.8-1.8,4l-8.4,8.4L957,191.3z"/>
	<path d="M615.1,285.3c-1-1.1-1.4-2.6-1.2-4.5l3-38.4c0.2-2,0.9-3.6,2.2-4.8c1.2-1.2,2.9-1.8,4.9-1.8c2.1,0,3.7,0.6,4.8,1.8
		c1.1,1.2,1.6,2.7,1.4,4.7l-2.7,33.9H644c1.9,0,3.4,0.4,4.4,1.3c1,0.8,1.5,2.1,1.5,3.6c0,2.1-0.6,3.6-1.7,4.5
		c-1.1,0.9-2.8,1.4-5.1,1.4h-23.6C617.6,286.9,616.1,286.3,615.1,285.3z"/>
	<path d="M662.1,285.3c-2.9-1.4-5.2-3.5-6.8-6.2c-1.6-2.7-2.4-5.7-2.4-9.3c0-4,0.8-7.4,2.4-10.3c1.6-2.9,3.9-5.1,6.9-6.7
		c3-1.5,6.4-2.3,10.3-2.3c3.9,0,7.4,0.7,10.3,2.2c2.9,1.4,5.2,3.5,6.8,6.1c1.6,2.6,2.4,5.7,2.4,9.2c0,4-0.8,7.5-2.4,10.4
		c-1.6,2.9-3.9,5.1-6.9,6.7c-3,1.5-6.4,2.3-10.3,2.3C668.5,287.5,665.1,286.7,662.1,285.3z M677.7,275.1c1.1-1.9,1.7-4.4,1.7-7.3
		c0-2.6-0.5-4.6-1.6-5.9c-1.1-1.3-2.7-1.9-4.9-1.9c-2.5,0-4.4,0.9-5.5,2.8c-1.1,1.9-1.7,4.3-1.7,7.2c0,2.7,0.5,4.7,1.6,6
		c1.1,1.3,2.7,1.9,4.9,1.9C674.8,278,676.6,277.1,677.7,275.1z"/>
	<path d="M723.3,251.6c1-0.6,2-0.9,3.1-0.9c1.5,0,2.9,0.5,4.1,1.5c1.2,1,1.8,2.2,1.8,3.6c0,0.8-0.2,1.6-0.6,2.4l-13,24.7
		c-0.8,1.5-1.8,2.6-3.2,3.4s-2.7,1.2-4.2,1.2s-2.8-0.4-4-1.2c-1.2-0.8-2.1-1.9-2.6-3.4l-8.9-24.9c-0.2-0.4-0.3-0.9-0.3-1.5
		c0-1.6,0.7-3,2.2-4.1c1.4-1.2,3-1.8,4.8-1.8c1.1,0,2.1,0.3,3,0.9c0.9,0.6,1.5,1.5,1.9,2.7l5.5,17.1l8.1-17.1
		C721.5,253.1,722.3,252.2,723.3,251.6z"/>
	<path d="M767.2,270.7c-0.6,0.6-1.4,0.9-2.5,0.9h-18.8c0.6,4.3,3.2,6.5,7.8,6.5c1.4,0,2.5-0.1,3.5-0.4c0.9-0.3,2.1-0.7,3.6-1.3
		c0.9-0.4,1.6-0.6,2.2-0.6c1.1,0,1.9,0.4,2.5,1.2c0.6,0.8,0.9,1.8,0.9,3c0,1-0.2,2-0.6,2.9c-0.4,0.9-1.1,1.6-2,2.2
		c-1.2,0.7-2.8,1.3-4.8,1.8c-1.9,0.5-4,0.7-6.2,0.7c-3.8,0-7.1-0.7-10-2.2s-5.2-3.5-6.8-6.1c-1.6-2.6-2.4-5.7-2.4-9.2
		c0-3.7,0.8-7,2.3-10c1.6-3,3.7-5.3,6.5-6.9c2.8-1.7,5.9-2.5,9.4-2.5c5.1,0,9.1,1.5,12,4.6c2.9,3.1,4.3,7.4,4.3,13
		C768.1,269.3,767.8,270.1,767.2,270.7z M748.1,260.8c-1,1-1.7,2.6-2.1,4.8h11.4c0-2.1-0.5-3.6-1.4-4.7c-0.9-1.1-2.2-1.6-3.9-1.6
		C750.5,259.2,749.1,259.7,748.1,260.8z"/>
	<path d="M847.2,237.6c1.1,1.2,1.5,2.8,1.3,4.8l-3.1,39c-0.2,1.8-0.8,3.3-1.9,4.4s-2.5,1.6-4.3,1.6c-1.7,0-3-0.5-4.1-1.6
		s-1.5-2.5-1.3-4.3l1.7-21.2l-9.3,15.2c-1,1.5-1.9,2.6-2.9,3.3c-1,0.7-2.1,1-3.3,1s-2.3-0.3-3.2-1c-0.9-0.7-1.7-1.8-2.4-3.3l-7-14.4
		l-1.7,20.3c-0.1,1.8-0.7,3.2-1.9,4.3c-1.2,1.1-2.6,1.7-4.4,1.7c-1.7,0-3-0.5-4-1.6c-1-1.1-1.4-2.5-1.3-4.3l3.1-39.2
		c0.2-1.9,0.9-3.5,2.2-4.7c1.2-1.2,2.8-1.8,4.6-1.8c2.6,0,4.6,1.4,5.9,4.3l11,24.4l15.1-24.3c0.9-1.4,1.9-2.5,3-3.3
		c1.1-0.7,2.3-1.1,3.5-1.1C844.7,235.8,846.1,236.4,847.2,237.6z"/>
	<path d="M886.9,270.7c-0.6,0.6-1.4,0.9-2.5,0.9h-18.8c0.6,4.3,3.2,6.5,7.8,6.5c1.4,0,2.5-0.1,3.5-0.4c0.9-0.3,2.1-0.7,3.6-1.3
		c0.9-0.4,1.6-0.6,2.2-0.6c1.1,0,1.9,0.4,2.5,1.2c0.6,0.8,0.9,1.8,0.9,3c0,1-0.2,2-0.6,2.9c-0.4,0.9-1.1,1.6-2,2.2
		c-1.2,0.7-2.8,1.3-4.8,1.8c-1.9,0.5-4,0.7-6.2,0.7c-3.8,0-7.1-0.7-10-2.2s-5.2-3.5-6.8-6.1c-1.6-2.6-2.4-5.7-2.4-9.2
		c0-3.7,0.8-7,2.3-10c1.6-3,3.7-5.3,6.5-6.9c2.8-1.7,5.9-2.5,9.4-2.5c5.1,0,9.1,1.5,12,4.6c2.9,3.1,4.3,7.4,4.3,13
		C887.8,269.3,887.5,270.1,886.9,270.7z M867.8,260.8c-1,1-1.7,2.6-2.1,4.8h11.4c0-2.1-0.5-3.6-1.4-4.7c-0.9-1.1-2.2-1.6-3.9-1.6
		C870.2,259.2,868.8,259.7,867.8,260.8z"/>
</g>
</svg>
