<?xml version="1.0" encoding="utf-8"?>
<!-- Generator: Adobe Illustrator 26.2.1, SVG Export Plug-In . SVG Version: 6.00 Build 0)  -->
<svg version="1.1" id="Layer_1" xmlns="http://www.w3.org/2000/svg" xmlns:xlink="http://www.w3.org/1999/xlink" x="0px" y="0px"
	 width="1920px" height="1276px" viewBox="0 0 1920 1276" style="enable-background:new 0 0 1920 1276;" xml:space="preserve">
<style type="text/css">
	.st0{fill-rule:evenodd;clip-rule:evenodd;fill:#3DD567;}
</style>
<path class="st0" d="M2110.6,1512.8c25.6-3.2,44.6-25.3,43.9-51.1l-5.9-204.9c-0.4-13.3,4.1-26.2,11.5-37.2
	c29.5-44,46.7-97,46.7-154.1c0-62.7-20.8-120.6-55.9-167.1c-8-10.6-13.2-23.2-13.6-36.5l-18.2-630.6c-0.9-29.4-26.8-51.8-56.1-48.2
	c-24.4,3-37.1-20.9-44-24c-80.5-36.6-112.2-84.6-208.6-127.8c-43.2-19.3-64.8-29-89.7-29.9c-63.7-2.3-90.9,36.5-183.5,82.8
	c-39,19.5-101.6,50.9-175.5,59.4c-92.6,10.7-109.4-25.2-199.3-29.8C1002,105.7,976.6,215.9,820,211c-117-3.6-132.1-66-225.2-46.2
	c-100.6,21.4-102,98.4-203.3,114.4c-95.5,15-141.3-46-205.4-8.5C141.2,297,148.2,336,95,357.5c-45.9,18.6-63.3-5.5-108.7,18.9
	C-38,389.5-53.9,391.2-89.2,430c-10.7,11.8-24.7,20.5-40.5,22.4l-3.4,0.4c-25.6,3.1-44.6,25.3-43.9,51.1l35.4,1230.3
	c0.8,29.4,26.8,51.8,56.1,48.2L2110.6,1512.8z"/>
</svg>
