<?xml version="1.0" encoding="utf-8"?>
<!-- Generator: Adobe Illustrator 26.2.1, SVG Export Plug-In . SVG Version: 6.00 Build 0)  -->
<svg version="1.1" id="Layer_1" xmlns="http://www.w3.org/2000/svg" xmlns:xlink="http://www.w3.org/1999/xlink" x="0px" y="0px"
	 width="1000px" height="1000px" viewBox="0 0 1000 1000" enable-background="new 0 0 1000 1000" xml:space="preserve">
<g>
	<path fill="#5C8E34" d="M304.8,22.1c-60.9,17.8-102.6,50.2-112.4,61.3c-0.7,0.8-6.5,7.5-14.9,16.2c-10.1,10.6-17.2,17-21.5,21.1
		c-5.8,5.5-22.7,22.2-36.9,44.8c-5.6,8.9-15.1,23.4-22.7,44.4c-8.3,23.1-10.2,42-11.8,59.5c-1.7,18.3-1.5,33.6-0.9,44.4
		c5.3,32.4,2.7,55.8-0.9,71.5c-4.1,18.1-6.1,28.2-10,48.4c-1.9,9.9-3,15.7-2.9,23.8c0.1,9.4,2,18.9,6.1,34.8
		c3.8,14.5,7.6,20.8,11.4,30.6c7.6,20,6.5,27.3,14.6,70.6c1.9,10,4.8,25.4,9.1,44.4c1.8-1.3,3.6,27.5,3.6,63.9v66.6
		c0.3,16.3,0.6,32.7,0.9,49c-3.5,16.2-5.9,40.2,3.2,65.4c30.7,84.8,164.1,103.7,189.2,107.3c58.7,8.4,53.9-6.9,190.6-4.6
		c52.2,0.9,67.6,3.4,103.6-0.9c54.1-6.5,108.1-12.9,142.1-53.5c7.4-8.9,33.4-40,34.6-80.4c0.4-15.3-3-27.5,4-45.4
		c7-17.9,13.7-18.2,27.1-39.1c5.9-9.3,18.5-29.1,22.7-54.9c4.3-26.6-4.8-31.6,1.5-59.9c4-17.9,8.4-19.2,9.6-33.2
		c1.6-19.2-5.4-32.6-12.8-49.8c-1.1-2.5-9.2-27.6-25.5-77.8c-20.9-64.3-20.7-72.4-20.2-77.8c0.9-10.4,4.1-23.1-1.1-39.4
		c-2.1-6.6-4.8-11.4-5.2-19.9c-0.6-10.5,2.7-17.8,5.2-24.7c2.1-5.7,13-35.6,7.4-61.2c-2.7-12.6-6.2-9.9-12.8-27
		c-11.5-30.2-2.5-43.9-11.7-72.7c0,0-4.6-14.2-18.1-34.3c-24.8-36.7-99.6-88.7-210.6-113.1C517.8,15.8,406.3-7.6,304.8,22.1z"/>
	<path d="M339.5,1000c-9.2,0-19.4-0.7-32.7-2.6c-13.1-1.9-53-7.5-94.2-23.7c-53.3-20.9-87.3-50.6-101-88.5
		c-7.6-20.8-8.8-43.9-3.6-68.5l-0.9-48.2l0-66.7c0-25.7-0.9-45.2-1.8-54.8l-1.7-7.5c-3.4-15-6.4-30-9.2-44.7
		c-2.7-14.7-4.4-25.2-5.7-33.6c-2.5-16-3.7-23.2-8.5-35.8c-1.1-2.9-2.2-5.5-3.4-8.3c-2.7-6.2-5.5-12.6-8.2-23.1
		c-4.1-15.6-6.3-26-6.4-36.5c-0.1-9,1.2-15.5,3.1-25.3c3.9-20.2,5.9-30.4,10.1-48.6c4.7-20.5,4.9-43.6,0.8-68.7l-0.1-0.8
		c-0.8-15-0.5-30.3,0.9-45.4c1.5-16.4,3.4-36.9,12.2-61.3c7.3-20.3,16.3-34.5,22.2-43.9l1.2-1.9c13.6-21.7,29.7-38.3,38-46.3
		c0.8-0.8,1.8-1.7,2.9-2.7c4.4-4.1,10.4-9.8,18.4-18.2c5-5.3,10.2-10.9,14.5-15.8l0.1-0.2c11.4-13,54.7-45.6,115.9-63.5
		c98.2-28.7,206.5-8.8,237.4-1.9c111,24.5,188.1,76,215.2,116.3c13.9,20.7,18.8,35.5,19,36.1c4.7,14.5,5,25.4,5.3,35.9
		c0.3,11.1,0.6,21.6,6.3,36.4c2.9,7.5,5,10.6,6.8,13.4c2.3,3.5,4.6,6.8,6.2,14.6c5.2,24.1-2.6,51.2-7.7,65.2
		c-0.3,0.8-0.6,1.6-0.9,2.3c-2.2,6-4.4,11.7-3.9,19.5c0.3,5.2,1.5,8.6,3.1,12.9c0.6,1.6,1.2,3.3,1.8,5.2c4.7,14.8,3.2,26.8,2,36.5
		c-0.2,2-0.5,3.9-0.6,5.7c-0.3,3.8-1,10.8,19.9,75c15.1,46.5,24.2,74.6,25.3,77.3c0.8,1.8,1.5,3.5,2.3,5.2c6.5,14.9,12.6,29,11,48
		c-0.7,8.7-2.6,13.3-4.7,18.3c-1.6,3.9-3.4,8.2-5.1,15.9c-3.1,13.8-2.2,21.2-1.2,29.7c0.9,7.6,2,16.3-0.2,29.8
		c-4.4,27.3-17.5,47.8-23.8,57.7c-6,9.4-10.8,15-14.7,19.4c-4.9,5.6-8.2,9.4-11.7,18.4c-4.6,11.6-4.2,20.4-3.8,30.5
		c0.2,4,0.4,8.1,0.2,12.5c-0.8,28.5-13,57.1-36.3,84.9c-35.9,42.9-92.4,49.7-147,56.2c-26.9,3.2-42.9,2.7-69.5,1.9
		c-9.9-0.3-21.2-0.7-35.2-0.9c-70.3-1.2-102.5,2.3-126.1,4.8C360.3,999,350.6,1000,339.5,1000z M117.9,634.3
		c1.8,3.2,2.4,9.1,3.2,22.3c0.7,12.4,1.1,28.5,1.1,45.2v66.6l0.9,49.7l-0.2,0.8c-4.8,22.3-3.8,42.9,2.9,61.4
		c12.2,33.7,43.3,60.5,92.4,79.7c39.5,15.5,78.1,21,90.8,22.8c27.3,3.9,40.2,2.5,61.6,0.2c23.9-2.6,56.7-6.1,128-4.8
		c14.1,0.2,25.4,0.6,35.4,0.9c26.7,0.8,41.4,1.3,67.2-1.8c54.1-6.5,105.1-12.6,137.2-50.9c21.1-25.2,32.2-50.8,32.9-76
		c0.1-3.9-0.1-7.8-0.2-11.5c-0.5-10.8-1-21.9,4.7-36.4c4.5-11.4,9-16.6,14.3-22.7c3.7-4.3,8-9.1,13.4-17.7
		c5.8-9,17.7-27.8,21.7-52.2c1.9-11.5,1-18.4,0.1-25.8c-1.1-9-2.2-18.3,1.4-34.5c2-8.8,4.1-14,5.8-18.2c1.9-4.6,3.1-7.6,3.6-14.1
		c1.3-15.4-3.7-26.7-9.9-41.1c-0.8-1.7-1.5-3.5-2.3-5.3c-1.2-2.7-7.1-21-25.8-78.5c-21.7-67-21.1-74.6-20.5-80.7
		c0.2-2,0.4-4.1,0.7-6.2c1.1-8.7,2.3-18.6-1.5-30.4c-0.5-1.6-1-3-1.6-4.6c-1.7-4.8-3.6-9.7-4-17.1c-0.6-10.9,2.4-18.9,4.8-25.4
		c0.3-0.7,0.6-1.5,0.8-2.2c4.6-12.6,11.6-36.7,7.2-57.3c-1.1-5.1-2.2-6.7-4.1-9.6c-2.1-3.1-4.9-7.3-8.4-16.4
		c-6.5-17.1-6.9-29.3-7.2-41.1c-0.3-9.9-0.6-19.3-4.6-31.9c0-0.1-4.5-13.6-17.2-32.4c-24.7-36.5-99.6-86.6-206-110
		c-30-6.6-135-26-229.7,1.7l-2.2-7l2.2,7c-57.4,16.8-98.8,47.6-108.8,59l-0.1,0.1c-4.4,5.1-9.7,10.9-14.9,16.3
		c-8.3,8.7-14.5,14.5-19,18.7c-1,1-2,1.8-2.8,2.6c-7.8,7.5-22.9,23.1-35.7,43.4l-1.2,2c-5.6,8.9-14,22.3-20.8,41
		c-8.2,22.7-9.9,41.3-11.4,57.7c-1.3,14.3-1.6,28.7-0.9,43c4.4,26.8,4,51.7-1.1,73.8c-4.1,18-6.1,28.1-10,48.2
		c-1.9,10-2.9,15.2-2.8,22.4c0.1,9,2.1,18.5,5.9,33c2.5,9.4,4.9,15.1,7.5,21c1.2,2.8,2.4,5.6,3.7,8.9c5.3,13.9,6.6,22.2,9.2,38.6
		c1.3,8.3,3,18.7,5.7,33.2C111.8,606,114.7,620.2,117.9,634.3z"/>
</g>
<g>
	<path fill="#FFFFFD" d="M500,307.8c1.2,22.3-29.6,40.1-45.7,49.4c-17.7,10.3-37.5,17.6-108.5,26.3c-94.6,11.6-117.8,5.7-136.2-6.2
		c-10.8-6.9-23-14.9-24.7-27.6c-4.7-35.7,78-77.3,142.8-91.8c57.6-12.9,94.4-2.7,106.4,1C445.7,262.7,498.5,279.3,500,307.8z"/>
	<path d="M265.5,395.8c-31,0-46-5-59.2-13.5c-11.3-7.3-25.3-16.4-27.4-31.7c-3.2-23.8,24.5-45.6,48.2-59.6
		c28-16.6,65.1-31,99.3-38.6c40.5-9,78.4-8.6,109.6,1.2c44.8,14.1,69,32.8,70.1,54.1l0,0c1.3,25.8-31.2,44.7-48.7,54.8
		c-16.8,9.7-35.6,17.9-110.8,27.1C310.9,393.8,285,395.8,265.5,395.8z M382.2,257.5c-15.3,0-33,1.7-53.2,6.2
		c-32.9,7.3-68.7,21.3-95.7,37.2c-28.8,17-44.3,34.5-42.5,48.1c1.3,10.1,11.9,16.9,22.1,23.4c15.8,10.2,35.6,17.1,132.1,5.3
		c72.9-8.9,90.6-16.5,106.2-25.5c14.2-8.2,43.8-25.4,42.8-44.1l0,0c-0.8-15.5-23.3-31.4-61.8-43.5
		C420.4,260.9,403.7,257.5,382.2,257.5z"/>
</g>
<g>
	<path fill="#FFFFFD" d="M794.6,326c-5.9,40.7-67,54.4-73.9,55.9c-44.1,9.3-79.7-9.4-96-18c-16.8-8.9-44.3-23.3-43.9-43.6
		c0.3-17,19.9-29.1,33.3-37.4c27.6-17.1,56.4-19.3,79.6-20.8c32.7-2.1,52.3-3.4,71.3,8.3C783.7,282,797.8,304,794.6,326z"/>
	<path d="M696.7,390.2c-34.5,0-61.7-14.3-74.8-21.2c-17.8-9.4-47.5-25-47.1-48.9c0.3-20.2,21.8-33.5,36.1-42.2
		c29.5-18.2,60.1-20.2,82.4-21.7c33.9-2.2,54.3-3.5,74.9,9.2c18.9,11.7,36.2,35.2,32.4,61.3c-2.7,18.8-16.4,35.1-39.7,47.1
		c-17,8.7-34,12.7-38.8,13.8C713.3,389.4,704.8,390.2,696.7,390.2z M724.2,266.6c-8.6,0-18.4,0.6-30.2,1.4
		c-21,1.4-49.8,3.2-76.7,19.9c-12,7.4-30.2,18.7-30.4,32.5c-0.3,16.7,25.4,30.2,40.8,38.3c16.2,8.5,49.9,26.3,91.8,17.4
		c6.5-1.4,63.9-14.5,69.2-51v0c2.6-17.9-8.5-38.3-26.9-49.7C750.7,268.6,739.4,266.6,724.2,266.6z"/>
</g>
<g>
	<path fill="#E84D4D" d="M841.5,629.6c-10.3,62.1-109.6,92.7-142.5,102.8c-58.1,17.9-104.1,16.9-165.9,15.6
		c-60.6-1.3-116.9-2.9-184-27c-54.8-19.6-122.2-43.8-133-96.5c-9.1-44.7,27.6-84.1,30-86.5c21.9-22.8,52.9-29.3,114.7-42.2
		c28.8-6,54.6-11.2,89.4-10.4c36.5,0.9,45.3,7.5,81.9,12.5c67.1,9,72.2-8.6,146.8-3.1c77,5.7,107.7,27.2,117,34.3
		c25.5,19.3,35.3,40.2,37.2,44.6C841.7,592.9,844,614,841.5,629.6z"/>
	<path d="M577.2,754.4c-14,0-28.6-0.3-44.3-0.6c-57.3-1.2-116.5-2.5-186-27.3c-55.8-20-125.3-44.9-136.8-100.9
		c-9.8-48,29.8-89.9,31.5-91.7c23.2-24.2,54.8-30.8,117.8-43.9c28.1-5.9,54.5-11.4,90.8-10.5c22.6,0.5,34.9,3.2,49.1,6.4
		c9,2,19.2,4.2,33.5,6.1c33.9,4.6,51.1,2.2,71-0.5c18.2-2.5,38.8-5.3,75.4-2.6c53.3,3.9,94.9,16.2,120.3,35.5
		c24.6,18.7,35.5,39,39.1,46.9c8.6,19.1,11.9,41.3,8.9,59.4h0c-10.9,65.7-113.1,97.1-146.7,107.4
		C656.3,751.6,619.5,754.4,577.2,754.4z M442.7,491.1c-31.2,0-55.4,5-80.8,10.3c-60.5,12.6-90.9,19-111.6,40.4
		c-1.5,1.6-37.1,39.2-28.4,81.4C232,672.7,298,696.4,351,715.4c67.5,24.2,125.8,25.4,182.1,26.6c62,1.3,106.8,2.3,164-15.3
		c31.8-9.8,128.7-39.5,138.4-98.1l0,0c2.6-15.7-0.5-35.9-8.1-52.7c-3.2-7.1-13-25.3-35.4-42.3c-23.5-17.9-62.9-29.3-113.8-33
		c-35.3-2.6-54.3,0-72.8,2.5c-19.9,2.7-38.8,5.3-74.4,0.5c-14.8-2-25.3-4.3-34.5-6.3c-13.6-3-25.4-5.6-46.8-6.1
		C447.4,491.1,445.1,491.1,442.7,491.1z"/>
</g>
<g>
	<path d="M194.8,525.7c-14.4,17.8-22.1,40.7-21,63.4c0.3,6.5,1.2,13,2.9,19.4c1.1,4.1,9.8,1.9,8.7-2.3c-5.5-20.8-2.9-43.2,6.9-62.5
		c2.7-5.4,6.1-10.5,9.9-15.2c1.3-1.6,0.7-3.6-1.2-4.4C198.9,523.3,196.1,524,194.8,525.7L194.8,525.7z"/>
</g>
<g>
	<path d="M155.6,407.8c-0.8-11.3,2.5-22.7,9.3-31.9c1.2-1.6-1-2.1-2.2-2c-1.8,0-4.7,0.7-5.8,2.2c-7.3,9.8-10.9,21.8-10,34
		C147.1,412.4,155.8,410.7,155.6,407.8L155.6,407.8z"/>
</g>
<g>
	<path d="M135.5,296.6c8.1,11.9,18.8,21.9,31.3,29.3c1.6,1,4,0.4,5.7-0.2c0.5-0.2,4-2,2.5-2.9c-12.5-7.4-23.2-17.4-31.3-29.3
		c-0.3-0.5-1.8-0.5-2.3-0.5c-1.1,0-2.4,0.3-3.4,0.7C136.9,294.1,134.5,295.2,135.5,296.6L135.5,296.6z"/>
</g>
<g>
	<path d="M506,374.2c2.4,23-8.4,46.8-26.9,61.2c-5.1,4-10.7,7.1-16.8,9.4c-1.4,0.5-3.5,2.2-2.2,3.8c1.3,1.6,4.3,0.9,5.8,0.3
		c24.2-9.2,42.6-31.1,47.8-55.9c1.4-6.9,1.8-14.1,1-21.1c-0.2-1.9-3.8-1.6-5-1.3C508,371.1,505.8,372.2,506,374.2L506,374.2z"/>
</g>
<g>
	<path d="M465.4,243.7c9.3,2.5,18.1,7.3,25,13.9c3.5,3.3,6.6,7.1,9.2,11.2c2.4,3.8,4.4,7.9,6.9,11.7c3,4.5,6.7,8.1,11.8,10.2
		c2,0.8,4.8-0.1,6.2-1.6c1.4-1.6,0.7-3.3-1.1-4.1c-8.2-3.4-11.5-13.4-15.9-20.2c-5.2-8.2-12.6-15.1-21.1-20.1
		c-5-2.9-10.3-5.2-15.9-6.7c-2.1-0.6-4.7-0.1-6.2,1.6C463,241.1,463.4,243.2,465.4,243.7L465.4,243.7z"/>
</g>
<g>
	<path d="M570.2,278.3c8.3-19.8,24.5-36.4,44.7-44.8c1.1-0.5,3.6-1.8,2.4-3.2c-1.1-1.4-4.5-0.5-5.7,0c-22.5,9.3-40.8,27-50.1,49.1
		c-0.7,1.7,2.9,1.7,3.7,1.6C566.9,280.8,569.4,280,570.2,278.3L570.2,278.3z"/>
</g>
<g>
	<path d="M317.2,620.3c30.3,3.3,60.6,6.6,90.9,9.5c30.3,2.9,60.7,5.3,91.1,6.9c30.3,1.6,60.7,2.4,91.1,1.8
		c30.3-0.5,60.7-2.2,90.8-5.7c26.9-3.1,54.5-7.9,78.7-20.4c3.2-1.7,6.4-3.4,9.4-5.3c2-1.2,3.7-4,1-5.4c-2.7-1.5-6.9-0.4-9.3,1.1
		c-5.4,3.4-10.5,5.9-16.5,8.4c-6.2,2.6-11,4.2-17.5,6c-12.8,3.5-24.5,5.5-37.7,7.1c-28.8,3.6-57.9,5.5-87,6.2
		c-29.9,0.7-59.9,0.1-89.8-1.3c-30-1.4-59.9-3.7-89.8-6.4c-29.9-2.7-59.8-5.9-89.6-9.2c-3.7-0.4-7.3-0.8-11-1.2
		c-2.9-0.3-7.1,1.1-8.6,3.6C311.9,618.8,314.9,620,317.2,620.3L317.2,620.3z"/>
</g>
<g>
	<path d="M529.6,958.9c36.4,10.6,76.3,9.4,112-3.1c10.1-3.5,19.9-7.8,29.2-13.1c2.1-1.2,5.2-3.7,3.2-6.3c-1.8-2.3-6.5-2.1-8.9-0.8
		c-7.7,4.3-15.7,8.1-23.9,11.2c-0.6,0.2-1.2,0.4-1.8,0.7c-1.3,0.5-0.3,0.1-0.1,0c-1.1,0.4-2.2,0.8-3.3,1.1c-2.1,0.7-4.2,1.3-6.3,1.9
		c-4.3,1.2-8.6,2.3-12.9,3.2c-1.1,0.2-2.3,0.5-3.4,0.7c-0.5,0.1-1,0.2-1.6,0.3c-2,0.4,0.8-0.1-0.4,0.1c-2.2,0.3-4.4,0.7-6.6,1
		c-4.4,0.6-8.8,1-13.2,1.2c-2.2,0.1-4.4,0.2-6.6,0.2c-0.5,0-1.1,0-1.6,0c0.1,0-1.9,0-1.1,0c0.9,0-1.2,0-1.1,0c-0.7,0-1.5,0-2.2,0
		c-4.4-0.1-8.9-0.4-13.3-0.9c-4.9-0.5-9.8-1.2-14.7-2.2c-3.8-0.7-9.3-2.1-13.9-3.4c-3.1-0.9-7.1,0-9.3,2.4
		C526.1,955.2,526.7,958.1,529.6,958.9L529.6,958.9z"/>
</g>
<g>
	<path d="M559,937c15.4,3,30.9,6,46.6,5.1c13.9-0.8,28.2-4.9,39.3-13.4c2-1.5,3.6-4.3,0.9-6c-2.6-1.6-7-0.8-9.4,0.9
		c-1.2,0.9-2.5,1.8-3.8,2.6c-0.6,0.4-1.2,0.8-1.8,1.1c1.1-0.6-1.1,0.5-1.3,0.6c-1.3,0.6-2.6,1.2-3.9,1.8c-0.6,0.2-1.2,0.4-1.7,0.7
		c1.4-0.5-1,0.3-1.2,0.4c-1.4,0.4-2.8,0.8-4.2,1.1c-0.8,0.2-1.6,0.4-2.4,0.5c-0.3,0.1-2.1,0.4-0.7,0.1c-3,0.5-6,0.8-9,1
		c-6,0.3-12.9-0.2-19.4-1.1c-6.9-0.9-13.4-2.2-20.2-3.5c-3.2-0.6-7,0-9.3,2.4C555.7,933.3,556,936.4,559,937L559,937z"/>
</g>
<g>
	<path d="M791.2,788.3c-7,2-13.2,5.3-18.4,10.3c-4.4,4.2-7.9,9.2-11.2,14.1c-3.6,5.5-7.2,11-11.1,16.3c-4.2,5.7-8.8,11.2-13.7,16.5
		c-5.5,5.9-11.4,11.6-17.5,16.8c-2.3,1.9,2,2.4,3.2,2.3c3-0.2,6.4-1.1,8.8-3.1c10.4-8.9,19.9-18.8,28.4-29.6
		c4.1-5.3,8-10.7,11.7-16.3c3-4.7,6-9.4,9.6-13.7c2-2.4,4.2-4.7,6.7-6.6c0.1-0.1,1-0.7,1.4-1c0.2-0.1,0.4-0.3,0.7-0.4
		c0,0,1.5-0.8,0.6-0.4c0.6-0.3,1.3-0.6,1.9-0.9c-1.1,0.5-0.3,0.1,0,0c1.4-0.5-1.2,0.3,0.3-0.1c1.4-0.4,6.4-1.7,6-3.9
		C797.9,786.7,792.2,788,791.2,788.3L791.2,788.3z"/>
</g>
<g>
	<path d="M307.2,410.3c25.2,0.1,50.4-1.6,75.4-5.3c7.2-1.1,14.4-2.3,21.5-3.6c1.6-0.3,4.2-1.9,3.6-3.8c-0.6-2-3.5-1.8-5.1-1.5
		c-30.4,5.7-61.4,8.6-92.3,8.5c-2,0-4.7,0.6-5.7,2.5C303.7,408.8,305.4,410.3,307.2,410.3L307.2,410.3z"/>
</g>
<g>
	<path d="M662.6,401.9c28.7,4.6,58.2,2,85.7-7.2c0.8-0.3,3.6-1.3,2.6-2.5c-1-1.1-4.7,0.1-5.6,0.5c-24.2,8-50.3,9.9-75.5,5.8
		c-2-0.3-4.3,0.2-6.1,1.1C663.1,399.9,660.6,401.6,662.6,401.9L662.6,401.9z"/>
</g>
<g>
	<path d="M638.6,223.8c4.7-1.2,9.3-2.4,14-3.6c1-0.3,2.1-0.7,3-1.2c0.3-0.2,1.2-0.8,1-1.4c-0.2-0.6-1.1-0.7-1.6-0.7
		c-1.1-0.1-2.2,0.1-3.2,0.4c-4.7,1.2-9.3,2.4-14,3.6c-1,0.3-2.1,0.7-3,1.2c-0.3,0.2-1.2,0.8-1,1.4c0.2,0.6,1.1,0.7,1.6,0.7
		C636.5,224.2,637.6,224,638.6,223.8L638.6,223.8z"/>
</g>
<g>
	<path d="M449.1,234c-23.9-5.1-48.3-8.3-72.8-9.5c-2.1-0.1-4.5,0.5-6.2,1.6c-1.4,0.9-1.2,1.9,0.5,2c24,1.2,47.8,4.3,71.2,9.3
		c2,0.4,4.3-0.2,6.1-1.1C448.8,235.9,451.1,234.4,449.1,234L449.1,234z"/>
</g>
<g>
	<path d="M718,243.4c13.1-2.1,26.8,0.5,38.5,6.6c1.6,0.9,4,0.2,5.7-0.4c0.4-0.2,4-1.8,2.6-2.6c-13.8-7.3-29.7-9.5-45.2-7.1
		c-1.3,0.2-4.7,0.9-5.1,2.4C714.1,244,717.3,243.5,718,243.4L718,243.4z"/>
</g>
<path d="M411.2,309.7c-0.2,15.5-10.6,26-17.1,32.6c-20.7,21-48,22-51.7,22.1c-6.4,0.1-26.9,0.4-45.1-13.8
	c-3.2-2.5-23.9-18.6-23.7-40.9c0.1-16.8,11.4-28.2,16.5-33.6c20-20.6,47.3-21.1,52.3-21.1c4.2,0,31.4,0.5,51.7,20.8
	C399.9,281.7,411.4,293.2,411.2,309.7z"/>
<path d="M730.2,304.9c0.1,6.8,0.3,20.8-9.6,32.2c-12,13.8-30.8,14.3-41.5,14.5c-10.4,0.2-29.7,0.7-43.8-13.4
	c-2-2-13.5-13.8-13.1-31.7c0.3-16.2,10.1-26.7,14.1-31c16.5-17.7,39-18.5,42.4-18.5c5.7-0.1,26.6-0.5,40.5,15
	C729.9,284,730.1,298.4,730.2,304.9z"/>
<g>
	<g>
		<path fill="#FCE583" d="M173,295.1c-3.7,19-9.7,65.2,5,114.5L70.9,424.1c-13.3-16.6-8.2-39.2-6.9-44.1L173,295.1z"/>
	</g>
	<g>
		<path fill="#FFFFFF" d="M280.6,215.9c-10.2,31.6-33.2,133.9,29.4,285c-80-24.1-120.4-81.6-123.7-86.5
			c-19.9-58.9-7.5-116.7-5.4-125.4L280.6,215.9z M231.7,425.9c0.3,1.8,2,3,3.7,2.7l21.5-3.9c1.7-0.3,2.9-2,2.6-3.9l-5.7-34.1
			c-0.3-1.8-2-3-3.7-2.7l-21.5,3.9c-1.7,0.3-2.9,2-2.6,3.9L231.7,425.9z M193.4,397.8l3.7,21.9c0.3,1.8,2,3,3.7,2.7l16.7-3.1
			c1.7-0.3,2.9-2,2.6-3.9l-3.7-21.9c-0.3-1.8-2-3-3.7-2.7l-16.7,3.1C194.3,394.2,193.1,395.9,193.4,397.8z"/>
	</g>
	<g>
		<polygon fill="#5086FF" points="200.3,399.9 210.7,398 213.3,413.3 202.9,415.2 		"/>
	</g>
	<g>
		<path fill="#5086FF" d="M363.4,185c269.3-64.6,513.9-43.4,537.3-41.1c70.7,161.9,19.2,276.3,13.3,288.5
			c-152.5,58.9-500.1,79.8-531.4,81.5C308,331.8,357.3,200.2,363.4,185z"/>
	</g>
	<g>
		<polygon fill="#5086FF" points="252.6,418.7 237.5,421.4 232.9,393.9 248,391.2 		"/>
	</g>
	<g>
		<path fill="#FCE583" d="M289.6,209.7l65.9-22.1c-10.9,30-48.4,156.1,19.8,325.5l-57.6-10C244.8,330.5,284.4,222.4,289.6,209.7z"/>
	</g>
	<g opacity="0.25">
		<path fill="#1B1B1C" d="M446.7,197.8c7.1-0.1,12.9,5.3,13.4,12.4c3,46.8,15.3,211.9,37.5,215.3c25.8,4,281.2-24.3,332.4-44.2
			c24.6-9.5,41.8-43.1,53.1-75.5c4.7-13.6,24.7-10.8,25.7,3.5c3.2,45.7,2.5,98.5-15.9,111.4c-31,21.9-411.7,61.1-476.9,67.7
			c-5.8,0.6-11.2-2.6-13.5-8c-38.2-90.3-27.7-228-24-264.8c0.6-5.7,4.7-10.3,10.2-11.6C411,199.2,433.3,198,446.7,197.8z"/>
	</g>
	<g>
		<g>
			<path fill="#131314" d="M763,484c59.4-10.9,114.7-24.2,156.3-40.4c1.9-0.8,3.5-2.2,4.5-4.1c2.7-5,65.1-125.4-13.1-302.5
				c-1.3-2.9-3.9-4.9-7-5.2c-2.6-0.3-260.2-27-544.6,41.6c-2.6,0.6-4.8,2.4-5.9,4.9c-2.6,5.8-63.2,143.5,19.3,342.7
				c1.4,3.5,4.8,5.6,8.4,5.5C392.4,525.8,594.1,514.9,763,484z M910.1,427.8c-148,56.2-475.3,77.3-523.9,80.2
				c-68.4-170.1-27.7-294.7-18.8-318c258.2-61.4,493-43.9,529.6-40.6C962.2,301,918.7,409.1,910.1,427.8z"/>
		</g>
		<g>
			<path fill="#131314" d="M382.1,526.3c3.5-0.6,6.4-3.5,7.1-7.4c0.8-4.9-2.4-9.6-7.1-10.4l-60.4-10.5
				c-67.1-160.6-35.2-264-27.9-283.6l70.1-23.5c4.6-1.5,7.1-6.6,5.6-11.4c-1.5-4.8-6.4-7.4-10.9-5.8l-73.9,24.8
				c-2.3,0.8-4.1,2.4-5.2,4.7c-2.2,4.7-52.5,117.5,28.2,306.7c1.2,2.8,3.6,4.8,6.5,5.3l65,11.3C380.2,526.4,381.2,526.4,382.1,526.3
				z"/>
		</g>
		<g>
			<path fill="#131314" d="M317.1,515c3.2-0.6,6-3.1,6.9-6.6c1.2-4.8-1.6-9.8-6.2-11c-79.7-21.6-121.2-77.8-126.6-85.5
				c-17.9-53.6-8.3-106.3-5.5-119.3l106.6-78.1c3.9-2.9,4.9-8.5,2.1-12.6c-2.8-4.1-8.2-5.1-12.1-2.2l-109.2,80.1
				c-1.6,1.2-2.8,3-3.4,5c-0.7,2.7-17.5,67.1,5.5,134.5c0.2,0.7,0.6,1.4,1,2c1.8,2.8,45.4,68.9,137.2,93.7
				C314.6,515.2,315.9,515.2,317.1,515z"/>
		</g>
		<g>
			<path fill="#131314" d="M181.6,421.6c4.5-0.8,7.7-5.3,7.1-10.1c-0.6-5-5-8.5-9.7-7.8L73.3,418c-8.3-12.6-5.9-28.6-4.5-34.6
				l114.4-89.1c3.8-3,4.6-8.7,1.8-12.7c-2.9-4-8.3-4.8-12.1-1.8L56,370.7c-1.4,1.1-2.5,2.6-3,4.3c-0.5,1.4-11,34.7,10.2,58.7
				c1.9,2.2,4.7,3.2,7.5,2.9l110.5-15C181.4,421.6,181.5,421.6,181.6,421.6z"/>
		</g>
		<g>
			<path fill="#131314" d="M235.8,430.6l21.5-3.9c2.8-0.5,4.7-3.3,4.2-6.3l-5.7-34.1c-0.5-3-3.2-4.9-6-4.4l-21.5,3.9
				c-2.8,0.5-4.7,3.3-4.2,6.3l5.7,34.1C230.2,429.2,232.9,431.2,235.8,430.6z M250.3,417l-11.2,2.1l-3.9-23.4l11.2-2.1L250.3,417z"
				/>
		</g>
		<g>
			<path fill="#131314" d="M201.2,424.4l16.7-3.1c2.8-0.5,4.7-3.3,4.2-6.3l-3.7-21.9c-0.5-3-3.2-4.9-6-4.4l-16.7,3.1
				c-2.8,0.5-4.7,3.3-4.2,6.3l3.7,21.9C195.6,422.9,198.3,424.9,201.2,424.4z M210.9,411.6l-6.4,1.2l-1.9-11.2l6.4-1.2L210.9,411.6z
				"/>
		</g>
	</g>
	<g>
		<path d="M549.1,291.5c0.5,3.6-0.1,6.9-1.7,9.7c-1.6,2.9-4.2,5.3-7.7,7.2c4.9,0.9,8.7,2.7,11.4,5.3c2.7,2.7,4.4,6.1,4.9,10.3
			c1,7.8-1.1,14-6.3,18.5c-5.2,4.5-13.3,7.5-24.1,9c-1.4,0.2-3.1,0.4-4.9,0.5c-1.8,0.2-3.7,0.3-5.6,0.3c-1.9,0.1-3.8,0-5.8-0.1
			c-1.9-0.1-3.7-0.3-5.3-0.7c-4.4-1-6.8-3.4-7.4-7.4l-7.7-57.4c-0.2-1.6,0-2.9,0.8-3.9c0.7-1,1.9-1.8,3.4-2.5
			c2.5-1.2,5.7-2.3,9.6-3.3c3.9-1,7.9-1.7,12.1-2.3c10-1.3,18-0.7,24,2C544.7,279.5,548.2,284.4,549.1,291.5z M536.7,325.8
			c-0.8-5.7-4.8-8.1-12.1-7.1l-12.4,1.7l2.3,16.9c1.3,0.1,3,0.2,4.9,0.1c2-0.1,3.8-0.3,5.6-0.5c3.9-0.5,6.9-1.7,9.1-3.5
			C536.2,331.5,537.1,329,536.7,325.8z M510.3,307l11.2-1.5c3.1-0.4,5.5-1.5,7.1-3.2c1.6-1.7,2.2-3.9,1.8-6.7
			c-0.3-2.6-1.6-4.4-3.9-5.6c-2.2-1.1-5.4-1.4-9.5-0.9c-1.5,0.2-3.1,0.5-4.8,0.8c-1.7,0.3-3,0.7-4,1L510.3,307z"/>
		<path d="M638.5,297.3c0.8,6.3,0.6,11.9-0.6,17c-1.2,5.1-3.3,9.5-6.3,13.2c-2.9,3.7-6.6,6.7-10.9,9c-4.4,2.3-9.2,3.8-14.6,4.5
			c-5.4,0.7-10.5,0.5-15.3-0.5c-4.8-1.1-9.1-3-12.9-5.8c-3.8-2.8-6.9-6.5-9.5-11.1c-2.5-4.6-4.2-10-5.1-16.3
			c-0.8-6.3-0.6-11.9,0.7-17c1.3-5,3.4-9.4,6.3-13.1c2.9-3.7,6.6-6.7,10.9-9c4.3-2.3,9.1-3.8,14.4-4.5c5.3-0.7,10.4-0.5,15.2,0.5
			c4.8,1.1,9.1,3,12.9,5.8c3.8,2.8,7,6.5,9.6,11C636,285.7,637.7,291.1,638.5,297.3z M619,299.9c-1-7.7-3.4-13.3-7.2-16.8
			c-3.8-3.5-8.4-4.8-14-4.1c-5.5,0.7-9.6,3.3-12.4,7.6c-2.8,4.3-3.6,10.4-2.6,18.1c1,7.8,3.5,13.4,7.2,16.9c3.8,3.5,8.4,4.8,14,4.1
			s9.7-3.3,12.4-7.6C619.2,313.8,620,307.7,619,299.9z"/>
		<path d="M707.7,270.3c0.5,3.6-0.1,6.9-1.7,9.7c-1.6,2.9-4.2,5.3-7.7,7.2c4.9,0.9,8.7,2.7,11.4,5.3c2.7,2.7,4.4,6.1,4.9,10.3
			c1,7.8-1.1,14-6.3,18.5c-5.2,4.5-13.3,7.5-24.1,9c-1.4,0.2-3.1,0.4-4.9,0.5c-1.8,0.2-3.7,0.3-5.6,0.3c-1.9,0.1-3.8,0-5.8-0.1
			c-1.9-0.1-3.7-0.3-5.3-0.7c-4.4-1-6.8-3.4-7.4-7.4l-7.7-57.4c-0.2-1.6,0-2.9,0.8-3.9c0.7-1,1.9-1.8,3.4-2.5
			c2.5-1.2,5.7-2.3,9.6-3.3c3.9-1,7.9-1.7,12.1-2.3c10-1.3,18-0.7,24,2C703.3,258.3,706.7,263.2,707.7,270.3z M695.2,304.6
			c-0.8-5.7-4.8-8.1-12.1-7.1l-12.4,1.7l2.3,16.9c1.3,0.2,3,0.2,4.9,0.1c2-0.1,3.8-0.3,5.6-0.5c3.9-0.5,6.9-1.7,9.1-3.5
			C694.7,310.3,695.6,307.8,695.2,304.6z M668.9,285.8l11.2-1.5c3.1-0.4,5.5-1.5,7.1-3.2c1.6-1.7,2.2-3.9,1.8-6.7
			c-0.3-2.6-1.6-4.4-3.9-5.6c-2.2-1.1-5.4-1.4-9.5-0.9c-1.5,0.2-3.1,0.5-4.8,0.8c-1.7,0.3-3,0.7-4,1L668.9,285.8z"/>
		<path d="M793.2,297.6l-23.6,3.2c-0.5,3-0.9,6-1.3,8.9c-0.4,2.9-0.7,5.5-1,7.7c-1,0.5-2,0.9-3.1,1.3c-1.1,0.4-2.4,0.7-4.1,0.9
			c-3.5,0.5-6.3,0.2-8.3-0.8c-2-1-3.1-2.7-3.4-5c-0.2-1.1-0.1-2.2,0-3.3c0.2-1.1,0.4-2.3,0.6-3.8c0.3-2.2,0.7-5,1.3-8.4
			c0.6-3.4,1.3-7,2-10.9c0.7-3.9,1.5-7.9,2.4-12c0.8-4.1,1.7-8.1,2.5-11.8c0.8-3.7,1.5-7.2,2.2-10.3c0.6-3.1,1.2-5.6,1.7-7.5
			c1.1-0.9,2.9-1.8,5.3-2.8c2.4-1,4.9-1.6,7.4-2c3.6-0.5,6.9-0.4,9.8,0.2c2.9,0.6,4.9,2.1,6,4.3c2.1,4.1,4.4,8.8,6.9,14.2
			c2.5,5.4,5.1,10.9,7.7,16.6c2.6,5.7,5.1,11.3,7.6,16.9c2.5,5.6,4.6,10.5,6.5,15c-0.7,1.2-1.9,2.2-3.6,3.1
			c-1.6,0.9-3.7,1.5-6.1,1.8c-3.5,0.5-6,0.2-7.5-0.8c-1.6-1-2.8-2.8-3.8-5.3L793.2,297.6z M776,258c-0.6,3.8-1.5,8.1-2.5,12.9
			c-1,4.8-1.9,9.8-2.7,14.8l17.2-2.3c-2-4.9-4.1-9.5-6.1-14c-2-4.4-3.7-8.3-5.2-11.5L776,258z"/>
		<path d="M839.7,308.6c-3.8,0.5-6.5,0.2-8.2-0.9c-1.7-1.1-2.7-3.3-3.2-6.7l-8.7-65.2c0.9-0.3,2.1-0.6,3.7-1.1c1.6-0.5,3.3-0.8,5-1
			c3.6-0.5,6.3-0.2,8,0.8c1.7,1,2.8,3.3,3.3,6.8l8.7,65.2c-0.9,0.4-2.1,0.7-3.6,1.2C843.1,308,841.4,308.3,839.7,308.6z"/>
	</g>
</g>
</svg>
