<?xml version="1.0" encoding="utf-8"?>
<!-- Generator: Adobe Illustrator 26.2.1, SVG Export Plug-In . SVG Version: 6.00 Build 0)  -->
<svg version="1.1" id="Layer_1" xmlns="http://www.w3.org/2000/svg" xmlns:xlink="http://www.w3.org/1999/xlink" x="0px" y="0px"
	 width="1920px" height="1384px" viewBox="0 0 1920 1384" style="enable-background:new 0 0 1920 1384;" xml:space="preserve">
<style type="text/css">
	.st0{fill-rule:evenodd;clip-rule:evenodd;fill:#34C156;}
	.st1{opacity:0.17;}
	.st2{fill:#6CE589;}
	.st3{opacity:0.15;}
</style>
<path class="st0" d="M-173.9-129.3c-25.6,3.1-44.6,25.3-43.9,51.1l5.9,204.9c0.4,13.3-4.1,26.2-11.5,37.2
	c-29.5,44-46.7,97-46.7,154.1c0,62.8,20.8,120.6,55.9,167.1c8,10.6,13.2,23.2,13.6,36.5l18.2,630.6c0.8,29.4,26.8,51.8,56.1,48.2
	c18.1-2.2,35.3,8,44,24c57,104.4,172.5,170.1,298.3,157.7c7.6-0.7,43.7-4.6,85.3-21c135.9-53.7,190.2-186.4,299.1-190
	c79.3-2.7,109.7,65.6,188.5,44.9c16.3-4.3,49.9-16.4,93.4-9.2c25.7,4.3,37,12.3,49.5,16.2c86.2,26.9,170.5-160.5,292.5-159.1
	c63.1,0.7,61.9,51.1,135.5,62.1c116.2,17.4,138-105.3,293.6-141.2c137.6-31.8,223.6,40.4,372.4-31.1c17.8-8.6,31.8-16.9,40.5-22.4
	l3.4-0.4c25.6-3.1,44.6-25.3,43.9-51.1l-35.4-1230.3c-0.9-29.4-26.8-51.8-56.1-48.2L-173.9-129.3z"/>
<g class="st1">
	<path class="st2" d="M439.8,280.2c6.5,3.7,16.8,7.6,30.9,11.8c14.3,4.4,26,8.8,35.2,13.1c9.2,4.3,17,10.6,23.7,18.9
		c6.6,8.3,9.9,19.1,9.9,32.3c0,18.7-6.4,34.3-19.1,46.7c-12.7,12.4-29.8,20.1-51.3,23l-1.3,14.5c-0.4,6.7-2.6,12-6.6,15.9
		c-4,3.9-9.3,5.8-15.8,5.8c-6.7,0-12.2-2.1-16.3-6.3c-4.1-4.2-5.9-9.4-5.5-15.5l1.3-14.2c-22.1-1.9-39.9-6.2-53.3-12.9
		c-4-2.1-6.9-5-8.8-8.7c-1.9-3.7-2.8-7.6-2.8-11.8c0-6.5,1.9-12.2,5.8-17c3.9-4.8,8.9-7.3,15-7.3c3.6,0,7.4,0.9,11.4,2.8
		c8.8,3.6,17.5,6.4,26,8.4c8.5,2,18.4,3,29.5,3c11.4,0,19.8-1.8,25.4-5.4c5.6-3.6,8.4-9,8.4-16.4c0-5.9-3.1-10.5-9.2-13.7
		c-6.1-3.3-15.9-7-29.3-11.2c-14.5-4.4-26.5-8.8-36-13.3c-9.5-4.4-17.7-10.9-24.6-19.6c-6.9-8.6-10.4-19.7-10.4-33.1
		c0-12,3-22.9,9-32.8c6-9.9,14.4-18,25.1-24.5c10.7-6.4,23.1-10.6,37.2-12.5l0.9-14.5c0.6-6.5,3-11.8,7.3-15.8c4.2-4,9.5-6,15.8-6
		c6.7,0,12.1,2.1,16.1,6.2c4,4.1,5.7,9.3,5.1,15.6l-0.9,14.8c21.2,2.9,38.1,8.6,50.5,17c5.7,4.2,8.5,9.8,8.5,16.7
		c0,6.3-2.2,12-6.6,17c-4.4,5-9.9,7.6-16.4,7.6c-3.8,0-7.7-1.1-11.7-3.2c-10.1-4-18.9-7-26.5-9.2c-7.6-2.1-15.8-3.2-24.6-3.2
		c-9.5,0-16.9,1.8-22.4,5.5c-5.5,3.7-8.2,8.8-8.2,15.3C430.1,271.3,433.3,276.5,439.8,280.2z"/>
	<path class="st2" d="M744.8,329c6.2,9.5,9.3,20.3,9.3,32.5c0,20.2-7.5,35.8-22.6,46.7c-15,10.9-35.3,16.4-60.8,16.4H586
		c-8.6,0-15-2.3-19.3-6.8c-4.2-4.5-6-11.1-5.4-19.7l13.6-169.2c0.8-8.6,3.7-15.3,8.7-19.9c4.9-4.6,11.7-6.9,20.4-6.9h77.3
		c24.4,0,43.1,5.2,56,15.6c12.9,10.4,19.4,23.9,19.4,40.6c0,24.2-12.7,41.3-38.2,51.4C729.9,313.1,738.6,319.5,744.8,329z
		 M692.1,375.4c5.6-3.6,8.4-9.8,8.4-18.6c0-7.8-2.5-13.6-7.4-17.5c-4.9-3.9-12.8-5.8-23.5-5.8h-46.4l-3.8,47.3h46.4
		C677.8,380.7,686.6,378.9,692.1,375.4z M693.1,284.6c5.2-3.3,7.7-9,7.7-17.2c0-7.2-2.4-12.5-7.1-16.1c-4.7-3.6-12.4-5.4-22.9-5.4
		h-40.7l-3.5,43.5h40.4C679.3,289.5,687.9,287.9,693.1,284.6z"/>
	<path class="st2" d="M833.4,414.6c-16.6-8.7-29.4-21.1-38.3-37.2c-8.9-16.1-13.4-35.2-13.4-57.3c0-24,4.6-45.2,13.9-63.6
		c9.3-18.4,22.4-32.6,39.4-42.6c17-10,36.8-15,59.3-15c22.3,0,41.8,4.4,58.4,13.1c16.6,8.7,29.4,21.2,38.3,37.4
		c8.9,16.2,13.4,35.2,13.4,57.1c0,24-4.7,45.1-14,63.4c-9.4,18.3-22.6,32.5-39.6,42.6c-17,10.1-36.7,15.1-59,15.1
		C869.4,427.7,850,423.4,833.4,414.6z M931.5,362.7c9.9-13.5,14.8-32.2,14.8-56.2c0-20-4.5-35.4-13.6-46.4
		c-9-10.9-21.7-16.4-37.9-16.4c-17.3,0-30.8,6.8-40.7,20.4c-9.9,13.6-14.8,32.2-14.8,56c0,20.2,4.5,35.7,13.4,46.5
		c8.9,10.8,21.7,16.3,38.3,16.3C908.2,382.9,921.6,376.2,931.5,362.7z"/>
	<path class="st2" d="M1215.4,329c6.2,9.5,9.3,20.3,9.3,32.5c0,20.2-7.5,35.8-22.6,46.7c-15,10.9-35.3,16.4-60.8,16.4h-84.9
		c-8.6,0-15-2.3-19.3-6.8c-4.2-4.5-6-11.1-5.4-19.7l13.6-169.2c0.8-8.6,3.7-15.3,8.7-19.9c4.9-4.6,11.7-6.9,20.4-6.9h77.3
		c24.4,0,43.1,5.2,56,15.6c12.9,10.4,19.4,23.9,19.4,40.6c0,24.2-12.7,41.3-38.2,51.4C1200.4,313.1,1209.2,319.5,1215.4,329z
		 M1162.7,375.4c5.6-3.6,8.4-9.8,8.4-18.6c0-7.8-2.5-13.6-7.4-17.5c-4.9-3.9-12.8-5.8-23.5-5.8h-46.4l-3.8,47.3h46.4
		C1148.3,380.7,1157.1,378.9,1162.7,375.4z M1163.6,284.6c5.2-3.3,7.7-9,7.7-17.2c0-7.2-2.4-12.5-7.1-16.1
		c-4.7-3.6-12.4-5.4-22.9-5.4h-40.7l-3.5,43.5h40.4C1149.8,289.5,1158.5,287.9,1163.6,284.6z"/>
	<path class="st2" d="M1462.3,400.9c0,7.2-2.9,13.2-8.8,18.1c-5.9,4.9-12.5,7.4-19.9,7.4c-4.8,0-9.3-1.3-13.3-3.9
		c-4-2.6-6.9-6.6-8.8-11.8l-11.4-32.2h-98.8l-16.1,31.9c-2.7,5.3-6.3,9.2-10.6,11.7c-4.3,2.5-8.9,3.8-13.7,3.8
		c-6.9,0-13.1-2.2-18.5-6.6c-5.4-4.4-8-10-8-16.7c0-4.2,1.3-8.6,3.8-13.3l93.7-171.4c3.2-5.9,7.6-10.4,13.3-13.4
		c5.7-3,11.8-4.6,18.3-4.6c6.5,0,12.4,1.5,17.7,4.6c5.3,3.1,8.9,7.4,11,13.1l68.2,174.2C1461.7,394.9,1462.3,398,1462.3,400.9z
		 M1323.5,335h61.5l-25.2-71.6L1323.5,335z"/>
	<path class="st2" d="M1494.3,418.7c-4.7-5.2-6.7-12.1-5.8-21l13.3-168.5c0.8-8.8,4-15.8,9.6-21c5.6-5.2,12.8-7.7,21.6-7.7
		c9,0,16,2.6,20.8,7.7c4.8,5.2,6.8,12,6,20.7l-13.3,168.5c-0.8,8.8-4.1,15.9-9.6,21.1c-5.6,5.3-12.9,7.9-21.9,7.9
		C1506,426.5,1499.1,423.9,1494.3,418.7z"/>
</g>
<g class="st3">
	<path class="st2" d="M-129.3,709.2c5.4,3.1,14,6.4,25.8,9.9c11.9,3.7,21.7,7.3,29.3,10.9c7.6,3.6,14.2,8.9,19.7,15.8
		c5.5,6.9,8.3,15.9,8.3,27c0,15.6-5.3,28.6-15.9,38.9c-10.6,10.3-24.9,16.7-42.7,19.2l-1.1,12.1c-0.4,5.6-2.2,10-5.5,13.3
		c-3.3,3.2-7.7,4.9-13.1,4.9c-5.6,0-10.1-1.8-13.5-5.3c-3.4-3.5-5-7.8-4.6-12.9l1.1-11.8c-18.4-1.6-33.2-5.2-44.4-10.8
		c-3.3-1.7-5.8-4.2-7.4-7.2c-1.6-3.1-2.4-6.4-2.4-9.9c0-5.4,1.6-10.2,4.9-14.2c3.2-4,7.4-6,12.5-6c3,0,6.1,0.8,9.5,2.4
		c7.4,3,14.6,5.3,21.7,7c7.1,1.7,15.3,2.5,24.6,2.5c9.5,0,16.5-1.5,21.2-4.5c4.6-3,7-7.5,7-13.7c0-4.9-2.5-8.7-7.6-11.4
		c-5.1-2.7-13.2-5.8-24.5-9.3c-12.1-3.7-22.1-7.4-30-11c-7.9-3.7-14.7-9.1-20.5-16.3c-5.8-7.2-8.7-16.4-8.7-27.6
		c0-10,2.5-19.1,7.5-27.3c5-8.2,12-15,20.9-20.4c8.9-5.3,19.3-8.8,31-10.4l0.8-12.1c0.5-5.4,2.5-9.8,6-13.1c3.5-3.3,7.9-5,13.1-5
		c5.6,0,10.1,1.7,13.4,5.1c3.3,3.4,4.7,7.8,4.2,13l-0.8,12.4c17.7,2.5,31.7,7.2,42.1,14.2c4.7,3.5,7.1,8.2,7.1,13.9
		c0,5.3-1.8,10-5.5,14.2c-3.7,4.2-8.2,6.3-13.7,6.3c-3.2,0-6.4-0.9-9.7-2.6c-8.4-3.3-15.8-5.9-22.1-7.6c-6.3-1.7-13.1-2.6-20.5-2.6
		c-7.9,0-14.1,1.5-18.7,4.6c-4.6,3.1-6.8,7.3-6.8,12.8C-137.4,701.8-134.7,706.1-129.3,709.2z"/>
	<path class="st2" d="M124.9,749.8c5.2,7.9,7.8,16.9,7.8,27.1c0,16.8-6.3,29.8-18.8,38.9c-12.5,9.1-29.4,13.7-50.6,13.7H-7.5
		c-7.2,0-12.5-1.9-16-5.7c-3.5-3.8-5-9.2-4.5-16.4l11.3-141c0.7-7.2,3.1-12.7,7.2-16.6c4.1-3.9,9.8-5.8,17-5.8h64.4
		c20.3,0,35.9,4.3,46.7,13c10.8,8.7,16.2,19.9,16.2,33.8c0,20.2-10.6,34.4-31.8,42.9C112.4,736.6,119.7,741.9,124.9,749.8z
		 M81,788.5c4.6-3,7-8.2,7-15.5c0-6.5-2.1-11.3-6.2-14.6c-4.1-3.2-10.7-4.9-19.6-4.9H23.5l-3.2,39.4H59
		C69,792.9,76.3,791.4,81,788.5z M81.7,712.8c4.3-2.7,6.4-7.5,6.4-14.3c0-6-2-10.4-5.9-13.4c-3.9-3-10.3-4.5-19.1-4.5H29.3
		l-2.9,36.3H60C70.2,716.9,77.4,715.6,81.7,712.8z"/>
	<path class="st2" d="M198.6,821.2c-13.9-7.3-24.5-17.6-32-31c-7.5-13.4-11.2-29.3-11.2-47.7c0-20,3.9-37.6,11.6-53
		c7.7-15.3,18.7-27.2,32.9-35.5c14.2-8.3,30.7-12.5,49.4-12.5c18.6,0,34.8,3.6,48.7,10.9c13.8,7.3,24.5,17.7,32,31.2
		c7.4,13.5,11.2,29.4,11.2,47.6c0,20-3.9,37.6-11.7,52.9c-7.8,15.3-18.8,27.1-33,35.5c-14.2,8.4-30.6,12.6-49.2,12.6
		C228.7,832.1,212.5,828.5,198.6,821.2z M280.4,777.9c8.2-11.2,12.4-26.8,12.4-46.8c0-16.7-3.8-29.5-11.3-38.7
		c-7.5-9.1-18.1-13.7-31.6-13.7c-14.4,0-25.7,5.7-33.9,17c-8.2,11.3-12.4,26.9-12.4,46.7c0,16.8,3.7,29.8,11.2,38.8
		c7.4,9,18.1,13.5,32,13.5C261,794.8,272.2,789.2,280.4,777.9z"/>
	<path class="st2" d="M517,749.8c5.2,7.9,7.8,16.9,7.8,27.1c0,16.8-6.3,29.8-18.8,38.9c-12.5,9.1-29.4,13.7-50.6,13.7h-70.7
		c-7.2,0-12.5-1.9-16-5.7c-3.5-3.8-5-9.2-4.5-16.4l11.3-141c0.7-7.2,3.1-12.7,7.2-16.6c4.1-3.9,9.8-5.8,17-5.8H464
		c20.3,0,35.9,4.3,46.7,13c10.8,8.7,16.2,19.9,16.2,33.8c0,20.2-10.6,34.4-31.8,42.9C504.5,736.6,511.8,741.9,517,749.8z
		 M473.1,788.5c4.6-3,7-8.2,7-15.5c0-6.5-2.1-11.3-6.2-14.6c-4.1-3.2-10.7-4.9-19.6-4.9h-38.7l-3.2,39.4h38.7
		C461.1,792.9,468.4,791.4,473.1,788.5z M473.8,712.8c4.3-2.7,6.4-7.5,6.4-14.3c0-6-2-10.4-5.9-13.4c-3.9-3-10.3-4.5-19.1-4.5h-33.9
		l-2.9,36.3h33.7C462.3,716.9,469.5,715.6,473.8,712.8z"/>
	<path class="st2" d="M722.8,809.8c0,6-2.5,11-7.4,15.1c-4.9,4.1-10.4,6.2-16.6,6.2c-4,0-7.7-1.1-11-3.3c-3.3-2.2-5.8-5.5-7.4-9.9
		l-9.5-26.8h-82.3l-13.4,26.6c-2.3,4.4-5.2,7.6-8.8,9.7c-3.6,2.1-7.4,3.2-11.4,3.2c-5.8,0-10.9-1.8-15.4-5.5
		c-4.5-3.7-6.7-8.3-6.7-13.9c0-3.5,1.1-7.2,3.2-11l78.1-142.8c2.6-4.9,6.3-8.6,11-11.2c4.7-2.5,9.8-3.8,15.3-3.8
		c5.4,0,10.3,1.3,14.7,3.8c4.4,2.5,7.4,6.2,9.2,10.9l56.8,145.2C722.2,804.8,722.8,807.3,722.8,809.8z M607,754.8h51.3l-21-59.7
		L607,754.8z"/>
	<path class="st2" d="M749.4,824.6c-3.9-4.3-5.6-10.1-4.9-17.5l11-140.4c0.7-7.4,3.4-13.2,8-17.5c4.6-4.3,10.7-6.4,18-6.4
		c7.5,0,13.3,2.1,17.4,6.4c4,4.3,5.7,10,5,17.2l-11,140.4c-0.7,7.4-3.4,13.2-8,17.6c-4.6,4.4-10.7,6.6-18.3,6.6
		C759.1,831.1,753.4,828.9,749.4,824.6z"/>
</g>
<g class="st3">
	<path class="st2" d="M1197,709.4c5.4,3.1,14,6.4,25.8,9.9c11.9,3.7,21.7,7.3,29.3,10.9c7.6,3.6,14.2,8.9,19.7,15.8
		c5.5,6.9,8.3,15.9,8.3,27c0,15.6-5.3,28.6-15.9,38.9c-10.6,10.3-24.9,16.7-42.7,19.2l-1.1,12.1c-0.4,5.6-2.2,10-5.5,13.3
		c-3.3,3.2-7.7,4.9-13.1,4.9c-5.6,0-10.1-1.8-13.5-5.3c-3.4-3.5-5-7.8-4.6-12.9l1.1-11.8c-18.4-1.6-33.2-5.2-44.4-10.8
		c-3.3-1.7-5.8-4.2-7.4-7.2c-1.6-3.1-2.4-6.4-2.4-9.9c0-5.4,1.6-10.2,4.9-14.2c3.2-4,7.4-6,12.5-6c3,0,6.1,0.8,9.5,2.4
		c7.4,3,14.6,5.3,21.7,7c7.1,1.7,15.3,2.5,24.6,2.5c9.5,0,16.5-1.5,21.2-4.5c4.6-3,7-7.5,7-13.7c0-4.9-2.5-8.7-7.6-11.4
		c-5.1-2.7-13.2-5.8-24.5-9.3c-12.1-3.7-22.1-7.4-30-11c-7.9-3.7-14.7-9.1-20.5-16.3c-5.8-7.2-8.7-16.4-8.7-27.6
		c0-10,2.5-19.1,7.5-27.3c5-8.2,12-15,20.9-20.4c8.9-5.3,19.3-8.8,31-10.4l0.8-12.1c0.5-5.4,2.5-9.8,6-13.1c3.5-3.3,7.9-5,13.1-5
		c5.6,0,10.1,1.7,13.4,5.1c3.3,3.4,4.7,7.8,4.2,13l-0.8,12.4c17.7,2.5,31.7,7.2,42.1,14.2c4.7,3.5,7.1,8.2,7.1,13.9
		c0,5.3-1.8,10-5.5,14.2c-3.7,4.2-8.2,6.3-13.7,6.3c-3.2,0-6.4-0.9-9.7-2.6c-8.4-3.3-15.8-5.9-22.1-7.6c-6.3-1.7-13.1-2.6-20.5-2.6
		c-7.9,0-14.1,1.5-18.7,4.6c-4.6,3.1-6.8,7.3-6.8,12.8C1188.9,702,1191.6,706.4,1197,709.4z"/>
	<path class="st2" d="M1451.2,750.1c5.2,7.9,7.8,16.9,7.8,27.1c0,16.8-6.3,29.8-18.8,38.9c-12.5,9.1-29.4,13.7-50.6,13.7h-70.7
		c-7.2,0-12.5-1.9-16-5.7c-3.5-3.8-5-9.2-4.5-16.4l11.3-141c0.7-7.2,3.1-12.7,7.2-16.6c4.1-3.9,9.8-5.8,17-5.8h64.4
		c20.3,0,35.9,4.3,46.7,13c10.8,8.7,16.2,19.9,16.2,33.8c0,20.2-10.6,34.4-31.8,42.9C1438.7,736.8,1446,742.2,1451.2,750.1z
		 M1407.3,788.7c4.6-3,7-8.2,7-15.5c0-6.5-2.1-11.3-6.2-14.6c-4.1-3.2-10.7-4.9-19.6-4.9h-38.7l-3.2,39.4h38.7
		C1395.3,793.2,1402.6,791.7,1407.3,788.7z M1408,713.1c4.3-2.7,6.4-7.5,6.4-14.3c0-6-2-10.4-5.9-13.4c-3.9-3-10.3-4.5-19.1-4.5
		h-33.9l-2.9,36.3h33.7C1396.5,717.2,1403.7,715.8,1408,713.1z"/>
	<path class="st2" d="M1524.9,821.5c-13.9-7.3-24.5-17.6-32-31c-7.5-13.4-11.2-29.3-11.2-47.7c0-20,3.9-37.6,11.6-53
		c7.7-15.3,18.7-27.2,32.9-35.5c14.2-8.3,30.7-12.5,49.4-12.5c18.6,0,34.8,3.6,48.7,10.9c13.8,7.3,24.5,17.7,32,31.2
		c7.4,13.5,11.2,29.4,11.2,47.6c0,20-3.9,37.6-11.7,52.9c-7.8,15.3-18.8,27.1-33,35.5c-14.2,8.4-30.6,12.6-49.2,12.6
		C1555,832.4,1538.8,828.7,1524.9,821.5z M1606.7,778.2c8.2-11.2,12.4-26.8,12.4-46.8c0-16.7-3.8-29.5-11.3-38.7
		c-7.5-9.1-18.1-13.7-31.6-13.7c-14.4,0-25.7,5.7-33.9,17c-8.2,11.3-12.4,26.9-12.4,46.7c0,16.8,3.7,29.8,11.2,38.8
		c7.4,9,18.1,13.5,32,13.5C1587.3,795,1598.5,789.4,1606.7,778.2z"/>
	<path class="st2" d="M1843.3,750.1c5.2,7.9,7.8,16.9,7.8,27.1c0,16.8-6.3,29.8-18.8,38.9c-12.5,9.1-29.4,13.7-50.6,13.7h-70.7
		c-7.2,0-12.5-1.9-16-5.7c-3.5-3.8-5-9.2-4.5-16.4l11.3-141c0.7-7.2,3.1-12.7,7.2-16.6c4.1-3.9,9.8-5.8,17-5.8h64.4
		c20.3,0,35.9,4.3,46.7,13c10.8,8.7,16.2,19.9,16.2,33.8c0,20.2-10.6,34.4-31.8,42.9C1830.8,736.8,1838.1,742.2,1843.3,750.1z
		 M1799.4,788.7c4.6-3,7-8.2,7-15.5c0-6.5-2.1-11.3-6.2-14.6c-4.1-3.2-10.7-4.9-19.6-4.9h-38.7l-3.2,39.4h38.7
		C1787.4,793.2,1794.7,791.7,1799.4,788.7z M1800.1,713.1c4.3-2.7,6.4-7.5,6.4-14.3c0-6-2-10.4-5.9-13.4c-3.9-3-10.3-4.5-19.1-4.5
		h-33.9l-2.9,36.3h33.7C1788.6,717.2,1795.8,715.8,1800.1,713.1z"/>
	<path class="st2" d="M2049.1,810c0,6-2.5,11-7.4,15.1c-4.9,4.1-10.4,6.2-16.6,6.2c-4,0-7.7-1.1-11-3.3c-3.3-2.2-5.8-5.5-7.4-9.9
		l-9.5-26.8h-82.3l-13.4,26.6c-2.3,4.4-5.2,7.6-8.8,9.7c-3.6,2.1-7.4,3.2-11.4,3.2c-5.8,0-10.9-1.8-15.4-5.5
		c-4.5-3.7-6.7-8.3-6.7-13.9c0-3.5,1.1-7.2,3.2-11l78.1-142.8c2.6-4.9,6.3-8.6,11-11.2c4.7-2.5,9.8-3.8,15.3-3.8
		c5.4,0,10.3,1.3,14.7,3.8c4.4,2.5,7.4,6.2,9.2,10.9l56.8,145.2C2048.5,805,2049.1,807.6,2049.1,810z M1933.3,755.1h51.3l-21-59.7
		L1933.3,755.1z"/>
	<path class="st2" d="M2075.8,824.9c-3.9-4.3-5.6-10.1-4.9-17.5l11-140.4c0.7-7.4,3.4-13.2,8-17.5c4.6-4.3,10.7-6.4,18-6.4
		c7.5,0,13.3,2.1,17.4,6.4c4,4.3,5.7,10,5,17.2l-11,140.4c-0.7,7.4-3.4,13.2-8,17.6c-4.6,4.4-10.7,6.6-18.3,6.6
		C2085.4,831.3,2079.7,829.2,2075.8,824.9z"/>
</g>
<g class="st3">
	<path class="st2" d="M-303.4,1085.7c3.8,2.1,9.8,4.4,18,6.9c8.3,2.6,15.2,5.1,20.5,7.6c5.3,2.5,9.9,6.2,13.8,11
		c3.9,4.9,5.8,11.1,5.8,18.9c0,10.9-3.7,20-11.1,27.2c-7.4,7.2-17.4,11.7-29.9,13.4l-0.7,8.5c-0.2,3.9-1.5,7-3.9,9.3
		c-2.3,2.3-5.4,3.4-9.2,3.4c-3.9,0-7.1-1.2-9.5-3.7c-2.4-2.5-3.5-5.5-3.2-9l0.7-8.3c-12.9-1.1-23.3-3.6-31.1-7.5
		c-2.3-1.2-4-2.9-5.2-5.1c-1.1-2.1-1.7-4.4-1.7-6.9c0-3.8,1.1-7.1,3.4-9.9c2.3-2.8,5.2-4.2,8.7-4.2c2.1,0,4.3,0.6,6.6,1.7
		c5.2,2.1,10.2,3.7,15.2,4.9c5,1.2,10.7,1.7,17.2,1.7c6.6,0,11.6-1,14.8-3.1c3.2-2.1,4.9-5.3,4.9-9.6c0-3.4-1.8-6.1-5.3-8
		c-3.6-1.9-9.3-4.1-17.1-6.5c-8.5-2.6-15.5-5.2-21-7.7c-5.5-2.6-10.3-6.4-14.4-11.4c-4-5-6.1-11.5-6.1-19.3c0-7,1.7-13.4,5.2-19.1
		c3.5-5.8,8.4-10.5,14.6-14.3c6.3-3.7,13.5-6.2,21.7-7.3l0.6-8.5c0.4-3.8,1.8-6.9,4.2-9.2c2.5-2.3,5.5-3.5,9.2-3.5
		c3.9,0,7.1,1.2,9.4,3.6c2.3,2.4,3.3,5.4,2.9,9.1l-0.6,8.7c12.4,1.7,22.2,5,29.5,9.9c3.3,2.5,5,5.7,5,9.8c0,3.7-1.3,7-3.9,9.9
		c-2.6,2.9-5.8,4.4-9.6,4.4c-2.2,0-4.5-0.6-6.8-1.8c-5.9-2.3-11-4.1-15.5-5.3c-4.4-1.2-9.2-1.8-14.4-1.8c-5.5,0-9.9,1.1-13.1,3.2
		c-3.2,2.1-4.8,5.1-4.8,8.9C-309.1,1080.5-307.2,1083.6-303.4,1085.7z"/>
	<path class="st2" d="M-125.5,1114.1c3.6,5.5,5.4,11.8,5.4,19c0,11.8-4.4,20.9-13.2,27.2c-8.8,6.4-20.6,9.6-35.4,9.6h-49.5
		c-5,0-8.8-1.3-11.2-4c-2.5-2.6-3.5-6.5-3.1-11.5l7.9-98.7c0.5-5,2.2-8.9,5.1-11.6c2.9-2.7,6.8-4,11.9-4h45.1
		c14.2,0,25.1,3,32.7,9.1c7.5,6.1,11.3,14,11.3,23.7c0,14.1-7.4,24.1-22.3,30C-134.3,1104.9-129.1,1108.6-125.5,1114.1z
		 M-156.3,1141.2c3.2-2.1,4.9-5.7,4.9-10.9c0-4.5-1.4-7.9-4.3-10.2c-2.9-2.3-7.5-3.4-13.7-3.4h-27.1l-2.2,27.6h27.1
		C-164.6,1144.3-159.5,1143.3-156.3,1141.2z M-155.7,1088.3c3-1.9,4.5-5.2,4.5-10c0-4.2-1.4-7.3-4.1-9.4c-2.8-2.1-7.2-3.1-13.3-3.1
		h-23.7l-2,25.4h23.6C-163.8,1091.1-158.7,1090.2-155.7,1088.3z"/>
	<path class="st2" d="M-73.9,1164.1c-9.7-5.1-17.2-12.3-22.4-21.7c-5.2-9.4-7.8-20.5-7.8-33.4c0-14,2.7-26.4,8.1-37.1
		c5.4-10.7,13.1-19,23-24.9c9.9-5.8,21.5-8.7,34.6-8.7c13,0,24.4,2.5,34.1,7.6c9.7,5.1,17.1,12.4,22.4,21.8
		c5.2,9.5,7.8,20.6,7.8,33.3c0,14-2.7,26.3-8.2,37c-5.5,10.7-13.2,19-23.1,24.9c-9.9,5.9-21.4,8.8-34.4,8.8
		C-52.8,1171.8-64.2,1169.2-73.9,1164.1z M-16.6,1133.8c5.8-7.9,8.7-18.8,8.7-32.8c0-11.7-2.6-20.7-7.9-27.1
		c-5.3-6.4-12.6-9.6-22.1-9.6c-10.1,0-18,4-23.7,11.9c-5.8,7.9-8.7,18.8-8.7,32.7c0,11.8,2.6,20.8,7.8,27.2
		c5.2,6.3,12.7,9.5,22.4,9.5C-30.2,1145.6-22.4,1141.7-16.6,1133.8z"/>
	<path class="st2" d="M149,1114.1c3.6,5.5,5.4,11.8,5.4,19c0,11.8-4.4,20.9-13.2,27.2c-8.8,6.4-20.6,9.6-35.4,9.6H56.3
		c-5,0-8.8-1.3-11.2-4c-2.5-2.6-3.5-6.5-3.1-11.5l7.9-98.7c0.5-5,2.2-8.9,5.1-11.6c2.9-2.7,6.8-4,11.9-4h45.1
		c14.2,0,25.1,3,32.7,9.1c7.5,6.1,11.3,14,11.3,23.7c0,14.1-7.4,24.1-22.3,30C140.2,1104.9,145.3,1108.6,149,1114.1z M118.2,1141.2
		c3.2-2.1,4.9-5.7,4.9-10.9c0-4.5-1.4-7.9-4.3-10.2c-2.9-2.3-7.5-3.4-13.7-3.4H78l-2.2,27.6h27.1
		C109.8,1144.3,115,1143.3,118.2,1141.2z M118.8,1088.3c3-1.9,4.5-5.2,4.5-10c0-4.2-1.4-7.3-4.1-9.4c-2.8-2.1-7.2-3.1-13.3-3.1H82
		l-2,25.4h23.6C110.7,1091.1,115.8,1090.2,118.8,1088.3z"/>
	<path class="st2" d="M293,1156.1c0,4.2-1.7,7.7-5.2,10.6c-3.4,2.9-7.3,4.3-11.6,4.3c-2.8,0-5.4-0.8-7.7-2.3c-2.3-1.5-4-3.8-5.2-6.9
		l-6.6-18.8h-57.6l-9.4,18.6c-1.6,3.1-3.7,5.3-6.2,6.8c-2.5,1.5-5.2,2.2-8,2.2c-4,0-7.6-1.3-10.8-3.9c-3.1-2.6-4.7-5.8-4.7-9.8
		c0-2.5,0.7-5,2.2-7.7l54.7-100c1.8-3.4,4.4-6,7.7-7.8c3.3-1.8,6.9-2.7,10.7-2.7c3.8,0,7.2,0.9,10.3,2.7c3.1,1.8,5.2,4.3,6.4,7.6
		l39.8,101.6C292.6,1152.6,293,1154.4,293,1156.1z M212,1117.6h35.9l-14.7-41.8L212,1117.6z"/>
	<path class="st2" d="M311.7,1166.5c-2.8-3-3.9-7.1-3.4-12.2l7.7-98.3c0.5-5.2,2.4-9.2,5.6-12.2c3.3-3,7.5-4.5,12.6-4.5
		c5.3,0,9.3,1.5,12.1,4.5c2.8,3,4,7,3.5,12.1l-7.7,98.3c-0.5,5.2-2.4,9.3-5.6,12.3c-3.3,3.1-7.5,4.6-12.8,4.6
		C318.5,1171,314.5,1169.5,311.7,1166.5z"/>
</g>
</svg>
