<?xml version="1.0" encoding="utf-8"?>
<!-- Generator: Adobe Illustrator 26.2.1, SVG Export Plug-In . SVG Version: 6.00 Build 0)  -->
<svg version="1.1" id="Layer_1" xmlns="http://www.w3.org/2000/svg" xmlns:xlink="http://www.w3.org/1999/xlink" x="0px" y="0px"
	 width="1000px" height="1000px" viewBox="0 0 1000 1000" enable-background="new 0 0 1000 1000" xml:space="preserve">
<g>
	<path fill="#5C8E34" d="M695.2,22.1c60.9,17.8,102.6,50.2,112.4,61.3c0.7,0.8,6.5,7.5,14.9,16.2c10.1,10.6,17.2,17,21.5,21.1
		c5.8,5.5,22.7,22.2,36.9,44.8c5.6,8.9,15.1,23.4,22.7,44.4c8.3,23.1,10.2,42,11.8,59.5c1.7,18.3,1.5,33.6,0.9,44.4
		c-5.3,32.4-2.7,55.8,0.9,71.5c4.1,18.1,6.1,28.2,10,48.4c1.9,9.9,3,15.7,2.9,23.8c-0.1,9.4-2,18.9-6.1,34.8
		c-3.8,14.5-7.6,20.8-11.4,30.6c-7.6,20-6.5,27.3-14.6,70.6c-1.9,10-4.8,25.4-9.1,44.4c-1.8-1.3-3.6,27.5-3.6,63.9v66.6
		c-0.3,16.3-0.6,32.7-0.9,49c3.5,16.2,5.9,40.2-3.2,65.4c-30.7,84.8-164.1,103.7-189.2,107.3c-58.7,8.4-53.9-6.9-190.6-4.6
		c-52.2,0.9-67.6,3.4-103.6-0.9c-54.1-6.5-108.1-12.9-142.1-53.5c-7.4-8.9-33.4-40-34.6-80.4c-0.4-15.3,3-27.5-4-45.4
		c-7-17.9-13.7-18.2-27.1-39.1c-5.9-9.3-18.5-29.1-22.7-54.9c-4.3-26.6,4.8-31.6-1.5-59.9c-4-17.9-8.4-19.2-9.6-33.2
		c-1.6-19.2,5.4-32.6,12.8-49.8c1.1-2.5,9.2-27.6,25.5-77.8c20.9-64.3,20.7-72.4,20.2-77.8c-0.9-10.4-4.1-23.1,1.1-39.4
		c2.1-6.6,4.8-11.4,5.2-19.9c0.6-10.5-2.7-17.8-5.2-24.7c-2.1-5.7-13-35.6-7.4-61.2c2.7-12.6,6.2-9.9,12.8-27
		c11.5-30.2,2.5-43.9,11.7-72.7c0,0,4.6-14.2,18.1-34.3c24.8-36.7,99.6-88.7,210.6-113.1C482.2,15.8,593.7-7.6,695.2,22.1z"/>
	<path d="M660.5,1000c9.2,0,19.4-0.7,32.7-2.6c13.1-1.9,53-7.5,94.2-23.7c53.3-20.9,87.3-50.6,101-88.5c7.6-20.8,8.8-43.9,3.6-68.5
		l0.9-48.2l0-66.7c0-25.7,0.9-45.2,1.8-54.8l1.7-7.5c3.4-15,6.4-30,9.2-44.7c2.7-14.7,4.4-25.2,5.7-33.6c2.5-16,3.7-23.2,8.5-35.8
		c1.1-2.9,2.2-5.5,3.4-8.3c2.7-6.2,5.5-12.6,8.2-23.1c4.1-15.6,6.3-26,6.4-36.5c0.1-9-1.2-15.5-3.1-25.3
		c-3.9-20.2-5.9-30.4-10.1-48.6c-4.7-20.5-4.9-43.6-0.8-68.7l0.1-0.8c0.8-15,0.5-30.3-0.9-45.4c-1.5-16.4-3.4-36.9-12.2-61.3
		c-7.3-20.3-16.3-34.5-22.2-43.9l-1.2-1.9c-13.6-21.7-29.7-38.3-38-46.3c-0.8-0.8-1.8-1.7-2.9-2.7c-4.4-4.1-10.4-9.8-18.4-18.2
		c-5-5.3-10.2-10.9-14.5-15.8l-0.1-0.2c-11.4-13-54.7-45.6-115.9-63.5C599.2-13.7,490.9,6.3,460,13.1
		c-111,24.5-188.1,76-215.2,116.3c-13.9,20.7-18.8,35.5-19,36.1c-4.7,14.5-5,25.4-5.3,35.9c-0.3,11.1-0.6,21.6-6.3,36.4
		c-2.9,7.5-5,10.6-6.8,13.4c-2.3,3.5-4.6,6.8-6.2,14.6c-5.2,24.1,2.6,51.2,7.7,65.2c0.3,0.8,0.6,1.6,0.9,2.3
		c2.2,6,4.4,11.7,3.9,19.5c-0.3,5.2-1.5,8.6-3.1,12.9c-0.6,1.6-1.2,3.3-1.8,5.2c-4.7,14.8-3.2,26.8-2,36.5c0.2,2,0.5,3.9,0.6,5.7
		c0.3,3.8,1,10.8-19.9,75c-15.1,46.5-24.2,74.6-25.3,77.3c-0.8,1.8-1.5,3.5-2.3,5.2c-6.5,14.9-12.6,29-11,48
		c0.7,8.7,2.6,13.3,4.7,18.3c1.6,3.9,3.4,8.2,5.1,15.9c3.1,13.8,2.2,21.2,1.2,29.7c-0.9,7.6-2,16.3,0.2,29.8
		c4.4,27.3,17.5,47.8,23.8,57.7c6,9.4,10.8,15,14.7,19.4c4.9,5.6,8.2,9.4,11.7,18.4c4.6,11.6,4.2,20.4,3.8,30.5
		c-0.2,4-0.4,8.1-0.2,12.5c0.8,28.5,13,57.1,36.3,84.9c35.9,42.9,92.4,49.7,147,56.2c26.9,3.2,42.9,2.7,69.5,1.9
		c9.9-0.3,21.2-0.7,35.2-0.9c70.3-1.2,102.5,2.3,126.1,4.8C639.7,999,649.4,1000,660.5,1000z M882.1,634.3
		c-1.8,3.2-2.4,9.1-3.2,22.3c-0.7,12.4-1.1,28.5-1.1,45.2v66.6l-0.9,49.7l0.2,0.8c4.8,22.3,3.8,42.9-2.9,61.4
		c-12.2,33.7-43.3,60.5-92.4,79.7c-39.5,15.5-78.1,21-90.8,22.8c-27.3,3.9-40.2,2.5-61.6,0.2c-23.9-2.6-56.7-6.1-128-4.8
		c-14.1,0.2-25.4,0.6-35.4,0.9c-26.7,0.8-41.4,1.3-67.2-1.8c-54.1-6.5-105.1-12.6-137.2-50.9c-21.1-25.2-32.2-50.8-32.9-76
		c-0.1-3.9,0.1-7.8,0.2-11.5c0.5-10.8,1-21.9-4.7-36.4c-4.5-11.4-9-16.6-14.3-22.7c-3.7-4.3-8-9.1-13.4-17.7
		c-5.8-9-17.7-27.8-21.7-52.2c-1.9-11.5-1-18.4-0.1-25.8c1.1-9,2.2-18.3-1.4-34.5c-2-8.8-4.1-14-5.8-18.2c-1.9-4.6-3.1-7.6-3.6-14.1
		c-1.3-15.4,3.7-26.7,9.9-41.1c0.8-1.7,1.5-3.5,2.3-5.3c1.2-2.7,7.1-21,25.8-78.5c21.7-67,21.1-74.6,20.5-80.7
		c-0.2-2-0.4-4.1-0.7-6.2c-1.1-8.7-2.3-18.6,1.5-30.4c0.5-1.6,1-3,1.6-4.6c1.7-4.8,3.6-9.7,4-17.1c0.6-10.9-2.4-18.9-4.8-25.4
		c-0.3-0.7-0.6-1.5-0.8-2.2c-4.6-12.6-11.6-36.7-7.2-57.3c1.1-5.1,2.2-6.7,4.1-9.6c2.1-3.1,4.9-7.3,8.4-16.4
		c6.5-17.1,6.9-29.3,7.2-41.1c0.3-9.9,0.6-19.3,4.6-31.9c0-0.1,4.5-13.6,17.2-32.4c24.7-36.5,99.6-86.6,206-110
		c30-6.6,135-26,229.7,1.7l2.2-7l-2.2,7c57.4,16.8,98.8,47.6,108.8,59l0.1,0.1c4.4,5.1,9.7,10.9,14.9,16.3
		c8.3,8.7,14.5,14.5,19,18.7c1,1,2,1.8,2.8,2.6c7.8,7.5,22.9,23.1,35.7,43.4l1.2,2c5.6,8.9,14,22.3,20.8,41
		c8.2,22.7,9.9,41.3,11.4,57.7c1.3,14.3,1.6,28.7,0.9,43c-4.4,26.8-4,51.7,1.1,73.8c4.1,18,6.1,28.1,10,48.2
		c1.9,10,2.9,15.2,2.8,22.4c-0.1,9-2.1,18.5-5.9,33c-2.5,9.4-4.9,15.1-7.5,21c-1.2,2.8-2.4,5.6-3.7,8.9c-5.3,13.9-6.6,22.2-9.2,38.6
		c-1.3,8.3-3,18.7-5.7,33.2C888.2,606,885.3,620.2,882.1,634.3z"/>
</g>
<g>
	<path fill="#FFFFFD" d="M500,307.8c-1.2,22.3,29.6,40.1,45.7,49.4c17.7,10.3,37.5,17.6,108.5,26.3c94.6,11.6,117.8,5.7,136.2-6.2
		c10.8-6.9,23-14.9,24.7-27.6c4.7-35.7-78-77.3-142.8-91.8c-57.6-12.9-94.4-2.7-106.4,1C554.3,262.7,501.5,279.3,500,307.8z"/>
	<path d="M734.5,395.8c31,0,46-5,59.2-13.5c11.3-7.3,25.3-16.4,27.4-31.7c3.2-23.8-24.5-45.6-48.2-59.6c-28-16.6-65.1-31-99.3-38.6
		c-40.5-9-78.4-8.6-109.6,1.2c-44.8,14.1-69,32.8-70.1,54.1l0,0c-1.3,25.8,31.2,44.7,48.7,54.8c16.8,9.7,35.6,17.9,110.8,27.1
		C689.1,393.8,715,395.8,734.5,395.8z M617.8,257.5c15.3,0,33,1.7,53.2,6.2c32.9,7.3,68.7,21.3,95.7,37.2
		c28.8,17,44.3,34.5,42.5,48.1c-1.3,10.1-11.9,16.9-22.1,23.4c-15.8,10.2-35.6,17.1-132.1,5.3c-72.9-8.9-90.6-16.5-106.2-25.5
		c-14.2-8.2-43.8-25.4-42.8-44.1l0,0c0.8-15.5,23.3-31.4,61.8-43.5C579.6,260.9,596.3,257.5,617.8,257.5z"/>
</g>
<g>
	<path fill="#FFFFFD" d="M205.4,326c5.9,40.7,67,54.4,73.9,55.9c44.1,9.3,79.7-9.4,96-18c16.8-8.9,44.3-23.3,43.9-43.6
		c-0.3-17-19.9-29.1-33.3-37.4c-27.6-17.1-56.4-19.3-79.6-20.8c-32.7-2.1-52.3-3.4-71.3,8.3C216.3,282,202.2,304,205.4,326z"/>
	<path d="M303.3,390.2c34.5,0,61.7-14.3,74.8-21.2c17.8-9.4,47.5-25,47.1-48.9c-0.3-20.2-21.8-33.5-36.1-42.2
		c-29.5-18.2-60.1-20.2-82.4-21.7c-33.9-2.2-54.3-3.5-74.9,9.2c-18.9,11.7-36.2,35.2-32.4,61.3c2.7,18.8,16.4,35.1,39.7,47.1
		c17,8.7,34,12.7,38.8,13.8C286.7,389.4,295.2,390.2,303.3,390.2z M275.8,266.6c8.6,0,18.4,0.6,30.2,1.4c21,1.4,49.8,3.2,76.7,19.9
		c12,7.4,30.2,18.7,30.4,32.5c0.3,16.7-25.4,30.2-40.8,38.3c-16.2,8.5-49.9,26.3-91.8,17.4c-6.5-1.4-63.9-14.5-69.2-51v0
		c-2.6-17.9,8.5-38.3,26.9-49.7C249.3,268.6,260.6,266.6,275.8,266.6z"/>
</g>
<g>
	<path fill="#E84D4D" d="M158.5,629.6c10.3,62.1,109.6,92.7,142.5,102.8c58.1,17.9,104.1,16.9,165.9,15.6c60.6-1.3,116.9-2.9,184-27
		c54.8-19.6,122.2-43.8,133-96.5c9.1-44.7-27.6-84.1-30-86.5c-21.9-22.8-52.9-29.3-114.7-42.2c-28.8-6-54.6-11.2-89.4-10.4
		c-36.5,0.9-45.3,7.5-81.9,12.5c-67.1,9-72.2-8.6-146.8-3.1c-77,5.7-107.7,27.2-117,34.3c-25.5,19.3-35.3,40.2-37.2,44.6
		C158.3,592.9,156,614,158.5,629.6z"/>
	<path d="M422.8,754.4c14,0,28.6-0.3,44.3-0.6c57.3-1.2,116.5-2.5,186-27.3c55.8-20,125.3-44.9,136.8-100.9
		c9.8-48-29.8-89.9-31.5-91.7c-23.2-24.2-54.8-30.8-117.8-43.9c-28.1-5.9-54.5-11.4-90.8-10.5c-22.6,0.5-34.9,3.2-49.1,6.4
		c-9,2-19.2,4.2-33.5,6.1c-33.9,4.6-51.1,2.2-71-0.5c-18.2-2.5-38.8-5.3-75.4-2.6c-53.3,3.9-94.9,16.2-120.3,35.5
		c-24.6,18.7-35.5,39-39.1,46.9c-8.6,19.1-11.9,41.3-8.9,59.4h0c10.9,65.7,113.1,97.1,146.7,107.4
		C343.7,751.6,380.5,754.4,422.8,754.4z M557.3,491.1c31.2,0,55.4,5,80.8,10.3c60.5,12.6,90.9,19,111.6,40.4
		c1.5,1.6,37.1,39.2,28.4,81.4C768,672.7,702,696.4,649,715.4c-67.5,24.2-125.8,25.4-182.1,26.6c-62,1.3-106.8,2.3-164-15.3
		c-31.8-9.8-128.7-39.5-138.4-98.1l0,0c-2.6-15.7,0.5-35.9,8.1-52.7c3.2-7.1,13-25.3,35.4-42.3c23.5-17.9,62.9-29.3,113.8-33
		c35.3-2.6,54.3,0,72.8,2.5c19.9,2.7,38.8,5.3,74.4,0.5c14.8-2,25.3-4.3,34.5-6.3c13.6-3,25.4-5.6,46.8-6.1
		C552.6,491.1,554.9,491.1,557.3,491.1z"/>
</g>
<g>
	<path d="M805.2,525.7c14.4,17.8,22.1,40.7,21,63.4c-0.3,6.5-1.2,13-2.9,19.4c-1.1,4.1-9.8,1.9-8.7-2.3c5.5-20.8,2.9-43.2-6.9-62.5
		c-2.7-5.4-6.1-10.5-9.9-15.2c-1.3-1.6-0.7-3.6,1.2-4.4C801.1,523.3,803.9,524,805.2,525.7L805.2,525.7z"/>
</g>
<g>
	<path d="M844.4,407.8c0.8-11.3-2.5-22.7-9.3-31.9c-1.2-1.6,1-2.1,2.2-2c1.8,0,4.7,0.7,5.8,2.2c7.3,9.8,10.9,21.8,10,34
		C852.9,412.4,844.2,410.7,844.4,407.8L844.4,407.8z"/>
</g>
<g>
	<path d="M864.5,296.6c-8.1,11.9-18.8,21.9-31.3,29.3c-1.6,1-4,0.4-5.7-0.2c-0.5-0.2-4-2-2.5-2.9c12.5-7.4,23.2-17.4,31.3-29.3
		c0.3-0.5,1.8-0.5,2.3-0.5c1.1,0,2.4,0.3,3.4,0.7C863.1,294.1,865.5,295.2,864.5,296.6L864.5,296.6z"/>
</g>
<g>
	<path d="M494,374.2c-2.4,23,8.4,46.8,26.9,61.2c5.1,4,10.7,7.1,16.8,9.4c1.4,0.5,3.5,2.2,2.2,3.8c-1.3,1.6-4.3,0.9-5.8,0.3
		c-24.2-9.2-42.6-31.1-47.8-55.9c-1.4-6.9-1.8-14.1-1-21.1c0.2-1.9,3.8-1.6,5-1.3C492,371.1,494.2,372.2,494,374.2L494,374.2z"/>
</g>
<g>
	<path d="M534.6,243.7c-9.3,2.5-18.1,7.3-25,13.9c-3.5,3.3-6.6,7.1-9.2,11.2c-2.4,3.8-4.4,7.9-6.9,11.7c-3,4.5-6.7,8.1-11.8,10.2
		c-2,0.8-4.8-0.1-6.2-1.6c-1.4-1.6-0.7-3.3,1.1-4.1c8.2-3.4,11.5-13.4,15.9-20.2c5.2-8.2,12.6-15.1,21.1-20.1
		c5-2.9,10.3-5.2,15.9-6.7c2.1-0.6,4.7-0.1,6.2,1.6C537,241.1,536.6,243.2,534.6,243.7L534.6,243.7z"/>
</g>
<g>
	<path d="M429.8,278.3c-8.3-19.8-24.5-36.4-44.7-44.8c-1.1-0.5-3.6-1.8-2.4-3.2c1.1-1.4,4.5-0.5,5.7,0c22.5,9.3,40.8,27,50.1,49.1
		c0.7,1.7-2.9,1.7-3.7,1.6C433.1,280.8,430.6,280,429.8,278.3L429.8,278.3z"/>
</g>
<g>
	<path d="M682.8,620.3c-30.3,3.3-60.6,6.6-90.9,9.5c-30.3,2.9-60.7,5.3-91.1,6.9c-30.3,1.6-60.7,2.4-91.1,1.8
		c-30.3-0.5-60.7-2.2-90.8-5.7c-26.9-3.1-54.5-7.9-78.7-20.4c-3.2-1.7-6.4-3.4-9.4-5.3c-2-1.2-3.7-4-1-5.4c2.7-1.5,6.9-0.4,9.3,1.1
		c5.4,3.4,10.5,5.9,16.5,8.4c6.2,2.6,11,4.2,17.5,6c12.8,3.5,24.5,5.5,37.7,7.1c28.8,3.6,57.9,5.5,87,6.2
		c29.9,0.7,59.9,0.1,89.8-1.3c30-1.4,59.9-3.7,89.8-6.4c29.9-2.7,59.8-5.9,89.6-9.2c3.7-0.4,7.3-0.8,11-1.2c2.9-0.3,7.1,1.1,8.6,3.6
		C688.1,618.8,685.1,620,682.8,620.3L682.8,620.3z"/>
</g>
<g>
	<path d="M470.4,958.9c-36.4,10.6-76.3,9.4-112-3.1c-10.1-3.5-19.9-7.8-29.2-13.1c-2.1-1.2-5.2-3.7-3.2-6.3c1.8-2.3,6.5-2.1,8.9-0.8
		c7.7,4.3,15.7,8.1,23.9,11.2c0.6,0.2,1.2,0.4,1.8,0.7c1.3,0.5,0.3,0.1,0.1,0c1.1,0.4,2.2,0.8,3.3,1.1c2.1,0.7,4.2,1.3,6.3,1.9
		c4.3,1.2,8.6,2.3,12.9,3.2c1.1,0.2,2.3,0.5,3.4,0.7c0.5,0.1,1,0.2,1.6,0.3c2,0.4-0.8-0.1,0.4,0.1c2.2,0.3,4.4,0.7,6.6,1
		c4.4,0.6,8.8,1,13.2,1.2c2.2,0.1,4.4,0.2,6.6,0.2c0.5,0,1.1,0,1.6,0c-0.1,0,1.9,0,1.1,0c-0.9,0,1.2,0,1.1,0c0.7,0,1.5,0,2.2,0
		c4.4-0.1,8.9-0.4,13.3-0.9c4.9-0.5,9.8-1.2,14.7-2.2c3.8-0.7,9.3-2.1,13.9-3.4c3.1-0.9,7.1,0,9.3,2.4
		C473.9,955.2,473.3,958.1,470.4,958.9L470.4,958.9z"/>
</g>
<g>
	<path d="M441,937c-15.4,3-30.9,6-46.6,5.1c-13.9-0.8-28.2-4.9-39.3-13.4c-2-1.5-3.6-4.3-0.9-6c2.6-1.6,7-0.8,9.4,0.9
		c1.2,0.9,2.5,1.8,3.8,2.6c0.6,0.4,1.2,0.8,1.8,1.1c-1.1-0.6,1.1,0.5,1.3,0.6c1.3,0.6,2.6,1.2,3.9,1.8c0.6,0.2,1.2,0.4,1.7,0.7
		c-1.4-0.5,1,0.3,1.2,0.4c1.4,0.4,2.8,0.8,4.2,1.1c0.8,0.2,1.6,0.4,2.4,0.5c0.3,0.1,2.1,0.4,0.7,0.1c3,0.5,6,0.8,9,1
		c6,0.3,12.9-0.2,19.4-1.1c6.9-0.9,13.4-2.2,20.2-3.5c3.2-0.6,7,0,9.3,2.4C444.3,933.3,444,936.4,441,937L441,937z"/>
</g>
<g>
	<path d="M208.8,788.3c7,2,13.2,5.3,18.4,10.3c4.4,4.2,7.9,9.2,11.2,14.1c3.6,5.5,7.2,11,11.1,16.3c4.2,5.7,8.8,11.2,13.7,16.5
		c5.5,5.9,11.4,11.6,17.5,16.8c2.3,1.9-2,2.4-3.2,2.3c-3-0.2-6.4-1.1-8.8-3.1c-10.4-8.9-19.9-18.8-28.4-29.6
		c-4.1-5.3-8-10.7-11.7-16.3c-3-4.7-6-9.4-9.6-13.7c-2-2.4-4.2-4.7-6.7-6.6c-0.1-0.1-1-0.7-1.4-1c-0.2-0.1-0.4-0.3-0.7-0.4
		c0,0-1.5-0.8-0.6-0.4c-0.6-0.3-1.3-0.6-1.9-0.9c1.1,0.5,0.3,0.1,0,0c-1.4-0.5,1.2,0.3-0.3-0.1c-1.4-0.4-6.4-1.7-6-3.9
		C202.1,786.7,207.8,788,208.8,788.3L208.8,788.3z"/>
</g>
<g>
	<path d="M692.8,410.3c-25.2,0.1-50.4-1.6-75.4-5.3c-7.2-1.1-14.4-2.3-21.5-3.6c-1.6-0.3-4.2-1.9-3.6-3.8c0.6-2,3.5-1.8,5.1-1.5
		c30.4,5.7,61.4,8.6,92.3,8.5c2,0,4.7,0.6,5.7,2.5C696.3,408.8,694.6,410.3,692.8,410.3L692.8,410.3z"/>
</g>
<g>
	<path d="M337.4,401.9c-28.7,4.6-58.2,2-85.7-7.2c-0.8-0.3-3.6-1.3-2.6-2.5c1-1.1,4.7,0.1,5.6,0.5c24.2,8,50.3,9.9,75.5,5.8
		c2-0.3,4.3,0.2,6.1,1.1C336.9,399.9,339.4,401.6,337.4,401.9L337.4,401.9z"/>
</g>
<g>
	<path d="M361.4,223.8c-4.7-1.2-9.3-2.4-14-3.6c-1-0.3-2.1-0.7-3-1.2c-0.3-0.2-1.2-0.8-1-1.4c0.2-0.6,1.1-0.7,1.6-0.7
		c1.1-0.1,2.2,0.1,3.2,0.4c4.7,1.2,9.3,2.4,14,3.6c1,0.3,2.1,0.7,3,1.2c0.3,0.2,1.2,0.8,1,1.4c-0.2,0.6-1.1,0.7-1.6,0.7
		C363.5,224.2,362.4,224,361.4,223.8L361.4,223.8z"/>
</g>
<g>
	<path d="M550.9,234c23.9-5.1,48.3-8.3,72.8-9.5c2.1-0.1,4.5,0.5,6.2,1.6c1.4,0.9,1.2,1.9-0.5,2c-24,1.2-47.8,4.3-71.2,9.3
		c-2,0.4-4.3-0.2-6.1-1.1C551.2,235.9,548.9,234.4,550.9,234L550.9,234z"/>
</g>
<g>
	<path d="M282,243.4c-13.1-2.1-26.8,0.5-38.5,6.6c-1.6,0.9-4,0.2-5.7-0.4c-0.4-0.2-4-1.8-2.6-2.6c13.8-7.3,29.7-9.5,45.2-7.1
		c1.3,0.2,4.7,0.9,5.1,2.4C285.9,244,282.7,243.5,282,243.4L282,243.4z"/>
</g>
<path d="M588.8,309.7c0.2,15.5,10.6,26,17.1,32.6c20.7,21,48,22,51.7,22.1c6.4,0.1,26.9,0.4,45.1-13.8c3.2-2.5,23.9-18.6,23.7-40.9
	c-0.1-16.8-11.4-28.2-16.5-33.6c-20-20.6-47.3-21.1-52.3-21.1c-4.2,0-31.4,0.5-51.7,20.8C600.1,281.7,588.6,293.2,588.8,309.7z"/>
<path d="M269.8,304.9c-0.1,6.8-0.3,20.8,9.6,32.2c12,13.8,30.8,14.3,41.5,14.5c10.4,0.2,29.7,0.7,43.8-13.4c2-2,13.5-13.8,13.1-31.7
	c-0.3-16.2-10.1-26.7-14.1-31c-16.5-17.7-39-18.5-42.4-18.5c-5.7-0.1-26.6-0.5-40.5,15C270.1,284,269.9,298.4,269.8,304.9z"/>
</svg>
