<svg id="Layer_1" data-name="Layer 1" xmlns="http://www.w3.org/2000/svg" viewBox="0 0 482.08 486.25"><path d="M321.41,229.55V192.38l64.49,11.1,26.53,53.72L361,282.05S310.8,285.94,321.41,229.55Z" fill="#eeb0a3" stroke="#000" stroke-linecap="round" stroke-linejoin="round" stroke-width="2.6"/><path d="M478.7,426.69c-19.41,30.43-72.35-33.07-71.13-52.27C432.61,374.79,478.7,426.69,478.7,426.69Z" fill="#191919" stroke="#000" stroke-linecap="round" stroke-linejoin="round" stroke-width="3"/><path d="M225.49,394.56s-11.94,29.76-23.89,31.63-41-46.85-37.48-52.24,32.09-35.14,34.67-35.37S225.49,394.56,225.49,394.56Z" fill="#dd9185" stroke="#000" stroke-linecap="round" stroke-linejoin="round" stroke-width="3"/><path d="M418.57,366.17c-26.24,33.86-21.66,64.74,4.52,96,0,0,29.69-4.75,53-53.44Z" fill="#dd9185" stroke="#000" stroke-linecap="round" stroke-linejoin="round" stroke-width="3"/><path d="M480,378c-.47,26.35-1.32,48.68-1.32,48.68s-46.09-51.9-71.13-52.27c-1,27.71-2.67,77.33-3.63,104.89,0,0-132.82,13.06-164.4-10.16l2.54-61.34s-14.15,5.81-20,5.81c0,0-1.45-41-44.64-67.5,0,0,30.49-34.84,37-54.07,8.76-22.31,34.82-40,64.24-28.68l43.54-32.66s-2.85,33.29,10.17,37.38C389.26,286,399,229.94,399,229.94c1.63,1.63,14.87,11.3,15.5,16,0,0,22.86,8,22.13,21.41,0,0,19.6,0,21.78,13.43C489.55,272.14,478.17,348.7,480,378Z" fill="#3f3f3f" stroke="#000" stroke-linecap="round" stroke-linejoin="round" stroke-width="3"/><path d="M407.57,374.42l0,1A8.16,8.16,0,0,1,407.57,374.42Z" fill="#191919" stroke="#000" stroke-linecap="round" stroke-linejoin="round" stroke-width="1.78"/><path d="M240.59,407.81c-.1-7.21-.14-14.43-.06-21.65s.16-14.43.25-21.65l.35-21.66.47-21.65a.48.48,0,0,1,.49-.47.47.47,0,0,1,.47.47l.47,21.65.35,21.66c.09,7.22.22,14.43.25,21.65s0,14.44,0,21.65a1.5,1.5,0,0,1-3,0Z"/><path d="M279.52,264.65a86.9,86.9,0,0,1-9.18,5.4c-3.12,1.71-6.29,3.33-9.5,4.89a.49.49,0,0,1-.5-.83q4.26-3.24,8.65-6.27a86.86,86.86,0,0,1,9-5.74,1.5,1.5,0,0,1,1.56,2.55Z"/><path d="M407.57,374.42S410,356.79,417,341.33" fill="#191919"/><path d="M406.09,374.22c.16-1.48.37-2.9.64-4.34l.4-2.14.49-2.12c.64-2.84,1.46-5.62,2.33-8.4s1.84-5.5,2.93-8.19a81.75,81.75,0,0,1,3.64-7.9.48.48,0,0,1,.65-.21.49.49,0,0,1,.23.6h0c-1,2.69-1.92,5.39-2.73,8.13s-1.56,5.49-2.22,8.26-1.23,5.56-1.8,8.35l-1.59,8.35v0a1.5,1.5,0,0,1-3-.44Z"/><path d="M480,378c-.47,26.35-1.32,48.68-1.32,48.68s-46.09-51.9-71.13-52.27c0-.32-.47,14-.49,14.2-8.69-19,4.57-49.3,5.19-47.29,0,0-2.31,9.34,2.94,12.55s23.63,18.08,29.17,25.67,19,21.58,23.63,11.09C469.64,387,474.45,382.4,480,378Z" fill="#191919" opacity="0.5"/><path d="M468.49,281.2c-7.5,1.33-16.36,2.4-19.45.77-5.72-3-20.68-3.23-20.68-3.23-44.89,24.18-72,12.71-72,12.71,12,1.85,64.09-22.42,62.74-29.32s-20.89,3.12-21.35,3.35c3.31-2.67,6.88-18.06,9.05-29,3.37,2.76,6.68,6.17,7.66,9.42,0,0,22.86,8,22.13,21.41,0,0,19.6,0,21.78,13.43A12.36,12.36,0,0,1,468.49,281.2Z" fill="#191919" opacity="0.5"/><path d="M405.08,446.59l-1.14,32.72s-132.82,13.06-164.4-10.16l2.54-61.34s-14.15,5.81-20,5.81c0,0-1.45-41-44.64-67.5,0,0,30.49-34.84,37-54.07.58-3.63,5.89-11,8.39-12.09.14,1.94-38.8,70.42-5.55,44.72-1,7.4-7.25,23.69,9.08,21.18-2.37,31.79,7.82,16.5,21.69,29.42,3,57.34,96.66,43.08,94.33,55.66-10.42,4.71-69.78,10.43-72.64,12.27s-.67,4.55,7.4,7.57,89.79,11.94,115-1.68C397,446.52,401.28,445.9,405.08,446.59Z" fill="#191919" opacity="0.5"/><path d="M366.77,291.36c5.38-.75,10.69-1.68,15.94-2.85a125.44,125.44,0,0,0,15.4-4.54,105.44,105.44,0,0,0,14.59-6.66,116.63,116.63,0,0,0,13.52-8.79.56.56,0,0,1,.73.85A71.77,71.77,0,0,1,414,279.55a82,82,0,0,1-14.86,7.23,93.82,93.82,0,0,1-32.31,5.63.53.53,0,0,1-.07-1.05Z"/><path d="M290.7,389.91c5.33,6.87-1.94,13.85,9.77,18.6,9.78,4.47,18.71,8.83,28.23,9.81s32.76-13.87,32.62-20.9c-1.68-16-2.91-22.91,2.59-36.7,1.8-3.66-1.57-13.17-.52-17.93S364,328,358,322.73c-10.54-19.55-64.93-20.09-65.84,10.48-1.33,19.34-2,29.66-5.93,35.13-3.57,4.91,0,5.68.1,12.42C286.16,384.2,288.77,387.56,290.7,389.91Z" fill="#5c8e34" stroke="#346609" stroke-linecap="round" stroke-linejoin="round" stroke-width="4"/><path d="M290.66,388.49a11.63,11.63,0,0,1,2.49,1.75,19.74,19.74,0,0,1,2,2,26.14,26.14,0,0,1,1.65,2.19c.5.76.95,1.49,1.4,2.24l.15.26a.77.77,0,0,1-.26,1,.79.79,0,0,1-.39.11,5.91,5.91,0,0,1-3.32-1.16,12,12,0,0,1-2.3-2.12,13,13,0,0,1-1.65-2.56,8.86,8.86,0,0,1-.9-3,.78.78,0,0,1,.71-.87.73.73,0,0,1,.44.08Z" fill="#346609"/><path d="M303.29,404.23c1.27.15,2.5.38,3.68.55s2.33.34,3.49.46,2.31.24,3.5.29,2.41.09,3.77.28h.06a.78.78,0,0,1,.68.89.85.85,0,0,1-.31.54,11.58,11.58,0,0,1-8.14,2,12.27,12.27,0,0,1-4.11-1.17,9.15,9.15,0,0,1-3.4-2.65.73.73,0,0,1,.13-1,.76.76,0,0,1,.54-.15Z" fill="#346609"/><path d="M320.8,340.12c1.27,5.21,7.57,6.76,15.87,7.79,11.27,1.08,13.82,1.3,16.56-3.47C352.4,335.67,324,329.52,320.8,340.12Z" fill="#fffffd" stroke="#000" stroke-linecap="round" stroke-linejoin="round" stroke-width="4"/><path d="M290.49,342c3.87,9.93,19.87,6,22-.59C309.73,333.85,289.91,331.9,290.49,342Z" fill="#fffffd" stroke="#000" stroke-linecap="round" stroke-linejoin="round" stroke-width="4"/><path d="M329.94,340.32c1.47,7.34,13,7.76,14.16,0C342.89,332.76,331.17,332.82,329.94,340.32Z" stroke="#000" stroke-linecap="round" stroke-linejoin="round" stroke-width="4"/><path d="M297.12,340.38c-.79,6.17,10.91,6.93,11.11.16C307.38,333.67,296.88,333.8,297.12,340.38Z" stroke="#000" stroke-linecap="round" stroke-linejoin="round" stroke-width="4"/><path d="M352.78,362.13a4.73,4.73,0,0,1,2.07,1.67,5.94,5.94,0,0,1,1,2.45,5.6,5.6,0,0,1-.23,2.8,4,4,0,0,1-1.82,2.17.87.87,0,0,1-1.17-.35.81.81,0,0,1-.08-.25l0-.18c-.15-.83-.2-1.39-.32-1.94s-.19-1-.28-1.59-.18-1.12-.24-1.76a11,11,0,0,1,0-2.18v-.17a.81.81,0,0,1,.88-.73Z" fill="#346609"/><path d="M293.31,333.65a2.76,2.76,0,0,1,1.09-1.75,3.34,3.34,0,0,1,1.59-.61,3.14,3.14,0,0,1,1.55.23,2.87,2.87,0,0,1,1.31,1.12,1.15,1.15,0,0,1-.18,1.43l-.05.06a4.73,4.73,0,0,1-1.24.86,3,3,0,0,1-1,.28,2.36,2.36,0,0,1-.91-.1,5,5,0,0,1-1.15-.55l-.87-.6A.39.39,0,0,1,293.31,333.65Z" fill="#346609"/><path d="M304.82,330.15a2.43,2.43,0,0,1,.83-.86.87.87,0,0,1,.7-.13,1,1,0,0,1,.6.43,2.28,2.28,0,0,1,.38,1.17,1.47,1.47,0,0,1-.3,1l-.29.38a3.1,3.1,0,0,1-.76.78.71.71,0,0,1-.58.12.84.84,0,0,1-.48-.4,3,3,0,0,1-.36-1.11v-.09A1.8,1.8,0,0,1,304.82,330.15Z" fill="#346609"/><path d="M309,331.48a4.13,4.13,0,0,1,2.42,0,5.13,5.13,0,0,1,2,1.17,4.46,4.46,0,0,1,1.44,4.43.9.9,0,0,1-1.12.61.85.85,0,0,1-.17-.06l-.14-.08a15.35,15.35,0,0,1-1.58-1,12.66,12.66,0,0,1-1.16-1,10.27,10.27,0,0,1-1.07-1.17,8.52,8.52,0,0,1-1.05-1.63l-.09-.2a.81.81,0,0,1,.39-1.09Z" fill="#346609"/><path d="M295.29,348.17a10.15,10.15,0,0,1,2.27-.32,17,17,0,0,1,2,0,17.62,17.62,0,0,1,2,.28,11.77,11.77,0,0,1,2.21.67l.07,0a.87.87,0,0,1,.45,1.16.64.64,0,0,1-.18.27,5.13,5.13,0,0,1-2.31,1.34,7.06,7.06,0,0,1-2.58.23,7,7,0,0,1-2.48-.68,5.4,5.4,0,0,1-2.07-1.74.79.79,0,0,1,.2-1.12.66.66,0,0,1,.24-.11Z" fill="#346609"/><path d="M320.5,346.72c.43.77.74,1.5,1.07,2.11a15.64,15.64,0,0,0,1,1.65,15,15,0,0,0,1.11,1.53c.19.3.47.54.7.87a12.11,12.11,0,0,1,.82,1l.09.14a.84.84,0,0,1-.26,1.16,1,1,0,0,1-.33.12,5.17,5.17,0,0,1-3.06-.5,5.9,5.9,0,0,1-2.44-2.19,5.84,5.84,0,0,1-1-3.13,5,5,0,0,1,.92-3.05.75.75,0,0,1,1.05-.17.71.71,0,0,1,.22.24Z" fill="#346609"/><path d="M330.45,348.68a9.74,9.74,0,0,1,2.75-.53,15,15,0,0,1,2.6.07,17.61,17.61,0,0,1,2.51.46,13.26,13.26,0,0,1,2.51.92l.07,0a.85.85,0,0,1,.39,1.13.75.75,0,0,1-.28.33,6.64,6.64,0,0,1-2.82,1.06,10.68,10.68,0,0,1-2.82,0,10.86,10.86,0,0,1-2.7-.65,8,8,0,0,1-2.5-1.49.8.8,0,0,1-.06-1.14.69.69,0,0,1,.32-.22Z" fill="#346609"/><path d="M355.85,346.31a2.21,2.21,0,0,1,1.84.47,2.58,2.58,0,0,1,.89,1.37,2.52,2.52,0,0,1-.05,1.49,2.3,2.3,0,0,1-1,1.21,1.24,1.24,0,0,1-1.38-.09l-.11-.09a5.94,5.94,0,0,1-.94-.9,1.61,1.61,0,0,1-.35-.6.91.91,0,0,1,.07-.57c.1-.23.19-.55.4-1.06l.44-1.05A.28.28,0,0,1,355.85,346.31Z" fill="#346609"/><path d="M354.29,341.3a4,4,0,0,1,.3-1.33,2.39,2.39,0,0,1,.54-.82,2.78,2.78,0,0,1,.86-.56,4.4,4.4,0,0,1,1.43-.32h.09a1.16,1.16,0,0,1,1.18.8,2.75,2.75,0,0,1,0,1.68,2.91,2.91,0,0,1-.79,1.27,3,3,0,0,1-1.34.76,2.89,2.89,0,0,1-1.85-.14.73.73,0,0,1-.46-.72Z" fill="#346609"/><path d="M325.77,332.18a6.1,6.1,0,0,1,2.05-1.6,7,7,0,0,1,2.05-.6,6.69,6.69,0,0,1,2.14,0,5,5,0,0,1,2.26,1,.86.86,0,0,1,.14,1.2l-.14.14-.19.15a7.39,7.39,0,0,1-3.69,1.48,8,8,0,0,1-2,0,7,7,0,0,1-1-.19,5,5,0,0,1-.51-.16c-.15-.06-.32-.11-.36-.26a.71.71,0,0,1-1-.19A.72.72,0,0,1,325.77,332.18Z" fill="#346609"/><path d="M324.59,333.8c-.52.65-.93,1.07-1.21,1.46l-.76,1.09a10,10,0,0,1-1.38,1.57,3.41,3.41,0,0,1-2.65,1,.88.88,0,0,1-.73-1,.59.59,0,0,1,.05-.19l.07-.17a13.29,13.29,0,0,0,.48-1.67,6.64,6.64,0,0,1,.94-1.87,4.77,4.77,0,0,1,2.27-1.69,3.66,3.66,0,0,1,2.69.13.84.84,0,0,1,.41,1.13,1,1,0,0,1-.1.17Z" fill="#346609"/><path d="M306.35,402.61a7.09,7.09,0,0,1,2-.52,9.07,9.07,0,0,1,1.8,0,9.65,9.65,0,0,1,1.73.3,8.29,8.29,0,0,1,1.89.75l.08.05a.92.92,0,0,1,.35,1.25,1,1,0,0,1-.12.17,4.39,4.39,0,0,1-2,1.24,5.87,5.87,0,0,1-2.23.22,6.08,6.08,0,0,1-2.13-.58,4.79,4.79,0,0,1-1.82-1.52.86.86,0,0,1,.2-1.19l.14-.08Z" fill="#346609"/><path d="M284.93,370.53c-.95-18.24,50.31-9,55.66-9.61,6.89-.75,10.43,5.89,9.43,11.79C347.67,389.91,284.24,391.37,284.93,370.53Z" fill="#e84d4d" stroke="#b20808" stroke-linecap="round" stroke-linejoin="round" stroke-width="4"/><path d="M293,370.37s8.65,6.64,47,1.47" fill="#e84d4d" stroke="#b20808" stroke-linecap="round" stroke-linejoin="round" stroke-width="4"/><path d="M352,333.57a31,31,0,0,1,.79,12.89l11.91-.23a5.44,5.44,0,0,0,.24-4.59Z" fill="#fce583" stroke="#c1a11e" stroke-linecap="round" stroke-linejoin="round" stroke-width="4"/><path d="M352.76,346.46a28.71,28.71,0,0,1-12.51,10.48c4.8-16.13,1.13-27.2-.25-30.33l12,7A25.23,25.23,0,0,1,352.76,346.46Z" fill="#fff" stroke="#9b9b9b" stroke-linecap="round" stroke-linejoin="round" stroke-width="4"/><path d="M340,326.61l-7.81-1.74c1.43,2.95,6.71,15.8,1.53,33.87l6.53-1.8C345.87,338.5,340.67,327.86,340,326.61Z" fill="#fce583" stroke="#c1a11e" stroke-linecap="round" stroke-linejoin="round" stroke-width="4"/><polygon points="349.82 345.06 348.73 344.98 348.63 346.57 349.71 346.66 349.82 345.06" fill="#5086ff" stroke="#054ece" stroke-linecap="round" stroke-linejoin="round" stroke-width="4"/><polygon points="345.64 347.65 347.21 347.76 347.39 344.9 345.82 344.78 345.64 347.65" fill="#5086ff" stroke="#054ece" stroke-linecap="round" stroke-linejoin="round" stroke-width="4"/><path d="M332.19,324.87a183.53,183.53,0,0,0-55.43,1.52c-5.53,17.32,1,28.48,1.71,29.67,16.23,4.4,52,2.84,55.25,2.68C339.42,339.3,333,326.36,332.19,324.87Z" fill="#5086ff" stroke="#054ece" stroke-linecap="round" stroke-linejoin="round" stroke-width="4"/><g opacity="0.25"><path d="M323.8,327.07c-2.79-.59.43,23.51-2.79,23.84-2.6.69-29,.51-34.49-1-2.62-.71-4.74-4-6.24-7.16a1.36,1.36,0,0,0-2.59.63c.16,4.71.79,10.11,2.81,11.23,4,1.18,44.56,3.49,50.83.89,2.95-9.65.41-23.63-.36-27.36C329.87,325.88,325.09,327.29,323.8,327.07Z" fill="#1b1b1c"/></g><path d="M290.05,337a1.67,1.67,0,0,1-1.24,1.56c4.84,2.75-3.45,6.26-5,2.92l.19-6C285,333.91,290.39,334.49,290.05,337Zm-1.84,3.28c.14-1.15-1.64-.91-2.4-1l-.06,1.75C286.57,341.24,288.15,341.43,288.21,340.26Zm-2.36-2.36c3,.58,3-2.16,0-1.67Z"/><path d="M299,339.09c.19,5.29-8.33,5-7.8-.26C291.06,333.55,299.54,333.83,299,339.09Zm-2-.07a1.93,1.93,0,1,0-3.75-.12A1.93,1.93,0,1,0,297,339Z"/><path d="M306.5,337.5a1.65,1.65,0,0,1-1.23,1.56c4.84,2.75-3.46,6.26-5,2.92.07-.1.06-6.53.34-6.35C302.42,334.86,306.56,334.84,306.5,337.5Zm-1.84,3.28c.14-1.14-1.64-.9-2.4-1l-.05,1.75C303,341.76,304.61,342,304.66,340.78Zm-2.36-2.35c3,.57,3-2.17.05-1.67Z"/><path d="M314.72,341.72l-2.45-.08c-.19.54-.36,1.15-.51,1.65-4.16,1.1.32-5.68.58-7.37,4.18-1.71,3.64,4.84,4.76,7.31C315.59,344.18,314.93,343.17,314.72,341.72Zm-1.08-4.32c-.28.83-.71,1.84-1,2.72l1.78.06c-.21-.92-.51-1.95-.71-2.78Z"/><path d="M319.25,343.62c-2,.52-.48-6.9-.8-7.73.77-.11,2.07-.29,1.94.88l-.21,6.77A3.51,3.51,0,0,1,319.25,343.62Z"/><path d="M398.06,205.66C388,233,369,232.41,351.78,243.44c-13.94,6.46-34.37,8.93-46.91-10.59-17-23.31-11.13-26.8-16.81-48.36-1.45-3.53-1-16.81,0-22.21,2-22.46-3.67-37.69,10.38-60.39,10-16.19,8.3-19.31,17.22-20.55,17.79-2.33,79.87-9.62,81.78,23,.83,15.16,6.43,21.18,10.59,24.71S402.63,189.06,398.06,205.66Z" fill="#eeb0a3" stroke="#914139" stroke-linecap="round" stroke-linejoin="round" stroke-width="2.6"/><path d="M398.06,205.66C388,232.9,369,232.44,351.78,243.44c-15.74,7.39-36.63,8.18-48.65-13.36,14,20,36.11,14.22,41,12.71s9.44-6.62,16.23-10.59,17-10.77,21-14.74c9.2-10.71,3.71-39.8,4.62-50.66.64-2.64,6.7-29.52,2-34.62s-11.37-11.36-11.89-13.27c-2.09-28,5.35-24.77-26.66-24.4-9.64-.57-16.61,1.69-23.22.13-15.79-4.12-33.87,29.14-36.81,33.82,0,0-.21.1-.59.25a72.63,72.63,0,0,1,9.56-26.82c10-16.19,8.3-19.31,17.22-20.55s43.18-5.19,57.91.62,23,7.26,23.87,22.41,6.43,21.18,10.59,24.71S402.63,189.06,398.06,205.66Z" fill="#dd9185"/><path d="M398.06,205.66C388,233,369,232.41,351.78,243.44c-13.94,6.46-34.37,8.93-46.91-10.59-17-23.31-11.13-26.8-16.81-48.36-1.45-3.53-1-16.81,0-22.21,2-22.46-3.67-37.69,10.38-60.39,10-16.19,8.3-19.31,17.22-20.55,17.79-2.33,79.87-9.62,81.78,23,.83,15.16,6.43,21.18,10.59,24.71S402.63,189.06,398.06,205.66Z" fill="none" stroke="#914139" stroke-linecap="round" stroke-linejoin="round" stroke-width="2.6"/><path d="M358.79,158c-.52-.43-5.61-3.56-6.13-2.9-1.7,3.24-19.45,3.81-20.58-1.12a.69.69,0,0,0-.14-.08c1.4-.84,2-1.27.56-1.47-3.46-.48-2.75-3.47-1-7.9s15.1-6.93,12.83-6.93c-26.75-6.15-26.55,27.27-27.52,44.49-1.31,3-11.35,1.46-10.76-1.43,2.81-11.46,14.2-29.73-2.88-38,0,0-8.56-2.92-4.55,1a106.92,106.92,0,0,1,11,12.83c1.09,1.83-.13,3.31-5.07,5.76s-13.87-1.53-13.87-1.53c5.23,6.94,13.85,5.09,18.94.56.28,7.27-11.88,29.47,4.56,29.45,6.24-2.62,20.87,1.86,19.2-9.78,6.61,11.41,21.37,10.89,18.46,26,.55,1.56,6.08-9.81-.75-13.44-5.75-3.79-13.42-11-18.23-15.38a8.53,8.53,0,0,0-4.68-5.1c-8.45-3.54-4.43-15,2.21-18.2,5.44,7.07,14.79,6,21,3.19,1.39.14,3.85,1.69,3.53,1.37a33,33,0,0,1-2.59-2.13C352,156,359.93,159.45,358.79,158Zm-33,19.17c3.37.53,5.62,4.05,5.68,5.47s-7.71-2.49-12-.88C319.49,181.72,322.46,176.59,325.84,177.13Z" fill="#dd9185"/><path d="M303.19,191a31.58,31.58,0,0,0-4.16,8c.16-3.41,2.61-10.73,2.7-12.49C304.78,179.9,306.33,187.44,303.19,191Z" fill="#dd9185"/><path d="M316.5,186.29a4.91,4.91,0,0,1,1.5-2.1,5.71,5.71,0,0,1,2.38-1.24,4.8,4.8,0,0,1,2.85.16,3.77,3.77,0,0,1,2.06,1.79.53.53,0,0,1-.6.75h0a9,9,0,0,0-2-.35,7,7,0,0,0-1.7.19,15.05,15.05,0,0,0-1.8.59l-2,.84h0a.5.5,0,0,1-.66-.63Z" fill="#914139"/><path d="M332.92,179.23a5.6,5.6,0,0,1,1.88,2.39,4.91,4.91,0,0,1,.17,3.47,5.23,5.23,0,0,1-2.11,2.69,8.21,8.21,0,0,1-1.41.73,10,10,0,0,1-1.49.33.52.52,0,0,1-.57-.45.51.51,0,0,1,.12-.39l0-.05a12.74,12.74,0,0,1,1-1c.29-.33.62-.6.87-.91a5.46,5.46,0,0,0,1.1-1.8,4.61,4.61,0,0,0,.16-2,9.72,9.72,0,0,0-.22-1.21c-.1-.45-.22-.81-.35-1.41a.47.47,0,0,1,.35-.55.49.49,0,0,1,.36.07Z" fill="#914139"/><path d="M315.94,190.73a4.49,4.49,0,0,1-2.61.58,8,8,0,0,1-1.3-.19,11.49,11.49,0,0,1-1.23-.37,11.07,11.07,0,0,1-4.21-2.86,8.68,8.68,0,0,1-2.28-4.71,6.7,6.7,0,0,1,1.32-4.94.5.5,0,0,1,.7-.08.49.49,0,0,1,.18.5v0a8,8,0,0,0,0,4.06,8.78,8.78,0,0,0,2,3.39,13.58,13.58,0,0,0,3.23,2.59,7.2,7.2,0,0,0,3.83,1.16h.1a.47.47,0,0,1,.49.43A.46.46,0,0,1,315.94,190.73Z" fill="#914139"/><path d="M309.44,156.63c-4.5,2.54-14,3.3-18.38-.55C295.63,151.41,307.11,151,309.44,156.63Z" fill="#fffefc" stroke="#542d0d" stroke-linecap="round" stroke-linejoin="round" stroke-width="0.51"/><path d="M301.58,156.34a3.75,3.75,0,0,1-1.33,2.34,21.81,21.81,0,0,1-5.33-.56C290.73,152.69,302.43,149.6,301.58,156.34Z" fill="#66513f"/><path d="M295.94,156.53c1.15,2.33,4.79.47,3.57-1.83S294.72,154.23,295.94,156.53Z" fill="#140700"/><path d="M298.63,157.15a.85.85,0,0,0,1.52-.77A.85.85,0,0,0,298.63,157.15Z" fill="#f0e1d8"/><path d="M309.79,157.72a6.51,6.51,0,0,0-3.53-3.66,12.62,12.62,0,0,0-5.12-1.06,17,17,0,0,0-5.25.75,12.29,12.29,0,0,0-4.64,2.52l0,0a.28.28,0,0,1-.23.05h0l.22-.05-1.08.77h0a.19.19,0,0,1-.26,0,.18.18,0,0,1,0-.25l1-.92a.22.22,0,0,1,.19-.05h0l-.25.08a11.48,11.48,0,0,1,4.73-3,16.66,16.66,0,0,1,5.55-.88,12.36,12.36,0,0,1,5.49,1.31,7.26,7.26,0,0,1,2.24,1.77,8.57,8.57,0,0,1,.79,1.2,13.49,13.49,0,0,1,.47,1.35.18.18,0,0,1-.34.11Z" fill="#442308"/><path d="M309.44,156.63l0,0c-3.2-3.13-14.46-3.09-17.89-.17a4.55,4.55,0,0,1-.45-.4C295.2,151.71,307,150.7,309.44,156.63Z" fill="#442308" opacity="0.2"/><path d="M354.27,152.38c-4.33,3.6-16.08,3-21.71.65C336.33,145.44,349.54,147.64,354.27,152.38Z" fill="#fffefc" stroke="#542d0d" stroke-linecap="round" stroke-linejoin="round" stroke-width="0.6"/><path d="M344.69,152.21a4.48,4.48,0,0,1-1.24,2.48,54.59,54.59,0,0,1-6.66-.3,4.55,4.55,0,0,1-.46-5h0C338.72,146.41,345.66,147.1,344.69,152.21Z" fill="#66513f"/><path d="M338,152.44c1.38,2.79,5.73.57,4.27-2.18S336.5,149.69,338,152.44Z" fill="#140700"/><path d="M341.15,152A1,1,0,0,0,343,151,1,1,0,0,0,341.15,152Z" fill="#f0e1d8"/><path d="M331.74,154.2a7.46,7.46,0,0,1,1.49-3,9.2,9.2,0,0,1,2.63-2.14,14,14,0,0,1,6.49-1.56,19.45,19.45,0,0,1,6.55,1.09,14.44,14.44,0,0,1,5.59,3.55l-.29-.09h.05a.25.25,0,0,1,.22.06l1.18,1.08a.23.23,0,0,1,0,.32.24.24,0,0,1-.3,0h0l-1.27-.91.26.05h0a.3.3,0,0,1-.26-.06l0,0a15.48,15.48,0,0,0-5.5-3,19.42,19.42,0,0,0-6.19-.94,14.14,14.14,0,0,0-6,1.26,8.11,8.11,0,0,0-4.18,4.38.22.22,0,0,1-.27.12A.21.21,0,0,1,331.74,154.2Z" fill="#442308"/><path d="M332.57,153l0,0c4.23-3.76,16.66-3.68,21.15-.19l.53-.48C349.39,147.22,335.46,146,332.57,153Z" fill="#442308" opacity="0.2"/><path d="M286.56,144.4c-3.37-12.26,23.08-3.51,16.34-1.64C293.81,143.53,294.57,143.37,286.56,144.4Z" fill="#2d2825" stroke="#141110" stroke-linecap="round" stroke-linejoin="round" stroke-width="0.88"/><path d="M359.22,140.05c-5-8.83-28.85-9-31.91-.08a1.73,1.73,0,0,0,2.18,1.66c7.15-1.88,12.38-2.71,27.75.83A1.74,1.74,0,0,0,359.22,140.05Z" fill="#2d2825" stroke="#141110" stroke-linecap="round" stroke-linejoin="round" stroke-width="0.88"/><path d="M317.65,204.51c4.05-3.5,20,.92,24.46,1.86,0,0-13.91-.44-17.88.39s-4.41,1.73-7.4,1.47-5.17-.57-8.56.52-4.11.25-3.4-.71,7.18-5.13,9.17-4.49S316.59,204.51,317.65,204.51Z" fill="#b27266"/><path d="M306.09,210.28c3.36,2.31,24.06,2.59,27.75.52,2.12-1.22,8-4.44,8-4.44-2.74-.23-17.51-.56-20.89,1C316.61,208.8,308.88,205.76,306.09,210.28Z" fill="#cf8f83"/><path d="M304.91,211.16a3.39,3.39,0,0,1,.95-1.87,6.28,6.28,0,0,1,1.59-1.2,13.3,13.3,0,0,1,3.59-1.28,21.16,21.16,0,0,1,3.72-.48,15.46,15.46,0,0,1,3.86.3l-.23,0a8.7,8.7,0,0,0,2.94-.43,24.93,24.93,0,0,1,3.43-1,31.51,31.51,0,0,1,7.09-.29c2.28.1,4.56.24,6.84.4s4.56.36,6.83.64a.49.49,0,0,1,0,1c-2.29.17-4.57.27-6.86.33s-4.56.09-6.85.09a35.16,35.16,0,0,0-6.56.4,27,27,0,0,0-3.16.86,9.8,9.8,0,0,1-3.81.43h-.08a.45.45,0,0,1-.16,0,15.28,15.28,0,0,0-3.25-.42,24.17,24.17,0,0,0-3.4.14,14.67,14.67,0,0,0-3.27.74,3.7,3.7,0,0,0-2.29,1.87l0,.07a.46.46,0,0,1-.59.27A.47.47,0,0,1,304.91,211.16Z" fill="#914139"/><path d="M415.81,168.6c-.5-.65-1-1.3-1.42-1.86a11.08,11.08,0,0,0-1.46-1.45,7,7,0,0,0-1.68-1c-.63-.31-1.35-.49-2.16-.79l-.06,0a.53.53,0,0,1-.3-.67.55.55,0,0,1,.27-.29,5,5,0,0,1,2.82-.41,5.29,5.29,0,0,1,2.75,1.2,5.91,5.91,0,0,1,1.75,2.36,5.36,5.36,0,0,1,.39,2.8.48.48,0,0,1-.85.23Z" fill="#b35229"/><path d="M288.79,137.2c-4.23-8.57-15.49-32.75-1.26-44,1.06-1.56-8.62-16.32,1.26-30.05S302.22,56.31,318,47.44,343.1,30,343.1,30c-9.11,12.47,12.06,5.26,27,17.75,12.26,8.67,29.38,14.11,45.75,10s18.51,63.5,19.05,74.46-15.42,19.3-15.42,19.3L397,158.32a2.59,2.59,0,0,1-3.38-2.93c8.44-32.81-11.28-21.12-12.76-37.87,1.55-8.76,4.29-28.27-10.05-27.61-7.5-.68-30.53,1.56-39.25.78S297.72,86.36,288.79,137.2Z" fill="#241f1c" stroke="#141110" stroke-linecap="round" stroke-linejoin="round" stroke-width="2.54"/><path d="M315.3,56.1c-.32-1.64,1.38-.41,1.87-1.48,4.6-5.09,7.73-.83,10.9-2.06,1.64-.11.53,3.26,2.59,2.56,3.39.48,1.62,4.42.45,6.26-1.48,3.21-.79,7.06-2.45,10.17-.58-2.79,2.32-10.23-2-10.21-1-.15-.71-2.53-2-2-.54,2-3.36,2.79-4.28.61-2.26,3.61-1.67,8.05-1,12C316,66.66,317,63.06,315.3,56.1Z" fill="#3d3530"/><path d="M336.42,41.36c-4.51,2,1,10.37-.07,14.31-.33,2.57-1.92,5.16-1,7.6a70.34,70.34,0,0,1,4.86-11.59l.53,1.21.82-.45L340.51,65c2.8-3.34,1.37-9.61,6-11.55,7.72,5.52,4.7,5.86,2.42,13.68,4.07-3.6,2.75-9.8,10.29-6.37C367.58,59,363,65.48,362,70c3.16-1.41,3.23-4.87,5-7.23,4.27-1.84.24,4.38,3.12,4.23,1.14-.25.78-2.46,1.93-2.43l1.66,5.14c5.17-8.33,3.73.3,4.64,4.69.81-4.91,4-11.9.74-16.07-1.95-.41-4,3.1-5.54-.51-1.12,5.1-3-1.7-3.49-3.41l-2.56,4.43A13.55,13.55,0,0,0,365.41,52c-1.42.62.82,5.37-2.06,3.85-1.88,3.28-3.92,1.22-1.94-1.72.36-1.73-2.53-2.29-2.57-.46.15-1.06,0-2.63-1.31-2.83s-2,2-3.23,1.16c0-3.51-4.17-4-6.72-5.64l-.88,4.81c-.86-3.43-2.88-7.73-7-7.59l.38,3.85C337.52,46.2,337.37,43.37,336.42,41.36Z" fill="#3d3530"/><path d="M306.54,68.56c.77-1.18,2.1-3.86,2.87-1.16.88.65,1.63-.58,1.56-1.41,1.16-7.94-1.21-3.5-6-3.49-4.09-1.39-17,12.43-16.05,16.77,3.7-8.81,4-1.33,8.82-3.79.22-.84-1.07-.84-1.5-1.24-.89-2.25,4.11-4.77,4.47-7.56,1.49,3.59,1.65,2,2.72-.68.23,3.6,4.46,5,6.5,7.48C309.05,71.7,308.34,69.61,306.54,68.56Z" fill="#3d3530"/><path d="M393.94,63.7c2.94,2.59-1,17.52-2.6,19.9C392.79,78.47,401,69.21,393.94,63.7Z" fill="#3d3530"/><path d="M386,61.11a10.76,10.76,0,0,0,2.4,3.09c1.37,1-.19,2,0,4.51s.57,4.94.57,4.94-2.45-5.19-2.13-7.6A10.27,10.27,0,0,0,386,61.11Z" fill="#3d3530"/><path d="M395.69,84.09c2.59-.62,6.8-11.55,6-13.47-.45-.43-2.08,0-2.6,2.66C399,77.26,396.45,81.61,395.69,84.09Z" fill="#3d3530"/><path d="M401.75,86.76A4.26,4.26,0,0,0,405.89,84c1.26-3,1.59-3.27,3.37-4.59s3.68-5,1.88-3.9-2.12-1-2.88-.31c-.22.47-6.63,8-3.57,8.22A4.35,4.35,0,0,1,401.75,86.76Z" fill="#3d3530"/><path d="M405,90.43a4.58,4.58,0,0,0,4.48.67s.46,2.42,4.08,3.12c.26,4.82,7.88,12,11.62,15.52a4.18,4.18,0,0,0-1-4.7c-2.2-2-3.61-5.63-6.15-7.57,0,0,4,2.59,5.49,4.82a6.59,6.59,0,0,0,2.86,2.68s.52-3-1.26-4.4-4.86-6-4.86-6,3.46,1.12,4.39,2.34a16.75,16.75,0,0,0,2.18,2.31c2.4-4.26-2.33-8.7-3-11.57-1.71.48-4.42,2.41-4.49,4.55l-1-1.12s2.65-3.67.44-5.84-3.78-2.08-5.4-.45S410.34,92.18,405,90.43Z" fill="#3d3530"/><path d="M403.22,109.32c3.16.43,4.13,4.58,7,6.19,1.93,1.82,4.42,6.27,6,7.33-2.11.14-6.78-5.77-8.08-6.77C406.92,115.47,406.16,111.46,403.22,109.32Z" fill="#3d3530"/><path d="M422.26,113.6s5,2.16,5.6,4.42,4.2,6,4.2,6C432.93,119.72,428.59,114.74,422.26,113.6Z" fill="#3d3530"/><path d="M420.24,117.47c3.86,2.83,3,10.35,2.72,13.7a23.7,23.7,0,0,0,1.76-3.38c.38-1.14.85,1.57-.53,4,0,0,4.27-5.22,2.63-10.89a14.8,14.8,0,0,1-.57,3.73A12.41,12.41,0,0,0,420.24,117.47Z" fill="#3d3530"/><path d="M418.29,125.38c4.51,4.81.46,11.54.26,16.33C416.49,139.25,421.16,128.23,418.29,125.38Z" fill="#3d3530"/><path d="M399.19,192.68c8.53,18.23,29.28-20.18,30.66-29.14,2.74-5.44-.33-11.35-2.06-15.64-6.39-14.71-23.8,11.62-25.16,13.63" fill="#dd9185"/><path d="M399.61,192.48c.95,1.84,2.3,3.6,4.1,4.14s3.77-.27,5.41-1.42a24.21,24.21,0,0,0,4.57-4.21,52.76,52.76,0,0,0,3.86-5A96.76,96.76,0,0,0,424,175c1-1.9,1.87-3.82,2.68-5.78a30,30,0,0,0,1.89-5.84,1.15,1.15,0,0,1,.12-.37v0a9.77,9.77,0,0,0,.85-2.65,11.8,11.8,0,0,0,0-2.85,23.62,23.62,0,0,0-1.62-5.84l-1.19-3c-.19-.5-.41-.87-.62-1.32a9.41,9.41,0,0,0-.76-1.14,4.05,4.05,0,0,0-4.54-1.4,15.31,15.31,0,0,0-5.17,2.91,44.8,44.8,0,0,0-4.57,4.27A99.2,99.2,0,0,0,403,161.8a.49.49,0,0,1-.81-.54,85.62,85.62,0,0,1,7.57-10.47,45.89,45.89,0,0,1,4.62-4.63,17.41,17.41,0,0,1,5.83-3.5,6.71,6.71,0,0,1,3.78-.13,6.3,6.3,0,0,1,3.21,2.13,11.4,11.4,0,0,1,1,1.49c.26.51.57,1.08.77,1.56l1.26,3a25.36,25.36,0,0,1,1.83,6.48,14.4,14.4,0,0,1,0,3.53,12.23,12.23,0,0,1-1.08,3.43l.13-.38a31.67,31.67,0,0,1-2.1,6.43c-.85,2-1.79,4-2.8,5.94a88,88,0,0,1-6.89,11.13,56.19,56.19,0,0,1-4.19,5.08,26.61,26.61,0,0,1-5.09,4.34,11.4,11.4,0,0,1-3.19,1.39,6.23,6.23,0,0,1-3.6-.14,6.63,6.63,0,0,1-2.83-2.12,12.52,12.52,0,0,1-1.67-2.92.45.45,0,0,1,.24-.6A.47.47,0,0,1,399.61,192.48Z" fill="#b35229"/><path d="M429.85,163.54c-.6,1.91-1.28,3.89-2,5.89-7.65-1.78-2-10.19-6.32-14.05-1.53-1.54-4.38,1.63-6.05,5.4-2.81,5,4.71,15.53-2.57,16.71a23.77,23.77,0,0,0-5.08,2c-2,.95-1.58.88-1.61-1.18s2.55-4.91,3.41-6.34c.88-3.95-4-2.59-.56-10.12C414.7,150.88,426.68,143.23,429.85,163.54Z" fill="#ce7672"/><path d="M424.91,151.48c-1.81-.72-3.87,0-5.6,1.06a23.72,23.72,0,0,0-4.8,3.93,27.9,27.9,0,0,0-3.79,4.93,16.19,16.19,0,0,0-1.3,2.69,4.92,4.92,0,0,0-.32,2.47,2,2,0,0,1,0,.26v0a1.74,1.74,0,0,0,.3.92c.21.36.57.76,1,1.35a4,4,0,0,1,.53,1.08,3.11,3.11,0,0,1,.09,1.42,5.32,5.32,0,0,1-.91,2c-.76,1.07-1.52,1.81-2,2.64a6,6,0,0,0-.84,2.68,5.09,5.09,0,0,0,0,.52.33.33,0,0,0-.07-.13.79.79,0,0,0-.4-.31.64.64,0,0,0-.24,0,.24.24,0,0,1-.1,0s-.07,0,0,0c.25-.08.83-.47,1.35-.74a7.12,7.12,0,0,1,1.81-.71c.57-.13,1.06-.25,1.6-.4a19.84,19.84,0,0,0,3.06-1.09,8.07,8.07,0,0,0,1.35-.78,2.08,2.08,0,0,0,.84-1l0-.07a.5.5,0,0,1,.6-.34.49.49,0,0,1,.35.53,3,3,0,0,1-1,1.78,8.34,8.34,0,0,1-1.47,1.09,20.74,20.74,0,0,1-3.18,1.55c-.54.2-1.13.39-1.65.56a5.16,5.16,0,0,0-1.29.64l-.68.44a4.89,4.89,0,0,1-.9.52,1.3,1.3,0,0,1-.42.13.69.69,0,0,1-.31,0,1.38,1.38,0,0,1-.45-.08,1.55,1.55,0,0,1-.72-.56,3,3,0,0,1-.22-.53,4.71,4.71,0,0,1-.1-1.16,7.87,7.87,0,0,1,1-3.78c.63-1.15,1.48-2,2-2.84a3.3,3.3,0,0,0,.49-1c0-.11,0-.17,0-.27a4.08,4.08,0,0,0-.23-.42c-.23-.35-.64-.8-1-1.4a4.27,4.27,0,0,1-.7-2.28l0,.3a7.23,7.23,0,0,1,.45-3.92,16.45,16.45,0,0,1,1.57-3.14A27.64,27.64,0,0,1,413,154.9a22.5,22.5,0,0,1,5.55-3.88,11.1,11.1,0,0,1,3.33-1,5.34,5.34,0,0,1,3.51.67.45.45,0,0,1,.14.63.46.46,0,0,1-.56.18Z" fill="#914139"/><path d="M399.61,192.48c.95,1.84,2.3,3.6,4.1,4.14s3.77-.27,5.41-1.42a24.21,24.21,0,0,0,4.57-4.21,52.76,52.76,0,0,0,3.86-5A96.76,96.76,0,0,0,424,175c1-1.9,1.87-3.82,2.68-5.78a30,30,0,0,0,1.89-5.84,1.15,1.15,0,0,1,.12-.37v0a9.77,9.77,0,0,0,.85-2.65,11.8,11.8,0,0,0,0-2.85,23.62,23.62,0,0,0-1.62-5.84l-1.19-3c-.19-.5-.41-.87-.62-1.32a9.41,9.41,0,0,0-.76-1.14,4.05,4.05,0,0,0-4.54-1.4,15.31,15.31,0,0,0-5.17,2.91,44.8,44.8,0,0,0-4.57,4.27A99.2,99.2,0,0,0,403,161.8a.49.49,0,0,1-.81-.54,85.62,85.62,0,0,1,7.57-10.47,45.89,45.89,0,0,1,4.62-4.63,17.41,17.41,0,0,1,5.83-3.5,6.71,6.71,0,0,1,3.78-.13,6.3,6.3,0,0,1,3.21,2.13,11.4,11.4,0,0,1,1,1.49c.26.51.57,1.08.77,1.56l1.26,3a25.36,25.36,0,0,1,1.83,6.48,14.4,14.4,0,0,1,0,3.53,12.23,12.23,0,0,1-1.08,3.43l.13-.38a31.67,31.67,0,0,1-2.1,6.43c-.85,2-1.79,4-2.8,5.94a88,88,0,0,1-6.89,11.13,56.19,56.19,0,0,1-4.19,5.08,26.61,26.61,0,0,1-5.09,4.34,11.4,11.4,0,0,1-3.19,1.39,6.23,6.23,0,0,1-3.6-.14,6.63,6.63,0,0,1-2.83-2.12,12.52,12.52,0,0,1-1.67-2.92.45.45,0,0,1,.24-.6A.47.47,0,0,1,399.61,192.48Z" fill="#914139"/><path d="M205.09,427.71c-8.14,21-23.43,14.53-25.07,7.5-51-43.23-66.45-73-76.6-130.72,0,0-26-19.68-32.57-26.62s-.7-15.06-.7-15.06c-4.22-8.64,7.73-16.8,7.73-16.8-3.28-11.16,12-11.57,12-11.57s-34-26.47-38.65-33,4.68-10.54,8.66-8.9c16.85,11.34,45.08,34.49,59,45.21-.17.49.53-26.09,7.49-31.49,4.33-4.43,10.32-4.86,14.06.34,5.37,7.52-4.16,17.69-6.56,25.77-6.72,22.92,11.95,44.35-7.5,63,9,13.64,55.32,48.38,69.35,60.21,10.07,8.9,11.71,18.51,16.63,37.25S205.09,427.71,205.09,427.71Z" fill="#eeb0a3" stroke="#000" stroke-linecap="round" stroke-linejoin="round" stroke-width="3"/><path d="M212.35,392.81c4.92,18.74-7.26,34.9-7.26,34.9-8.14,21-23.43,14.53-25.07,7.5-50.9-43.17-66.46-73-76.6-130.72,0,0-26-19.68-32.57-26.62s-.7-15.06-.7-15.06c-4.22-8.64,7.73-16.8,7.73-16.8-3.28-11.16,12-11.57,12-11.57s-34-26.47-38.65-33,4.68-10.54,8.66-8.9a83.3,83.3,0,0,1,8.39,5.86c-1.83,2.92-3,6.82.13,10.55,6,7.28,37.81,29.76,40.49,34.62S96,235.11,93,237.79s.13,16.66.13,16.66c-26.89,2.86-4.46,15.62,4.09,16.93l11.93-10.73s-3.37,13.09-7.08,17.28S96,291.69,99.66,296s13.66,16.61,16.47,27.47,24,61.31,34.49,67.57,29.31,34.37,35,23.95-.48-43.88-5.46-54c-3.53-7.14-10.06-19.79-12.58-28.06C196.17,356.28,205,356.57,212.35,392.81Z" fill="#dd9185"/><path d="M89.83,234.45s19.21,8.67,19.91,17.8-4,10.33-6.56,9.27S77.88,246,77.88,246s24.58,13,26.25,20.39-4,9.84-7.67,6.77c-11-9.65-13.69-10.19-25.67-10" fill="none" stroke="#914139" stroke-linecap="round" stroke-linejoin="round" stroke-width="3"/><path d="M133.87,232.34c-1.62,5.5-1.78,14.82-.64,24.46-5.92-3.28-13.42-14.11-18.55-22.39l4.2,3.31c-.18.47.53-26.08,7.49-31.49-1.93,8.15,2.74,18,7.65,25.64C134,232,133.92,232.18,133.87,232.34Z" fill="#dd9185"/><path d="M78.83,276c5.12,9.64,15.3,8.36,17.63-2.81" fill="none" stroke="#914139" stroke-linecap="round" stroke-linejoin="round" stroke-width="3"/><path d="M110.91,261.59c.55,3.81.92,7.56,1.68,11.16A38.63,38.63,0,0,0,114,278a22.77,22.77,0,0,0,2.48,4.83l0,0a.57.57,0,0,1-.15.79.58.58,0,0,1-.63,0,12.44,12.44,0,0,1-4.08-4.59,21,21,0,0,1-2-5.74,27.18,27.18,0,0,1-.54-6,23.09,23.09,0,0,1,.75-5.89.53.53,0,0,1,.66-.38.55.55,0,0,1,.39.44Z" fill="#914139"/><line x1="126.37" y1="295.36" x2="117.28" y2="303.45" fill="none" stroke="#914139" stroke-linecap="round" stroke-linejoin="round" stroke-width="3"/><path d="M205.09,427.71c-8.14,21-23.43,14.53-25.07,7.5-51-43.23-66.45-73-76.6-130.72,0,0-26-19.68-32.57-26.62s-.7-15.06-.7-15.06c-4.22-8.64,7.73-16.8,7.73-16.8-3.28-11.16,12-11.57,12-11.57s-34-26.47-38.65-33,4.68-10.54,8.66-8.9c16.85,11.34,45.08,34.49,59,45.21-.17.49.53-26.09,7.49-31.49,4.33-4.43,10.32-4.86,14.06.34,5.37,7.52-4.16,17.69-6.56,25.77-6.72,22.92,11.95,44.35-7.5,63,9,13.64,55.32,48.38,69.35,60.21,10.07,8.9,11.71,18.51,16.63,37.25S205.09,427.71,205.09,427.71Z" fill="none" stroke="#914139" stroke-linecap="round" stroke-linejoin="round" stroke-width="3"/><path d="M315.88,262.13s5.28-9.6,13.47-13.69,19.5-2.34,17.94,2.73-17.35,10.12-17.35,17.05-1.29,21.4-1.29,21.4S312.55,276.79,315.88,262.13Z" fill="#dd9185" stroke="#914139" stroke-linecap="round" stroke-linejoin="round" stroke-width="3"/><path d="M452.13,412c.61-.18,11.34,21.23,5,29.46-6.41,11.87-10.68,40.38-31.59,43s-43-11.88-58-41.81c-11.69-23.37-40.78-69.22-52.94-88.17,0,0,0,0,0,0v0c-1.51-2.37-4.77-7.39-5.47-8.47-5.7-3.36-46-28.53-39.7-41.22,0,0-8-5.38-1-17.1-14.4-14.55,20.78-22.24,24.22-20.41,0,0-24.47-24.38-26.36-27.87-8.62-28.55,54.8,27.78,51,24.28,48.94,116.94-4.18,30,106.78,125.86" fill="#eeb0a3"/><path d="M452,411.5a.56.56,0,0,1,.36,0,.3.3,0,0,1,.13.07.53.53,0,0,1,.13.1l.12.13.17.24.27.44c.18.29.34.58.49.87.31.58.61,1.17.89,1.77.56,1.18,1.08,2.39,1.57,3.61a62.12,62.12,0,0,1,2.45,7.47,33.81,33.81,0,0,1,1.14,7.84,12.48,12.48,0,0,1-2.11,7.78l.06-.08c-2.21,4.27-3.73,9-5.47,13.54a105.3,105.3,0,0,1-5.91,13.54A36.74,36.74,0,0,1,437,480.47a23.09,23.09,0,0,1-6.62,3.63l-.9.31-.92.24-.92.24-.94.16a33.85,33.85,0,0,1-3.74.38c-10,.6-20-2.75-28.17-8.36a77.65,77.65,0,0,1-20.58-21.21,119.26,119.26,0,0,1-7.51-12.77c-2.23-4.33-4.53-8.64-6.95-12.89-4.8-8.52-9.82-16.93-14.9-25.29-10.19-16.73-20.67-33.28-31.29-49.74l-.2-.7v.06a1,1,0,0,0,0,.2,1.37,1.37,0,0,0,.36.65,1.24,1.24,0,0,0,.65.35l.19,0h.06l-.92-.38a1.41,1.41,0,0,1-.38-.93l.2.69L308,346.69l.44.42c-4.35-2.59-8.54-5.33-12.68-8.2s-8.18-5.88-12.08-9.1a84.39,84.39,0,0,1-11-10.61,29.7,29.7,0,0,1-4.29-6.61,15.46,15.46,0,0,1-.72-1.94,7.15,7.15,0,0,1-.24-1,7.6,7.6,0,0,1-.17-1.08,8.89,8.89,0,0,1,.77-4.45l.51,1.92h0a10.77,10.77,0,0,1-2-2,11.39,11.39,0,0,1-1.4-2.31,12.12,12.12,0,0,1-1.08-5.21,16.63,16.63,0,0,1,.94-5.09c.3-.79.64-1.55,1-2.33l1.19-2.18.22,1.76a15.1,15.1,0,0,1-3.21-4.67,7.92,7.92,0,0,1,0-6.05,11.83,11.83,0,0,1,3.56-4.52,25.89,25.89,0,0,1,4.57-2.91,47.82,47.82,0,0,1,9.91-3.59,52.49,52.49,0,0,1,5.17-1c.87-.12,1.76-.21,2.67-.26.47,0,.93,0,1.43,0a4.79,4.79,0,0,1,1.79.4l-1.57,2.13q-6.78-6.82-13.45-13.72-3.34-3.45-6.63-7c-1.09-1.17-2.18-2.36-3.25-3.56-.53-.62-1.07-1.21-1.59-1.85l-.79-1c-.26-.35-.53-.77-.79-1.15a.51.51,0,0,1-.07-.17l0-.06a18.22,18.22,0,0,1-.84-4.58,6.29,6.29,0,0,1,.42-2.63,3.84,3.84,0,0,1,2.19-2.14,6,6,0,0,1,2.68-.27,13.4,13.4,0,0,1,2.35.47,28.83,28.83,0,0,1,4.21,1.67,108.18,108.18,0,0,1,14.93,9.24c4.74,3.38,9.34,6.92,13.87,10.55q3.41,2.73,6.74,5.51l3.33,2.8,1.66,1.41.83.7.41.35.18.15-.12-.07c-.58.26,1-.74-1.46.56.39,2.08.12.59.21,1.05h0l-.09-.08,1.66-1.16q8.25,19.86,15.84,40c2.53,6.7,4.91,13.49,7.45,20.15.65,1.65,1.31,3.31,2.08,4.87a15,15,0,0,0,2.8,4.25,17.36,17.36,0,0,0,4.16,3l4.74,2.49a187.75,187.75,0,0,1,18.47,11.14c6,4,11.72,8.29,17.43,12.64,11.37,8.76,22.38,18,33.22,27.34a.56.56,0,0,1,.06.79.57.57,0,0,1-.79.06c-10.89-9.31-21.93-18.44-33.32-27.1-5.71-4.31-11.47-8.55-17.43-12.5a188.24,188.24,0,0,0-18.38-10.95l-4.78-2.48a19.19,19.19,0,0,1-4.57-3.23,16.81,16.81,0,0,1-3.13-4.66c-.82-1.64-1.49-3.32-2.16-5-2.61-6.71-5-13.44-7.57-20.13-5.09-13.38-10.47-26.65-16-39.85a1,1,0,0,1,.55-1.36,1,1,0,0,1,1.11.2l.11.1.09.09c.09.47-.17-1,.23,1.08-2.47,1.31-.89.29-1.48.55l-.17-.11-.24-.2-.42-.35-.83-.7L313.67,262l-3.33-2.77q-3.34-2.76-6.74-5.45c-4.53-3.58-9.12-7.09-13.83-10.4a107.41,107.41,0,0,0-14.63-9,27,27,0,0,0-3.86-1.5,6.14,6.14,0,0,0-3.51-.24,1.37,1.37,0,0,0-.82.81,4.26,4.26,0,0,0-.22,1.64,15.84,15.84,0,0,0,.76,3.93l-.09-.23c.2.27.36.53.58.81l.73.9c.49.59,1,1.18,1.54,1.77,1.07,1.18,2.14,2.35,3.24,3.51,2.18,2.32,4.4,4.62,6.63,6.91q6.69,6.85,13.5,13.61a.59.59,0,0,1,0,.83l-.05.05-1.52,1.24a6.51,6.51,0,0,0-.71-.09c-.35,0-.75,0-1.14,0-.79.05-1.6.13-2.42.25a48.29,48.29,0,0,0-4.87,1A45.3,45.3,0,0,0,273.6,273a23.3,23.3,0,0,0-4.05,2.59,9.14,9.14,0,0,0-2.72,3.43,5.08,5.08,0,0,0,.05,3.92,12.55,12.55,0,0,0,2.6,3.69,1.49,1.49,0,0,1,.24,1.73l0,0-1.06,2c-.28.67-.57,1.34-.83,2a13.73,13.73,0,0,0-.76,4.15,9.42,9.42,0,0,0,.84,3.94,8.59,8.59,0,0,0,1,1.71c.22.25.43.51.67.74a5.33,5.33,0,0,0,.67.59h0l0,0a1.62,1.62,0,0,1,.47,1.88,5.79,5.79,0,0,0-.49,2.85,5.26,5.26,0,0,0,.12.78,5.89,5.89,0,0,0,.17.79,12.46,12.46,0,0,0,.58,1.57,26.82,26.82,0,0,0,3.83,5.94,81.93,81.93,0,0,0,10.52,10.29c3.8,3.17,7.77,6.16,11.84,9s8.23,5.62,12.46,8.17h0a1.3,1.3,0,0,1,.43.41l5.45,8.49.2.7a1.2,1.2,0,0,0-.37-.89l-.92-.39h.08l.2,0a1.29,1.29,0,0,1,.65.36,1.24,1.24,0,0,1,.35.65.7.7,0,0,1,0,.2v.07l-.2-.7c10.53,16.54,20.92,33.16,31,50,5,8.41,10,16.86,14.79,25.44,2.4,4.28,4.69,8.63,6.92,13a118.51,118.51,0,0,0,7.31,12.59,76.08,76.08,0,0,0,20,20.84c7.91,5.48,17.49,8.74,27.1,8.23a24.26,24.26,0,0,0,7-1.21,21.63,21.63,0,0,0,6.21-3.36,35.43,35.43,0,0,0,9-11.12A105.55,105.55,0,0,0,451,454.83c1.76-4.56,3.29-9.23,5.61-13.66a.35.35,0,0,1,.05-.08h0a11.3,11.3,0,0,0,1.9-7,32.59,32.59,0,0,0-1.06-7.57,59.91,59.91,0,0,0-2.37-7.35c-.47-1.2-1-2.39-1.52-3.56-.27-.58-.55-1.16-.85-1.72-.15-.28-.3-.56-.46-.83l-.24-.39-.12-.16,0-.05s0,0,0,0l.08,0a.44.44,0,0,0,.3,0,.53.53,0,1,1-.29-1Z"/><path d="M347.09,333.76a18.47,18.47,0,0,1-.19,4.81c-.21,1.61-.47,3.21-.83,4.82a.49.49,0,0,1-.59.37.48.48,0,0,1-.37-.37c-.36-1.61-.62-3.21-.83-4.82a18,18,0,0,1-.18-4.81,1.51,1.51,0,0,1,3,0Z" fill="#914139"/><path d="M311.42,349.51c-2.63-5.91-15.28-10.1-25.8-19.93-6.89-6.41-21-18.69-16.19-24.83,0,0-8-5.38-1-17.1-14.4-14.55,20.78-22.24,24.22-20.41,0,0-24.47-24.38-26.36-27.87-3.58-9.78,3.87-10.87,11.84-4.61a0,0,0,0,1,0,0s-10.62-2.51-5.55,3.53c4.14,4.93,20.21,23,29.64,30a1.69,1.69,0,0,1-.87,3.05c-7.61.53-19.67,2.14-19.41,6.95.39,7-6.89,9-4.81,15.2s6.37,14.82,13,20.09,38.67,22.42,41.27,29.83C333.86,350.31,334,357.23,311.42,349.51Z" fill="#dd9185"/><path d="M376.19,360.33c12.49,5.48,62.39,49.21,70.53,56.36,6.24,7-11.89,7.8-45.62-23.59C372.05,366.07,371.35,360.3,376.19,360.33Z" fill="#ffb9ae"/><path d="M459,434.58c-6.15,15.25-10.65,45.33-33.49,49.87-20.91,2.61-43-11.88-58-41.81-11.69-23.37-40.78-69.22-52.94-88.17,18.18,16.27,81.54,117.29,113.18,113.9C432.93,467.54,451.09,443.73,459,434.58Z" fill="#dd9185"/><path d="M268.67,303.47a19.17,19.17,0,0,1,3.79-2,28.24,28.24,0,0,1,4.06-1.19,20.75,20.75,0,0,1,4.24-.52,13.51,13.51,0,0,1,4.24.6.49.49,0,0,1,.31.61.48.48,0,0,1-.48.34h0a16.44,16.44,0,0,0-3.84.34,30.42,30.42,0,0,0-3.71,1.12c-1.21.45-2.39,1-3.56,1.58L270.2,306l-.05,0a1.5,1.5,0,0,1-1.48-2.59Z" fill="#914139"/><path d="M267.78,286.31a20.06,20.06,0,0,1,3.79-1.65,28.86,28.86,0,0,1,4-1,21.13,21.13,0,0,1,4.13-.34,13.07,13.07,0,0,1,4.12.67.47.47,0,0,1,.3.61.48.48,0,0,1-.48.33h0a17,17,0,0,0-3.77.28,34.05,34.05,0,0,0-3.66,1c-1.21.39-2.38.9-3.56,1.37s-2.38,1-3.52,1.39l-.06,0a1.5,1.5,0,0,1-1.28-2.7Z" fill="#914139"/><path d="M293.31,265.89c.84.23,1.82.55,2.74.85s1.89.62,2.86.85,2,.47,3,.63,2,.29,3.06.41h0a.49.49,0,0,1,.43.54.48.48,0,0,1-.37.42,19.2,19.2,0,0,1-3.21.53,21.11,21.11,0,0,1-3.28.06,21.61,21.61,0,0,1-3.29-.42,11.61,11.61,0,0,1-3.19-1.16,1.5,1.5,0,0,1,1.12-2.75Z" fill="#914139"/><path d="M305.2,277.79a4.81,4.81,0,0,1,2.55,1,7,7,0,0,1,1.77,2,7.56,7.56,0,0,1,.93,2.44,6,6,0,0,1,0,2.59.61.61,0,0,1-.75.45.56.56,0,0,1-.33-.2l0,0a17,17,0,0,1-1.29-1.92l-1.06-1.8-1.06-1.74c-.35-.59-.76-1.2-1.13-1.85l-.08-.14a.55.55,0,0,1,.21-.75A.59.59,0,0,1,305.2,277.79Z" fill="#914139"/><path d="M297.41,294.76a7.09,7.09,0,0,1,2.52.55,10.83,10.83,0,0,1,2.17,1.18,9.33,9.33,0,0,1,3.25,3.74.62.62,0,0,1-.71.86h0a10.76,10.76,0,0,1-2.27-.91,20.22,20.22,0,0,1-2-1.22,17.68,17.68,0,0,1-1.81-1.45,12.22,12.22,0,0,1-1.62-1.79l0,0a.58.58,0,0,1,.14-.81A.52.52,0,0,1,297.41,294.76Z" fill="#914139"/><path d="M293.61,313.05a5.87,5.87,0,0,1,2.32-.05,8.26,8.26,0,0,1,2.12.65,8.6,8.6,0,0,1,1.88,1.18,6,6,0,0,1,1.47,1.77.64.64,0,0,1-.27.86.57.57,0,0,1-.33.07h0a9.4,9.4,0,0,1-2.1-.43,19,19,0,0,1-1.87-.72,15.23,15.23,0,0,1-1.76-1,8.9,8.9,0,0,1-1.68-1.34l0,0a.6.6,0,0,1,0-.84A.54.54,0,0,1,293.61,313.05Z" fill="#914139"/><path d="M309.44,344.51a14.16,14.16,0,0,1,4.12,1c1.35.49,2.68,1,4,1.66a.51.51,0,0,1,.23.67.5.5,0,0,1-.43.28,41.62,41.62,0,0,1-4.33,0,14.4,14.4,0,0,1-4.19-.67,1.52,1.52,0,0,1,.6-2.93Z" fill="#914139"/><path d="M452.13,412c.61-.18,11.34,21.23,5,29.46-6.41,11.87-10.68,40.38-31.59,43s-43-11.88-58-41.81c-11.69-23.37-40.78-69.22-52.94-88.17,0,0,0,0,0,0v0c-1.51-2.37-4.77-7.39-5.47-8.47-5.7-3.36-46-28.53-39.7-41.22,0,0-8-5.38-1-17.1-14.4-14.55,20.78-22.24,24.22-20.41,0,0-24.47-24.38-26.36-27.87-8.62-28.55,54.8,27.78,51,24.28,48.94,116.94-4.18,30,106.78,125.86" fill="none" stroke="#914139" stroke-linecap="round" stroke-linejoin="round" stroke-width="3"/><path d="M2.66,2.05H26.21V9.76H10L9.69,27.09H25.12v7.72H9.49l-.14,6.75,17.2-.47.13,7.57-21.22.62-4,.07,1-43.55Z" fill="#5086ff" stroke="#0055ba" stroke-linecap="round" stroke-linejoin="round" stroke-width="3"/><path d="M54.73,42.11l.14,3.48.27,4h-4L30.5,49.35V45.59l.41-44,7.58.07-.34,40.2Z" fill="#5086ff" stroke="#0055ba" stroke-linecap="round" stroke-linejoin="round" stroke-width="3"/><path d="M56,27.85C56,18.7,59.44,2.25,70.5,1.57c6.21-.41,10,4.64,11.81,11.74A42.42,42.42,0,0,1,83.4,23.82,46.18,46.18,0,0,1,82.31,34.6c-1.85,8.74-6.21,15.56-13,15.29C58.62,49.69,56,36.31,56,27.85ZM69.48,42.31c2.39.07,4.23-4,5.39-9.21a47.91,47.91,0,0,0,.95-9.28C75.82,21,74.94,9,70.91,9.14,68.18,9.35,66,13.72,64.7,19a41.65,41.65,0,0,0-1.09,8.81,37.62,37.62,0,0,0,1,8.25C65.59,39.65,67.16,42.25,69.48,42.31Z" fill="#5086ff" stroke="#0055ba" stroke-linecap="round" stroke-linejoin="round" stroke-width="3"/><path d="M88.38,2H99.23l.89,2.52,9.76,25.94L111,1.5l7.64.34L117,44.23,116.84,48h-8.53l-.89-2.53L95.61,14.33,94.66,50l-7.58-.21,1.23-44Z" fill="#5086ff" stroke="#0055ba" stroke-linecap="round" stroke-linejoin="round" stroke-width="3"/><path d="M164.61,42.11l.14,3.48.27,4h-4l-20.62-.27V45.59l.41-44,7.58.07L148,41.84Z" fill="#5086ff" stroke="#0055ba" stroke-linecap="round" stroke-linejoin="round" stroke-width="3"/><path d="M165.91,27.85c0-9.15,3.41-25.6,14.47-26.28,6.21-.41,10,4.64,11.81,11.74a42.9,42.9,0,0,1,1.09,10.51,46.72,46.72,0,0,1-1.09,10.78c-1.85,8.74-6.22,15.56-13,15.29C168.5,49.69,165.91,36.31,165.91,27.85Zm13.44,14.46c2.39.07,4.24-4,5.4-9.21a47.91,47.91,0,0,0,.95-9.28c0-2.87-.89-14.81-4.91-14.68-2.73.21-4.92,4.58-6.21,9.9a41.66,41.66,0,0,0-1.1,8.81,37.64,37.64,0,0,0,1,8.25C175.46,39.65,177,42.25,179.35,42.31Z" fill="#5086ff" stroke="#0055ba" stroke-linecap="round" stroke-linejoin="round" stroke-width="3"/><path d="M202.62,3l7.24,37.81h.82L216.62,3l7.5,1.16-6.89,44.3H203.58l-8.39-44Z" fill="#5086ff" stroke="#0055ba" stroke-linecap="round" stroke-linejoin="round" stroke-width="3"/><path d="M228.15,2.05H251.7V9.76H235.52l-.34,17.33H250.6v7.72H235l-.13,6.75,17.2-.47.13,7.57L231,49.28l-4,.07L228,5.8Z" fill="#5086ff" stroke="#0055ba" stroke-linecap="round" stroke-linejoin="round" stroke-width="3"/><path d="M2.11,84.56l3.35-.34c8.8-.89,14.81,1.91,17.88,5.94a12,12,0,0,1,.75,13.17,10.93,10.93,0,0,1-2.32,3c2.8,2,5,5.26,5.19,10.65.68,16.11-21.5,14.2-21.57,14.2l-3.55-.28v-3.55L2.11,88Zm7.38,39c4.09-.14,10-1.3,9.89-6.21s-5.53-6.83-9.89-6.21Zm.13-19.31a8.36,8.36,0,0,0,7.71-4.58,5.13,5.13,0,0,0,.75-2.59,3.81,3.81,0,0,0-.88-2.25c-1.23-1.71-3.76-2.94-7.58-3.14Z" fill="#5086ff" stroke="#0055ba" stroke-linecap="round" stroke-linejoin="round" stroke-width="3"/><path d="M29.55,109.74C29.55,100.6,33,84.15,44,83.47c6.21-.41,10,4.64,11.81,11.74a42.42,42.42,0,0,1,1.09,10.51,46.18,46.18,0,0,1-1.09,10.78c-1.85,8.74-6.21,15.56-13,15.29C32.14,131.58,29.55,118.21,29.55,109.74ZM43,124.21c2.38.07,4.23-4,5.39-9.21a47.91,47.91,0,0,0,1-9.28c0-2.87-.88-14.81-4.91-14.68-2.73.21-4.92,4.58-6.21,9.9a41.64,41.64,0,0,0-1.09,8.8,37.64,37.64,0,0,0,.95,8.26C39.11,121.55,40.67,124.15,43,124.21Z" fill="#5086ff" stroke="#0055ba" stroke-linecap="round" stroke-linejoin="round" stroke-width="3"/><path d="M61.22,84.56l3.34-.34c8.8-.89,14.81,1.91,17.88,5.94a12,12,0,0,1,.75,13.17,10.93,10.93,0,0,1-2.32,3c2.8,2,5,5.26,5.19,10.65.68,16.11-21.5,14.2-21.57,14.2l-3.55-.28v-3.55L61.22,88Zm7.37,39c4.09-.14,10-1.3,9.89-6.21s-5.52-6.83-9.89-6.21Zm.13-19.31a8.39,8.39,0,0,0,7.72-4.58,5.23,5.23,0,0,0,.75-2.59,3.89,3.89,0,0,0-.89-2.25c-1.23-1.71-3.76-2.94-7.58-3.14Z" fill="#5086ff" stroke="#0055ba" stroke-linecap="round" stroke-linejoin="round" stroke-width="3"/><path d="M104.76,130l10.44-45.8h11.94l.62,2.93L137.59,130l-7.44,1.57L128,121.28H114.52l-2.32,10.24Zm21.5-16.32-5.39-22.25-4.65,22.25Z" fill="#5086ff" stroke="#0055ba" stroke-linecap="round" stroke-linejoin="round" stroke-width="3"/><path d="M140.45,131.72V83.54H148v48.18Z" fill="#5086ff" stroke="#0055ba" stroke-linecap="round" stroke-linejoin="round" stroke-width="3"/></svg>